<svg width="24" height="22" viewBox="0 0 24 22" fill="none" xmlns="http://www.w3.org/2000/svg">
<path fill-rule="evenodd" clip-rule="evenodd" d="M16 4.19048C16 6.50481 14.2091 8.38095 12 8.38095C9.79086 8.38095 8 6.50481 8 4.19048C8 1.87614 9.79086 0 12 0C14.2091 0 16 1.87614 16 4.19048ZM5 9.42857C6.65685 9.42857 8 8.02147 8 6.28571C8 4.54996 6.65685 3.14286 5 3.14286C3.34315 3.14286 2 4.54996 2 6.28571C2 8.02147 3.34315 9.42857 5 9.42857ZM19 9.42857C20.6569 9.42857 22 8.02147 22 6.28571C22 4.54996 20.6569 3.14286 19 3.14286C17.3431 3.14286 16 4.54996 16 6.28571C16 8.02147 17.3431 9.42857 19 9.42857ZM18.4625 10.4762H22C23.1046 10.4762 24 11.4143 24 12.5714V18.8571C24 19.4357 23.5523 19.9048 23 19.9048H19V12.5714C19.0007 11.8355 18.8152 11.1126 18.4625 10.4762ZM5.53813 10.4762H2C0.89543 10.4762 0 11.4143 0 12.5714V18.8571C0 19.4357 0.447715 19.9048 1 19.9048H5V12.5714C4.99949 11.8355 5.18517 11.1125 5.53813 10.4762ZM14 8.38095H15C16.6569 8.38095 18 9.78806 18 11.5238V20.9524C18 21.531 17.5523 22 17 22H7C6.44772 22 6 21.531 6 20.9524V11.5238C6 9.78806 7.34315 8.38095 9 8.38095H10L12 14.6667L14 8.38095Z" fill="#EF6039"/>
</svg>
