<svg width="48" height="48" viewBox="0 0 48 48" fill="none" xmlns="http://www.w3.org/2000/svg">
<rect x="0.5" y="0.5" width="47" height="47" rx="23.5" stroke="white" stroke-opacity="0.300385"/>
<path fill-rule="evenodd" clip-rule="evenodd" d="M25.1983 12V13.7067C24.9655 13.6593 24.7244 13.6341 24.4774 13.6341C24.2304 13.6341 23.9893 13.6593 23.7565 13.7067V12H25.1983ZM24.448 21.1005L23.3996 23.7708V23.7708H19.5545L21.4966 18.9237C22.1225 19.889 23.2243 20.5315 24.4774 20.5315C25.7069 20.5315 26.791 19.913 27.4226 18.9779L29.3442 23.7708H25.4974L24.448 21.1005ZM26.5633 17.0828C26.5633 18.2091 25.6294 19.1221 24.4774 19.1221C23.3254 19.1221 22.3915 18.2091 22.3915 17.0828C22.3915 15.9566 23.3254 15.0436 24.4774 15.0436C25.6294 15.0436 26.5633 15.9566 26.5633 17.0828ZM16.2527 26.5842V25.1803H33V26.5842H30.4722L32.8945 32.6258L31.9227 32.9992L32.901 35.4293L31.5594 35.9455L30.5809 33.5147L29.4913 33.9332L26.6031 26.5842H25.1983V28.3682H23.7565V26.5842H22.2951L19.4098 33.9332L18.3391 33.5219L17.3416 36L16 35.4838L16.9972 33.0064L16.0064 32.6258L18.4272 26.5842H16.2527Z" fill="white"/>
</svg>
