<svg width="48" height="48" viewBox="0 0 48 48" fill="none" xmlns="http://www.w3.org/2000/svg">
<rect x="0.5" y="0.5" width="47" height="47" rx="23.5" stroke="#EF6039" stroke-opacity="0.300385"/>
<path fill-rule="evenodd" clip-rule="evenodd" d="M34 34.2069V31.7304C34.5273 31.4223 34.8363 30.8472 34.8 30.2414C34.8 29.3654 34.2629 28.6552 33.6 28.6552C32.9371 28.6552 32.4 29.3654 32.4 30.2414C32.3637 30.8472 32.6727 31.4223 33.2 31.7304V34.2069H30.4V22.1589L28 20.9693V23.1034H29.2V23.8966H28V25.4828H29.2V26.2759H28V27.8621H29.2V28.6552H28V30.2414H29.2V31.0345H28V32.6207H29.2V33.4138H28V34.2069H27.2V18.2472L22.4 16.888V18.3448H25.2V19.1379H22.4V20.7241H25.2V21.5172H22.4V23.1034H25.2V23.8966H22.4V25.4828H25.2V26.2759H22.4V27.8621H25.2V28.6552H22.4V30.2414H25.2V31.0345H22.4V32.6207H25.2V33.4138H22.4V34.2069H21.6V12H14.4V13.5862H18V14.3793H14.4V15.9655H18V16.7586H14.4V18.3448H18V19.1379H14.4V20.7241H18V21.5172H14.4V23.1034H18V23.8966H14.4V25.4828H18V26.2759H14.4V27.8621H18V28.6552H14.4V30.2414H18V31.0345H14.4V32.6207H18V33.4138H14.4V34.2069H12V35H36V34.2069H34Z" fill="#EF6039"/>
</svg>
