<svg width="48" height="48" viewBox="0 0 48 48" fill="none" xmlns="http://www.w3.org/2000/svg">
<rect x="0.5" y="0.5" width="47" height="47" rx="23.5" stroke="#EF6039" stroke-opacity="0.300385"/>
<path fill-rule="evenodd" clip-rule="evenodd" d="M30.1032 34.9372C29.6976 34.3877 29.4569 33.7051 29.4569 32.9662V14.657C29.4569 14.2942 29.1683 14 28.8123 14H13.6445C13.2886 14 13 14.2942 13 14.657V31.6521C13 33.4635 14.4457 34.9372 16.2226 34.9372H30.1032ZM16.4375 26.6149H18.4999C18.8559 26.6149 19.1445 26.9091 19.1445 27.2719C19.1445 27.6348 18.8559 27.929 18.4999 27.929H16.4375C16.0815 27.929 15.7929 27.6348 15.7929 27.2719C15.7929 26.9091 16.0815 26.6149 16.4375 26.6149ZM16.4375 23.8116C16.0815 23.8116 15.7929 24.1058 15.7929 24.4686C15.7929 24.8315 16.0815 25.1256 16.4375 25.1256H18.4999C18.8559 25.1256 19.1445 24.8315 19.1445 24.4686C19.1445 24.1058 18.8559 23.8116 18.4999 23.8116H16.4375ZM26.0624 31.7835H16.4375C16.0815 31.7835 15.7929 31.4893 15.7929 31.1265C15.7929 30.7636 16.0815 30.4695 16.4375 30.4695H26.0624C26.4183 30.4695 26.7069 30.7636 26.7069 31.1265C26.7069 31.4893 26.4183 31.7835 26.0624 31.7835ZM26.0624 28.9802C26.4183 28.9802 26.7069 28.686 26.7069 28.3232V23.4174C26.7069 23.0545 26.4183 22.7604 26.0624 22.7604H21.2499C20.894 22.7604 20.6054 23.0545 20.6054 23.4174V28.3232C20.6054 28.686 20.894 28.9802 21.2499 28.9802H26.0624ZM26.0624 21.2711H16.4375C16.0815 21.2711 15.7929 20.9769 15.7929 20.6141C15.7929 20.2512 16.0815 19.957 16.4375 19.957H26.0624C26.4183 19.957 26.7069 20.2512 26.7069 20.6141C26.7069 20.9769 26.4183 21.2711 26.0624 21.2711ZM16.4375 18.4678H26.0624C26.4183 18.4678 26.7069 18.1736 26.7069 17.8108C26.7069 17.4479 26.4183 17.1537 26.0624 17.1537H16.4375C16.0815 17.1537 15.7929 17.4479 15.7929 17.8108C15.7929 18.1736 16.0815 18.4678 16.4375 18.4678ZM21.8944 24.0744H25.4179V27.6661H21.8944V24.0744ZM30.7459 18.5554H34.3553C34.7112 18.5554 34.9998 18.8496 34.9998 19.2124C34.9998 32.6184 35.0009 32.9188 34.9981 32.9188C34.9979 32.9188 34.9978 32.9182 34.9976 32.9182C34.9424 34.3381 33.5799 35.318 32.2511 34.9046C31.4204 34.6463 30.8054 33.8839 30.7498 32.9666C30.7494 32.9666 30.7491 32.9683 30.7488 32.9683C30.744 32.9682 30.7459 32.546 30.7459 18.5554Z" fill="#EF6039"/>
</svg>
