<?xml version="1.0" standalone="no"?>
<!DOCTYPE svg PUBLIC "-//W3C//DTD SVG 1.1//EN" "http://www.w3.org/Graphics/SVG/1.1/DTD/svg11.dtd" >
<svg xmlns="http://www.w3.org/2000/svg" xmlns:xlink="http://www.w3.org/1999/xlink" version="1.1">
<metadata>
Created by FontForge 20170731 at Tue Jan 28 00:27:27 2020
 By Aleksey,,,
Copyright 2020 The Spartan Project Authors (https://github.com/bghryct/Spartan-MB)
</metadata>
<defs>
<font id="Spartan-Light" horiz-adv-x="1433" >
  <font-face 
    font-family="Spartan Light"
    font-weight="300"
    font-stretch="normal"
    units-per-em="2000"
    panose-1="0 0 0 0 0 0 0 0 0 0"
    ascent="1600"
    descent="-400"
    x-height="1024"
    cap-height="1650"
    bbox="-595 -592 2978 2309"
    underline-thickness="100"
    underline-position="-300"
    unicode-range="U+000D-FB02"
  />
<missing-glyph horiz-adv-x="684" 
 />
    <glyph glyph-name="fi" unicode="fi" horiz-adv-x="945" 
d="M233 0v944h-94v80h94v395q0 117 33 190t92 107t136 34q51 0 98 -16.5t85 -45.5t61 -69l-59 -57q-20 43 -68 69.5t-96 26.5q-85 0 -130.5 -53.5t-45.5 -178.5v-402h427v-1024h-106v944h-321v-944h-106z" />
    <glyph glyph-name="fl" unicode="fl" horiz-adv-x="1110" 
d="M269 0v944h-97v80h97v395q0 117 32 190t90.5 107t135.5 34q50 0 85 -10.5t57 -22.5l-28 -82q-19 10 -44 16t-56 6q-82 0 -125 -53t-43 -178v-402h266v-80h-266v-944h-104zM744 0v1720h102v-1720h-102z" />
    <glyph glyph-name="f_f" unicode="ff" horiz-adv-x="1287" 
d="M278 0v944h-94v80h94v395q0 117 32.5 190t91.5 107t137 34q53 0 91 -12.5t62 -27.5l-40 -75q-19 10 -44 16t-56 6q-82 0 -125 -53t-43 -178v-402h336v395q0 117 32.5 190t91 107t136.5 34q66 0 108 -17t66 -37l-38 -76q-20 16 -50 26.5t-72 10.5q-82 0 -125 -53t-43 -178
v-402h266v-80h-266v-944h-106v944h-336v-944h-106z" />
    <glyph glyph-name="f_f_i" unicode="ffi" horiz-adv-x="1467" 
d="M274 0v944h-95v80h95v395q0 117 32.5 190t91.5 107t137 34q53 0 90.5 -12.5t62.5 -27.5l-41 -75q-18 10 -43 16t-56 6q-82 0 -125 -53t-43 -178v-402h336v395q0 117 32.5 190t91.5 107t137 34q50 0 97 -16.5t85 -45.5t61 -69l-59 -57q-20 43 -67.5 69.5t-95.5 26.5
q-86 0 -131 -53.5t-45 -178.5v-402h424v-1024h-106v944h-318v-944h-106v944h-336v-944h-106z" />
    <glyph glyph-name="f_f_l" unicode="ffl" horiz-adv-x="1555" 
d="M269 0v944h-95v80h95v395q0 117 32.5 190t91 107t136.5 34q53 0 91 -12.5t63 -27.5l-41 -75q-19 10 -43.5 16t-55.5 6q-82 0 -125 -53t-43 -178v-402h335v395q0 117 32.5 190t91.5 107t137 34q49 0 84 -10.5t58 -22.5l-29 -82q-19 10 -44 16t-55 6q-83 0 -126 -53
t-43 -178v-402h266v-80h-266v-944h-106v944h-335v-944h-106zM1185 0v1720h106v-1720h-106z" />
    <glyph glyph-name=".notdef" horiz-adv-x="684" 
 />
    <glyph glyph-name=".null" horiz-adv-x="0" 
 />
    <glyph glyph-name="nonmarkingreturn" horiz-adv-x="666" 
 />
    <glyph glyph-name="NULL" horiz-adv-x="0" 
 />
    <glyph glyph-name="NULL" horiz-adv-x="0" 
 />
    <glyph glyph-name="CR" unicode="&#xd;" horiz-adv-x="508" 
 />
    <glyph glyph-name="space" unicode=" " horiz-adv-x="508" 
 />
    <glyph glyph-name="exclam" unicode="!" horiz-adv-x="723" 
d="M318 370l-7 1350h102l-8 -1350h-87zM362 -32q-22 0 -40 10.5t-28.5 28.5t-10.5 40q0 21 10.5 38.5t28.5 28.5t40 11q21 0 39 -11t28.5 -28.5t10.5 -38.5q0 -22 -10.5 -40t-28.5 -28.5t-39 -10.5z" />
    <glyph glyph-name="quotedbl" unicode="&#x22;" horiz-adv-x="825" 
d="M469 1298l-21 357h118l-20 -357h-77zM279 1298l-20 357h118l-21 -357h-77z" />
    <glyph glyph-name="numbersign" unicode="#" horiz-adv-x="1412" 
d="M331 0l57 418h-182v72h192l61 433h-253v72h261l57 420h72l-57 -420h412l57 420h72l-57 -420h182v-72h-192l-61 -433h253v-72h-261l-57 -418h-72l57 418h-412l-57 -418h-72zM468 490h414l59 433h-412z" />
    <glyph glyph-name="dollar" unicode="$" horiz-adv-x="1497" 
d="M741 -276v246q-80 1 -163.5 29t-157.5 75.5t-128.5 107t-77.5 122.5l69 71q41 -90 117 -158.5t172.5 -107t198.5 -38.5q107 0 194 43t137.5 122.5t50.5 186.5q0 93 -37.5 157t-101 109t-144 79.5t-166.5 68.5q-103 41 -190.5 91t-140.5 125.5t-53 193.5t54.5 214
t149.5 154t217 63v248h74v-249q115 -10 214.5 -71.5t145.5 -151.5l-64 -70q-42 86 -138.5 141t-208.5 55q-100 0 -176.5 -44.5t-120.5 -119.5t-44 -165q0 -98 50 -159.5t130 -100.5t168 -73q102 -40 191 -81.5t157 -96t107 -130t39 -182.5q0 -128 -55.5 -226.5t-157 -158
t-237.5 -69.5v-250h-74z" />
    <glyph glyph-name="percent" unicode="%" horiz-adv-x="2226" 
d="M615 892q-115 0 -206 50t-145 139t-54 205t54 205t145 139t206 50q113 0 204 -50t144.5 -139t53.5 -205t-53.5 -205t-144.5 -139t-204 -50zM585 0l960 1650h88l-960 -1650h-88zM615 971q89 0 159.5 40.5t111 111.5t40.5 163q1 93 -39.5 163.5t-111.5 111t-160 40.5
q-90 0 -160.5 -40.5t-111 -111.5t-40.5 -163t40.5 -163t111 -111.5t160.5 -40.5zM1611 -32q-113 0 -204.5 50t-145.5 139t-54 205t54 205t145.5 139t204.5 50q115 0 206 -50t144.5 -139t53.5 -205t-53.5 -205t-145 -139t-205.5 -50zM1611 48q90 0 160.5 40t111 111t40.5 164
q0 92 -40.5 162.5t-111 111t-160.5 40.5q-89 0 -159.5 -40.5t-111.5 -111t-41 -162.5q0 -93 41 -164t111.5 -111t159.5 -40z" />
    <glyph glyph-name="ampersand" unicode="&#x26;" horiz-adv-x="1788" 
d="M692 -32q-128 0 -236.5 51.5t-173.5 151t-65 241.5q0 169 99.5 299t293.5 223q-87 84 -138 149.5t-73.5 124.5t-22.5 121q0 103 49.5 182.5t134 124t190.5 44.5q81 0 149 -26.5t117 -75t76 -114.5t27 -144q0 -138 -89 -229.5t-262 -174.5l486 -529q20 22 49 60t58.5 80
t52.5 76t31 48l70 -51q-35 -64 -89 -144t-105 -141l286 -315h-134l-225 250q-123 -137 -264.5 -209.5t-291.5 -72.5zM699 68q126 0 248 65.5t233 190.5l-508 547q-169 -80 -256.5 -195t-87.5 -256q0 -113 51.5 -192t136 -119.5t183.5 -40.5zM705 980q101 49 172.5 96.5
t109 106t37.5 140.5q0 83 -36.5 144t-98 94t-137.5 33q-78 0 -139.5 -34t-97 -94t-35.5 -137q0 -52 19.5 -100.5t68.5 -107t137 -141.5z" />
    <glyph glyph-name="quotesingle" unicode="'" horiz-adv-x="635" 
d="M279 1298l-20 357h118l-21 -357h-77z" />
    <glyph glyph-name="parenleft" unicode="(" horiz-adv-x="755" 
d="M553 -520q-62 78 -127.5 192t-121 259t-90 317t-34.5 366t34.5 366.5t90 318t121 259.5t127.5 192l70 -30q-78 -117 -155 -282.5t-128 -373t-51 -450.5q0 -245 51.5 -453.5t129 -373t153.5 -277.5z" />
    <glyph glyph-name="parenright" unicode=")" horiz-adv-x="755" 
d="M202 -520l-70 30q108 160 182 341t112.5 374t38.5 389q0 188 -36 378.5t-109.5 374.5t-187.5 353l70 30q180 -232 275.5 -525.5t95.5 -609.5q0 -304 -92 -598t-279 -537z" />
    <glyph glyph-name="asterisk" unicode="*" horiz-adv-x="901" 
d="M349 1333l-39 28l99 140l-163 53l16 47l163 -52v171h51v-171l163 52l15 -47l-163 -53l99 -140l-39 -28l-102 137z" />
    <glyph glyph-name="plus" unicode="+" horiz-adv-x="1454" 
d="M681 316v467h-466v91h466v467h92v-467h466v-91h-466v-467h-92z" />
    <glyph glyph-name="comma" unicode="," horiz-adv-x="718" 
d="M318 -218l-25 22q15 21 27 47t19.5 56.5t8.5 63.5q-29 4 -48.5 25.5t-19.5 50.5q0 34 22 56t57 22q38 0 62 -25t24 -73q0 -64 -38 -134.5t-89 -110.5z" />
    <glyph glyph-name="hyphen" unicode="-" horiz-adv-x="1092" 
d="M224 534v91h644v-91h-644z" />
    <glyph glyph-name="period" unicode="." horiz-adv-x="750" 
d="M375 -32q-21 0 -39 10.5t-28.5 28.5t-10.5 40q0 21 10.5 38.5t28.5 28.5t39 11q22 0 39.5 -11t28 -28.5t10.5 -38.5q0 -22 -10.5 -40t-28 -28.5t-39.5 -10.5z" />
    <glyph glyph-name="slash" unicode="/" horiz-adv-x="1048" 
d="M70 -240l824 1960h84l-824 -1960h-84z" />
    <glyph glyph-name="zero" unicode="0" horiz-adv-x="1714" 
d="M857 -32q-201 0 -352 107t-235 300t-84 449q0 257 84 449.5t235 299.5t352 107q202 0 353 -107t235 -299.5t84 -449.5q0 -256 -84 -449t-235 -300t-353 -107zM857 68q167 0 292 94t194.5 264.5t69.5 397.5q0 228 -69.5 398t-194.5 264t-292 94q-166 0 -291 -94
t-194.5 -264t-69.5 -398q0 -227 69.5 -397.5t194.5 -264.5t291 -94z" />
    <glyph glyph-name="one" unicode="1" horiz-adv-x="668" 
d="M290 0v1542h-134v108h243v-1650h-109z" />
    <glyph glyph-name="two" unicode="2" horiz-adv-x="1453" 
d="M141 0v47q239 189 410 332.5t285 253.5t180.5 197t94.5 161.5t28 148.5q0 121 -58 219t-155 156t-216 58q-118 0 -215.5 -58t-157.5 -157.5t-66 -224.5l-104 25q6 110 50 205t118 166t171 111t208 40q151 0 274 -71t196.5 -193t73.5 -277q0 -80 -24.5 -157t-83.5 -162.5
t-159 -187.5t-250.5 -230.5t-360.5 -294.5h908v-107h-1147z" />
    <glyph glyph-name="three" unicode="3" horiz-adv-x="1336" 
d="M650 -32q-145 0 -258 54.5t-179.5 151.5t-73.5 225l106 28q1 -105 53.5 -185t143.5 -124.5t208 -44.5q172 0 274.5 95t102.5 247q0 108 -50.5 195.5t-134 139.5t-185.5 52q-35 0 -61 -7v89h51q104 0 187.5 49t132 131t48.5 178q0 97 -46.5 174t-124 122t-171.5 45
t-172 -45.5t-125.5 -123t-49.5 -172.5l-96 24q6 120 67 213.5t160 147t217 53.5q126 0 227.5 -58.5t161 -157t59.5 -219.5q0 -90 -35 -171t-97.5 -140.5t-145.5 -88.5q83 -23 150.5 -81.5t107.5 -146t40 -197.5q0 -129 -58.5 -231.5t-168.5 -161.5t-265 -59z" />
    <glyph glyph-name="four" unicode="4" horiz-adv-x="1335" 
d="M902 0v321h-829v60l826 1269h108v-1232h192v-97h-192v-321h-105zM211 418h691v1076z" />
    <glyph glyph-name="five" unicode="5" horiz-adv-x="1473" 
d="M721 -32q-134 0 -250 43.5t-201 124t-127 190.5l88 44q54 -144 186.5 -226.5t307.5 -82.5q142 0 248.5 55t166 156.5t59.5 241.5q0 151 -68 261.5t-184 170.5t-261 60q-133 0 -250 -55.5t-214 -161.5l134 861h842v-97h-753l-93 -599q181 138 417 122q157 -6 277.5 -77.5
t189 -195.5t68.5 -288q0 -183 -81 -304.5t-213.5 -182t-288.5 -60.5z" />
    <glyph glyph-name="six" unicode="6" horiz-adv-x="1465" 
d="M732 -32q-134 0 -240.5 46t-180.5 124t-112.5 177t-38.5 204q0 116 45.5 234.5t117.5 204.5l580 692h134l-516 -616q58 31 118 47.5t125 16.5q110 0 208 -41.5t173 -118t118 -180t43 -228.5q0 -164 -74 -291t-203.5 -199t-296.5 -72zM730 63q135 0 241.5 60.5
t167.5 165.5t61 239q0 137 -61.5 243.5t-165.5 168t-231 61.5q-130 0 -237.5 -64t-172 -172.5t-64.5 -243.5q0 -123 57 -227.5t160.5 -167.5t244.5 -63z" />
    <glyph glyph-name="seven" unicode="7" horiz-adv-x="1251" 
d="M133 0l841 1553h-833v97h993v-40l-872 -1610h-129z" />
    <glyph glyph-name="eight" unicode="8" horiz-adv-x="1367" 
d="M683 -32q-146 0 -260.5 61.5t-180 168t-65.5 238.5q0 151 85.5 269t229.5 170q-117 51 -185 154.5t-68 230.5q0 119 58 214t158.5 150.5t227.5 55.5q93 0 173.5 -31.5t141.5 -88t95.5 -133t34.5 -166.5q0 -128 -68.5 -231.5t-184.5 -154.5q144 -53 229.5 -171t85.5 -268
q0 -132 -65.5 -238t-179.5 -168t-262 -62zM683 66q115 0 203 49.5t137.5 134.5t49.5 192q0 110 -51 195t-139 134.5t-200 49.5q-109 0 -197.5 -49t-140 -134t-51.5 -195q0 -108 50 -193t138 -134.5t201 -49.5zM683 920q98 0 174.5 43.5t120.5 119.5t44 172t-44.5 172.5
t-120.5 120.5t-174 44q-96 0 -172.5 -44t-121 -120.5t-44.5 -172.5t44 -172t120.5 -119.5t173.5 -43.5z" />
    <glyph glyph-name="nine" unicode="9" horiz-adv-x="1465" 
d="M428 0l529 630q-105 -78 -241 -78q-116 0 -217.5 42.5t-178 120t-119.5 181t-43 225.5q0 160 73.5 286.5t203 199.5t296.5 73q168 0 297.5 -73t203 -200t73.5 -289q0 -60 -11 -117t-32 -110t-51 -102.5t-69 -96.5l-580 -692h-134zM734 653q94 0 177 37t146 102t99 149.5
t36 180.5q0 133 -59 236.5t-162.5 163t-236.5 59.5t-238.5 -60t-166 -163.5t-60.5 -235.5t61 -238.5t166.5 -168.5t237.5 -62z" />
    <glyph glyph-name="colon" unicode=":" horiz-adv-x="719" 
d="M358 960q-21 0 -38.5 10.5t-28.5 28.5t-11 39q0 22 11 39.5t28.5 28.5t38.5 11q22 0 39.5 -11t28.5 -28.5t11 -39.5q0 -21 -11 -39t-28.5 -28.5t-39.5 -10.5zM358 -32q-21 0 -38.5 10.5t-28.5 28.5t-11 39q0 22 11 40t28.5 28.5t38.5 10.5q22 0 39.5 -10.5t28.5 -28.5
t11 -40q0 -21 -11 -39t-28.5 -28.5t-39.5 -10.5z" />
    <glyph glyph-name="semicolon" unicode=";" horiz-adv-x="714" 
d="M358 960q-21 0 -38.5 10.5t-28.5 28.5t-11 39q0 22 11 39.5t28.5 28.5t38.5 11q22 0 39.5 -11t28.5 -28.5t11 -39.5q0 -21 -11 -39t-28.5 -28.5t-39.5 -10.5zM318 -218l-25 22q15 21 27 47t19.5 56.5t8.5 63.5q-29 4 -48.5 25.5t-19.5 50.5q0 34 22 56t57 22q38 0 62 -25
t24 -73q0 -64 -38 -134.5t-89 -110.5z" />
    <glyph glyph-name="less" unicode="&#x3c;" horiz-adv-x="1527" 
d="M1299 270l-1093 527v70l1093 527v-92l-980 -470l980 -470v-92z" />
    <glyph glyph-name="equal" unicode="=" horiz-adv-x="1696" 
d="M336 976v92h1024v-92h-1024zM336 591v91h1024v-91h-1024z" />
    <glyph glyph-name="greater" unicode="&#x3e;" horiz-adv-x="1527" 
d="M227 270v92l981 470l-981 470v92l1094 -527v-70z" />
    <glyph glyph-name="question" unicode="?" horiz-adv-x="1363" 
d="M626 -32q-21 0 -39 10.5t-28.5 28.5t-10.5 39q0 22 10.5 40t28.5 28.5t39 10.5q22 0 39.5 -10.5t28.5 -28.5t11 -40q0 -21 -11 -39t-28.5 -28.5t-39.5 -10.5zM579 398v391q18 -3 32.5 -4.5t33.5 -1.5q121 0 216 47.5t149.5 138.5t54.5 219q0 124 -50.5 212t-140.5 134.5
t-207 46.5q-178 0 -285.5 -106.5t-110.5 -287.5l-96 10q5 157 72 264.5t176 163t240 55.5q148 0 261.5 -65t178.5 -177t65 -252q0 -134 -61 -245t-171.5 -178t-259.5 -71v-294h-97z" />
    <glyph glyph-name="at" unicode="@" horiz-adv-x="2147" 
d="M1078 -358q-183 0 -337 65.5t-267 181.5t-175.5 270.5t-62.5 332.5q0 184 65.5 340.5t181.5 273.5t270 182.5t333 65.5q156 0 304 -52t266.5 -155.5t188.5 -258t70 -358.5q0 -79 -14 -156t-44.5 -140t-78 -100.5t-113.5 -37.5q-72 0 -126.5 40.5t-77.5 94.5
q-57 -122 -168.5 -194.5t-255.5 -72.5q-138 0 -248.5 66.5t-175 183t-64.5 267.5q0 152 64.5 268.5t175.5 183.5t249 67q141 0 252 -70.5t169 -190.5v231h83v-618q0 -58 17 -98t47 -60.5t66 -20.5q51 0 87.5 42.5t56.5 119.5t20 180q0 190 -63 331t-169 234.5t-237.5 139.5
t-270.5 46q-161 0 -299 -58t-242 -162t-162 -244.5t-58 -304.5q0 -157 54 -295t153 -243t235.5 -165t301.5 -60q193 0 335.5 79t225.5 190l82 -48q-66 -93 -162.5 -163.5t-218 -110t-263.5 -39.5zM1050 43q120 0 213.5 56.5t147 155.5t53.5 227q0 129 -53.5 228.5
t-147 155.5t-213.5 56q-118 0 -212 -56.5t-147.5 -155.5t-53.5 -229q0 -128 53.5 -226.5t147 -155t212.5 -56.5z" />
    <glyph glyph-name="A" unicode="A" horiz-adv-x="1655" 
d="M130 0l646 1650h102l646 -1650h-118l-216 563h-725l-217 -563h-118zM502 660h651l-326 848z" />
    <glyph glyph-name="B" unicode="B" horiz-adv-x="1290" 
d="M214 0v1650h318q241 0 374.5 -108t133.5 -309q0 -277 -244 -375q187 -25 288.5 -134.5t101.5 -286.5q0 -137 -61.5 -235t-176 -150t-275.5 -52h-459zM323 890h194q202 0 310.5 87t108.5 247q0 163 -109 250t-310 87h-194v-671zM323 92h328q203 0 314.5 90.5t111.5 256.5
q0 167 -112.5 260t-313.5 93h-328v-700z" />
    <glyph glyph-name="C" unicode="C" horiz-adv-x="1628" 
d="M994 -32q-185 0 -342.5 65t-274.5 181.5t-181.5 272t-64.5 337.5t64.5 337.5t181.5 272t274.5 181.5t342.5 65q156 0 291.5 -46t241.5 -128l-55 -90q-93 76 -214 116t-257 40q-165 0 -302.5 -57.5t-238 -159.5t-155 -238t-54.5 -293t54.5 -293t155 -238t238 -159.5
t302.5 -57.5q136 0 257 40t214 116l55 -90q-105 -81 -240.5 -127.5t-292.5 -46.5z" />
    <glyph glyph-name="D" unicode="D" horiz-adv-x="1645" 
d="M280 0v1650h351q176 0 327.5 -63t264.5 -175.5t176.5 -262.5t63.5 -324q0 -175 -63 -325t-176.5 -262.5t-265 -175t-327.5 -62.5h-351zM389 98h235q153 0 285 55.5t231 154.5t154.5 231t55.5 286t-55 286t-154.5 231t-231.5 154.5t-285 55.5h-235v-1454z" />
    <glyph glyph-name="E" unicode="E" horiz-adv-x="1266" 
d="M280 0v1650h810v-97h-701v-678h677v-96h-677v-682h701v-97h-810z" />
    <glyph glyph-name="F" unicode="F" horiz-adv-x="1242" 
d="M280 0v1650h812v-97h-759l56 39v-807l-56 90h713v-96h-713l56 90v-869h-109z" />
    <glyph glyph-name="G" unicode="G" horiz-adv-x="1922" 
d="M999 -32q-172 0 -320 66t-259 183.5t-173 272.5t-62 333q0 164 54.5 317.5t160 275t258.5 193t349 71.5q133 0 248 -34t209.5 -94t163.5 -139l-61 -82q-96 113 -242.5 182.5t-320.5 69.5q-166 0 -296 -62t-221 -169t-138 -242t-47 -283q0 -159 53 -297.5t148 -242
t222 -162t273 -58.5q120 0 234.5 40t207 115t147 181t54.5 238v66h-652v92h764v-122q0 -182 -66.5 -315t-177 -220.5t-244 -130.5t-266.5 -43z" />
    <glyph glyph-name="H" unicode="H" horiz-adv-x="1749" 
d="M280 0v1650h109v-775h971v775h110v-1650h-110v779h-971v-779h-109z" />
    <glyph glyph-name="I" unicode="I" horiz-adv-x="668" 
d="M280 0v1650h109v-1650h-109z" />
    <glyph glyph-name="J" unicode="J" horiz-adv-x="1295" 
d="M540 -32q-218 0 -375 153l49 91q135 -141 321 -141q185 0 286.5 112.5t101.5 316.5v1150h110v-1186q0 -234 -130.5 -365t-362.5 -131z" />
    <glyph glyph-name="K" unicode="K" horiz-adv-x="1472" 
d="M280 0v1650h109v-773l774 773h141l-824 -823l904 -827h-156l-839 762v-762h-109z" />
    <glyph glyph-name="L" unicode="L" horiz-adv-x="1233" 
d="M280 0v1650h109v-1553h715v-97h-824z" />
    <glyph glyph-name="M" unicode="M" horiz-adv-x="2063" 
d="M181 0l226 1650h117l508 -1356l507 1356h117l226 -1650h-109l-203 1441l-495 -1325h-87l-495 1325l-203 -1441h-109z" />
    <glyph glyph-name="N" unicode="N" horiz-adv-x="1707" 
d="M280 0v1650h109l930 -1461v1461h109v-1650h-109l-930 1459v-1459h-109z" />
    <glyph glyph-name="O" unicode="O" horiz-adv-x="2031" 
d="M1015 -32q-173 0 -324 66t-265 183.5t-178.5 273t-64.5 333.5q0 179 64.5 334t178.5 272.5t265 183.5t324 66t324 -66t265 -183.5t178.5 -272.5t64.5 -334q0 -178 -64.5 -333.5t-178.5 -273t-265 -183.5t-324 -66zM1015 73q150 0 280 58t227.5 161t152.5 239t55 293
t-55 293t-152.5 239t-227.5 161t-280 58q-149 0 -279 -58t-227.5 -161t-152.5 -239t-55 -293t55 -293t152.5 -239t227.5 -161t279 -58z" />
    <glyph glyph-name="P" unicode="P" horiz-adv-x="1357" 
d="M280 0v1650h395q162 0 278 -55.5t178.5 -158.5t62.5 -244q0 -140 -62.5 -247.5t-178.5 -168.5t-278 -61h-286v-715h-109zM389 810h266q133 0 229.5 48t148.5 133.5t52 198.5q0 114 -52 197t-148.5 128t-229.5 45h-266v-750z" />
    <glyph glyph-name="Q" unicode="Q" horiz-adv-x="1998" 
d="M1803 -54q-81 33 -165.5 77t-170.5 101q-212 -156 -489 -156q-177 0 -328.5 64.5t-263.5 179.5t-175 270t-63 337q0 180 64 336t178 274t265.5 184.5t325.5 66.5t325 -66t264.5 -183t177.5 -272.5t64 -335.5q0 -183 -70.5 -347.5t-198.5 -281.5q82 -48 159.5 -86
t149.5 -63zM977 73q109 0 209 31t185 91q-86 62 -165 132t-149 146l50 56q153 -154 336 -276q120 104 185 252.5t65 316.5q0 159 -54.5 295.5t-151.5 239t-226.5 160.5t-279.5 58q-151 0 -281 -58t-227.5 -161t-152.5 -240.5t-55 -296.5q0 -160 53.5 -296t150 -237t226 -157
t282.5 -56z" />
    <glyph glyph-name="R" unicode="R" horiz-adv-x="1370" 
d="M280 0v1650h395q160 0 276 -55.5t179.5 -158t63.5 -244.5q0 -135 -57 -237t-160.5 -163t-245.5 -71l551 -721h-139l-539 713h-215v-713h-109zM389 810h266q131 0 227.5 47t149.5 132t53 201q0 172 -115 271t-315 99h-266v-750z" />
    <glyph glyph-name="S" unicode="S" horiz-adv-x="1368" 
d="M687 -32q-131 0 -227.5 41.5t-162 100t-102.5 113t-50 80.5l69 72q14 -27 48 -77t91 -102.5t140 -89.5t196 -37q107 0 197 39.5t145 117.5t55 193q0 96 -37.5 162t-101.5 111.5t-144 79t-166 64.5q-58 21 -124.5 51t-126 76.5t-97.5 115.5t-38 168q0 89 33 167.5t92 138
t141 93.5t180 34q102 0 183.5 -34.5t139.5 -87t88 -106.5l-64 -68q-25 48 -73.5 93t-118 74t-155.5 29q-110 0 -186.5 -49t-116.5 -125.5t-40 -159.5q0 -78 32 -131.5t83.5 -90t112.5 -61.5t120 -45q92 -33 180 -72t159.5 -93.5t113.5 -134.5t42 -195q0 -145 -68.5 -247
t-184 -155t-257.5 -53z" />
    <glyph glyph-name="T" unicode="T" horiz-adv-x="1419" 
d="M655 0v1548h-525v102h1160v-102h-526v-1548h-109z" />
    <glyph glyph-name="U" unicode="U" horiz-adv-x="1628" 
d="M815 -32q-279 0 -418.5 156.5t-139.5 467.5v1058h109v-1039q0 -266 113 -400.5t336 -134.5q222 0 335 134.5t113 400.5v1039h109v-1058q0 -311 -139 -467.5t-418 -156.5z" />
    <glyph glyph-name="V" unicode="V" horiz-adv-x="1728" 
d="M821 0l-692 1650h124l611 -1486l611 1486h124l-692 -1650h-86z" />
    <glyph glyph-name="W" unicode="W" horiz-adv-x="2517" 
d="M633 0l-493 1650h121l437 -1514l517 1514h87l517 -1514l437 1514h121l-494 -1650h-124l-500 1433l-501 -1433h-125z" />
    <glyph glyph-name="X" unicode="X" horiz-adv-x="1647" 
d="M123 0l632 891l-535 759h133l471 -665l470 665h133l-535 -759l632 -891h-137l-563 795l-564 -795h-137z" />
    <glyph glyph-name="Y" unicode="Y" horiz-adv-x="1471" 
d="M681 0v710l-560 940h132l482 -820l483 820h132l-560 -940v-710h-109z" />
    <glyph glyph-name="Z" unicode="Z" horiz-adv-x="1596" 
d="M129 0l1128 1548h-1015v102h1218l-1128 -1548h1072v-102h-1275z" />
    <glyph glyph-name="bracketleft" unicode="[" horiz-adv-x="772" 
d="M269 -520v2240h377v-86h-279v-2068h279v-86h-377z" />
    <glyph glyph-name="backslash" unicode="\" horiz-adv-x="1048" 
d="M894 0l-824 1720h84l824 -1720h-84z" />
    <glyph glyph-name="bracketright" unicode="]" horiz-adv-x="772" 
d="M125 -520v86h280v2068h-280v86h378v-2240h-378z" />
    <glyph glyph-name="asciicircum" unicode="^" horiz-adv-x="1285" 
d="M201 1210l414 470h54l414 -470h-93l-348 400l-347 -400h-94z" />
    <glyph glyph-name="underscore" unicode="_" horiz-adv-x="1474" 
d="M224 -200v61h1026v-61h-1026z" />
    <glyph glyph-name="grave" unicode="`" horiz-adv-x="321" 
d="M199 1170l-199 343l92 64l168 -365z" />
    <glyph glyph-name="a" unicode="a" 
d="M663 -32q-145 0 -260.5 70.5t-183 193.5t-67.5 280q0 158 67 280.5t182.5 193t261.5 70.5t264 -71t176 -196v235h106v-1024h-106v237q-65 -126 -180.5 -197.5t-259.5 -71.5zM685 62q124 0 219.5 57.5t150 159.5t54.5 233q0 132 -54.5 233.5t-150 159t-219.5 57.5
t-219.5 -57.5t-150.5 -159t-55 -233.5q0 -131 55 -232.5t150.5 -159.5t219.5 -58z" />
    <glyph glyph-name="b" unicode="b" 
d="M770 -32q-143 0 -259.5 71.5t-180.5 197.5v-237h-106v1720h106v-931q63 125 179 196t260 71q146 0 262 -70.5t183 -193t67 -280.5q0 -157 -67.5 -280t-183 -193.5t-260.5 -70.5zM749 62q123 0 219 58t150.5 159.5t54.5 232.5t-54.5 233t-150 159.5t-219.5 57.5
t-220 -57.5t-150.5 -159.5t-54.5 -233t54.5 -233t150.5 -159.5t220 -57.5z" />
    <glyph glyph-name="c" unicode="c" horiz-adv-x="1162" 
d="M699 -32q-115 0 -215.5 40.5t-175.5 113.5t-117.5 172.5t-42.5 217.5t42 217t117 172.5t175 114t217 40.5q101 0 192 -31t159 -85l-48 -72q-122 96 -294 96q-133 0 -235.5 -59t-160.5 -161.5t-58 -231.5t58 -231.5t161 -161.5t237 -59q83 0 157.5 24.5t132.5 71.5l50 -72
q-69 -54 -159 -85t-192 -31z" />
    <glyph glyph-name="d" unicode="d" 
d="M663 -32q-145 0 -260.5 70.5t-183 193.5t-67.5 280q0 158 67 280.5t183 193t262 70.5q144 0 260 -71t179 -196v933h106v-1722h-106v237q-64 -126 -180.5 -197.5t-259.5 -71.5zM684 62q124 0 220 57.5t150.5 159.5t54.5 233t-54.5 233t-150.5 159.5t-220 57.5
q-123 0 -218.5 -57.5t-150.5 -159.5t-55 -233t54.5 -232.5t150.5 -159.5t219 -58z" />
    <glyph glyph-name="e" unicode="e" horiz-adv-x="1345" 
d="M701 -32q-161 0 -286 71.5t-196 193t-71 273.5q0 116 41.5 216t115 175t170 117t205.5 42q145 0 262.5 -66.5t189 -183.5t78.5 -267v-17.5t-1 -17.5h-957q0 -129 58 -230t160.5 -158.5t233.5 -57.5q125 0 225.5 53t162.5 150l80 -45q-73 -118 -196.5 -183t-274.5 -65z
M257 588h847q-13 109 -72 194t-150 134.5t-200 49.5q-111 0 -202.5 -49t-150.5 -134.5t-72 -194.5z" />
    <glyph glyph-name="f" unicode="f" horiz-adv-x="700" 
d="M239 0v944h-95v80h95v395q0 108 29.5 181.5t87.5 111.5t144 38q52 0 96 -13.5t77 -40.5l-37 -76q-46 37 -119 37q-57 0 -95.5 -27.5t-57.5 -79.5t-19 -124v-402h266v-80h-266v-944h-106z" />
    <glyph glyph-name="g" unicode="g" horiz-adv-x="1434" 
d="M665 -550q-191 0 -323 76.5t-198 221.5l92 40q49 -113 164.5 -181t265.5 -68q124 0 223.5 49.5t157 143.5t57.5 228v277q-64 -126 -180.5 -197.5t-259.5 -71.5q-145 0 -260.5 70.5t-183 193.5t-67.5 280q0 158 67 280.5t183 193t262 70.5q144 0 260 -71t179 -196v235h106
v-1052q0 -174 -68 -290t-190.5 -174t-286.5 -58zM685 62q124 0 220 57.5t150.5 159.5t54.5 233t-54.5 233t-150.5 159.5t-220 57.5q-123 0 -219 -57.5t-150.5 -159.5t-54.5 -233t54.5 -232.5t150.5 -159.5t219 -58z" />
    <glyph glyph-name="h" unicode="h" horiz-adv-x="1260" 
d="M224 0v1722h106v-844q38 73 125.5 125.5t219.5 52.5q119 0 204 -48.5t130 -142t45 -228.5v-637h-106v618q0 170 -78.5 260t-221.5 90q-100 0 -171 -40.5t-109 -105.5t-38 -139v-683h-106z" />
    <glyph glyph-name="i" unicode="i" horiz-adv-x="554" 
d="M223 0v1024h106v-1024h-106zM276 1227q-20 0 -37 10t-27 27t-10 37q0 21 10 37.5t27 26.5t37 10q21 0 37.5 -10t26.5 -26.5t10 -36.5q0 -21 -10 -38t-26.5 -27t-37.5 -10z" />
    <glyph glyph-name="j" unicode="j" horiz-adv-x="555" 
d="M73 -550q-50 0 -94.5 12.5t-74.5 36.5l31 84q46 -40 121 -40q169 0 169 222v1259h106v-1262q0 -153 -65.5 -232.5t-192.5 -79.5zM278 1229q-20 0 -37 10t-27.5 27t-10.5 37q0 21 10.5 38t27.5 27t37 10t37 -10t27.5 -27.5t10.5 -37.5t-10.5 -37t-27.5 -27t-37 -10z" />
    <glyph glyph-name="k" unicode="k" horiz-adv-x="1054" 
d="M224 0v1720h106v-1126l417 430h138l-458 -477l483 -547h-136l-444 506v-506h-106z" />
    <glyph glyph-name="l" unicode="l" horiz-adv-x="554" 
d="M224 0v1720h106v-1720h-106z" />
    <glyph glyph-name="m" unicode="m" horiz-adv-x="1972" 
d="M224 0v1024h106v-146q56 86 144 132t197 46q129 0 222 -59t127 -162q55 99 147.5 160t223.5 61q109 0 193 -44.5t133 -129.5t49 -210v-672h-106v641q0 150 -79 238t-208 88q-91 0 -165 -40.5t-117 -102.5t-43 -127v-697h-106v658q0 142 -77.5 225.5t-205.5 83.5
q-89 0 -164 -38.5t-120 -97t-45 -119.5v-712h-106z" />
    <glyph glyph-name="n" unicode="n" horiz-adv-x="1260" 
d="M224 0v1024h106v-146q38 73 125.5 125.5t219.5 52.5q119 0 204 -48.5t130 -142t45 -228.5v-637h-106v618q0 170 -78.5 259.5t-221.5 89.5q-100 0 -171 -40t-109 -105t-38 -139v-683h-106z" />
    <glyph glyph-name="o" unicode="o" horiz-adv-x="1414" 
d="M707 -32q-158 0 -284.5 69t-200 191.5t-73.5 283.5t73.5 283.5t200 191.5t284.5 69t284.5 -69t200.5 -191.5t74 -283.5t-74 -283.5t-200.5 -191.5t-284.5 -69zM707 65q130 0 231.5 57.5t160 158.5t58.5 231t-58.5 231t-160 158.5t-231.5 57.5t-231.5 -57.5t-160 -158.5
t-58.5 -231t58.5 -231t160 -158.5t231.5 -57.5z" />
    <glyph glyph-name="p" unicode="p" 
d="M224 -520v1544h106v-233q62 124 178 194.5t259 70.5q148 0 264 -71t183 -193.5t67 -279.5q0 -156 -67 -279t-182.5 -194t-262.5 -71q-142 0 -258.5 71.5t-180.5 197.5v-757h-106zM749 62q123 0 219 58t150.5 159.5t54.5 232.5t-54.5 233t-150 159.5t-219.5 57.5
t-220 -57.5t-150.5 -159t-54.5 -233.5q0 -131 54.5 -233t151 -159.5t219.5 -57.5z" />
    <glyph glyph-name="q" unicode="q" 
d="M1103 -520v757q-65 -126 -180.5 -197.5t-257.5 -71.5q-148 0 -263.5 71t-182.5 194t-67 279q0 157 67 279.5t183 193.5t264 71q143 0 258.5 -71t178.5 -196v235h106v-1544h-106zM684 62q124 0 220 57.5t150.5 159.5t54.5 233q0 132 -54.5 233.5t-150.5 159t-219 57.5
q-124 0 -219.5 -57.5t-150.5 -159t-55 -233.5q0 -131 54.5 -232.5t150.5 -159.5t219 -58z" />
    <glyph glyph-name="r" unicode="r" horiz-adv-x="866" 
d="M224 0v1024h106v-153q46 92 122 138.5t180 46.5q44 0 87.5 -8.5t75.5 -22.5l-43 -90q-29 14 -65.5 21t-71.5 7q-72 0 -137.5 -37.5t-106.5 -97t-41 -126.5v-702h-106z" />
    <glyph glyph-name="s" unicode="s" horiz-adv-x="983" 
d="M483 -32q-126 0 -221.5 66.5t-145.5 188.5l64 53q44 -105 123.5 -164t178.5 -59q69 0 128 29.5t94 83.5t35 129q0 67 -31 104.5t-91 64.5t-145 60q-66 26 -128.5 58.5t-103 83t-40.5 128.5q0 75 39.5 134t109 93.5t156.5 34.5q88 0 161.5 -40.5t125.5 -114.5l-58 -57
q-82 130 -229 130q-91 0 -148 -49t-57 -127q0 -56 32.5 -91.5t86.5 -60.5t119 -50q93 -35 161.5 -69t106 -86.5t37.5 -142.5q0 -100 -46.5 -174.5t-128 -115t-185.5 -40.5z" />
    <glyph glyph-name="t" unicode="t" horiz-adv-x="717" 
d="M454 -32q-106 0 -163.5 72.5t-57.5 204.5v699h-97v80h97v382h106v-382h262v-80h-262v-694q0 -92 35 -140.5t100 -48.5q63 0 107 34l27 -85q-29 -19 -70 -30.5t-84 -11.5z" />
    <glyph glyph-name="u" unicode="u" horiz-adv-x="1232" 
d="M616 -32q-222 0 -316 103.5t-94 347.5v605h106v-590q0 -202 70 -288.5t234 -86.5t233.5 86.5t69.5 288.5v590h106v-605q0 -244 -93.5 -347.5t-315.5 -103.5z" />
    <glyph glyph-name="v" unicode="v" horiz-adv-x="1209" 
d="M570 0l-487 1024h124l398 -865l398 865h124l-488 -1024h-69z" />
    <glyph glyph-name="w" unicode="w" horiz-adv-x="1951" 
d="M570 0l-487 1024h121l399 -864l338 864h70l337 -864l399 864h121l-486 -1024h-70l-336 848l-337 -848h-69z" />
    <glyph glyph-name="x" unicode="x" horiz-adv-x="1164" 
d="M80 0l431 526l-374 498h121l324 -425l325 425h120l-374 -498l431 -526h-124l-378 463l-378 -463h-124z" />
    <glyph glyph-name="y" unicode="y" horiz-adv-x="1225" 
d="M338 -520l232 520l-488 1024h120l428 -911l390 911h120l-684 -1544h-118z" />
    <glyph glyph-name="z" unicode="z" horiz-adv-x="1201" 
d="M90 0l805 932h-729v92h933l-807 -932h787v-92h-989z" />
    <glyph glyph-name="braceleft" unicode="{" horiz-adv-x="770" 
d="M579 -520q-96 0 -158 32.5t-97 86t-49 117.5t-14 126v629q0 51 -19 72t-59 21v72q40 0 59 21.5t19 71.5v629q0 62 14 126t49 117.5t97 86t158 32.5h58v-89h-39q-122 0 -180.5 -73t-58.5 -205v-654q0 -39 -11 -63t-32 -36q21 -12 32 -36t11 -63v-654q0 -132 58.5 -205
t180.5 -73h39v-89h-58z" />
    <glyph glyph-name="bar" unicode="|" horiz-adv-x="769" 
d="M336 0v1720h97v-1720h-97z" />
    <glyph glyph-name="braceright" unicode="}" horiz-adv-x="770" 
d="M134 -520v89h38q123 0 181 73t58 205v654q0 39 11.5 63t32.5 36q-21 12 -32.5 36t-11.5 63v654q0 132 -58 205t-181 73h-38v89h57q96 0 158 -32.5t97 -86t49 -117.5t14 -126v-629q0 -50 19.5 -71.5t59.5 -21.5v-72q-40 0 -59.5 -21t-19.5 -72v-629q0 -62 -14 -126
t-49 -117.5t-97 -86t-158 -32.5h-57z" />
    <glyph glyph-name="asciitilde" unicode="~" horiz-adv-x="1527" 
d="M967 705q-67 0 -116.5 24.5t-93 56.5t-90 56.5t-106.5 24.5q-80 0 -137.5 -46t-92.5 -110l-62 56q28 51 71.5 93.5t98.5 69t120 26.5q67 0 116.5 -24.5t92.5 -57t89.5 -56.5t107.5 -24q71 0 130.5 40.5t99.5 114.5l63 -55q-33 -57 -78.5 -99.5t-100 -66t-112.5 -23.5z
" />
    <glyph glyph-name="uni00A0" unicode="&#xa0;" horiz-adv-x="508" 
 />
    <glyph glyph-name="exclamdown" unicode="&#xa1;" horiz-adv-x="724" 
d="M311 -522l8 1350h86l8 -1350h-102zM362 1073q-22 0 -39.5 11t-28.5 28.5t-11 39.5q0 21 11 39t28.5 28.5t39.5 10.5q21 0 39 -10.5t28.5 -28.5t10.5 -39q0 -22 -10.5 -39.5t-28.5 -28.5t-39 -11z" />
    <glyph glyph-name="cent" unicode="&#xa2;" horiz-adv-x="1388" 
d="M757 -258v229q-147 9 -262 82.5t-180.5 192.5t-65.5 266q0 138 58 252t162 189t241 94v225h73v-216q117 -1 205.5 -29.5t162.5 -88.5l-36 -73q-62 54 -140.5 82t-167.5 28q-132 0 -234.5 -59.5t-161 -164t-58.5 -239.5q0 -134 57.5 -238t160.5 -163.5t237 -59.5
q89 0 168.5 28t138.5 78l36 -73q-64 -51 -146 -81t-174 -34v-227h-74z" />
    <glyph glyph-name="sterling" unicode="&#xa3;" horiz-adv-x="1747" 
d="M1162 -30q-84 0 -153.5 26.5t-132.5 61t-126 60.5t-135 26q-54 0 -105 -18t-85.5 -50.5t-41.5 -75.5h-95q5 56 42.5 106t100 83t141.5 39q18 44 31 102t13 117q0 61 -15 104t-38 82h-330v71h291q-60 87 -109 190t-49 247q0 163 69.5 284t190.5 188t276 67q132 0 244 -49
t190.5 -143t108.5 -228l-93 -34q-17 88 -70.5 172t-146.5 138.5t-231 54.5q-134 0 -231.5 -56.5t-150.5 -157t-53 -235.5q0 -97 24.5 -173t61 -140t71.5 -125h521v-71h-491q23 -43 36.5 -85.5t13.5 -100.5q0 -48 -11 -105.5t-38 -117.5q66 -1 126.5 -26t120.5 -56.5
t122.5 -56t132.5 -24.5q86 0 145 38t91.5 97t40.5 124l89 -44q-14 -85 -62.5 -154.5t-125 -110.5t-175.5 -41z" />
    <glyph glyph-name="currency" unicode="&#xa4;" horiz-adv-x="1223" 
d="M180 177l-45 45l134 135q-52 59 -81.5 135t-29.5 162t29.5 162.5t81.5 135.5l-134 134l45 46l134 -135q60 53 136 82t161 29q87 0 163 -29t135 -82l134 135l45 -46l-134 -134q52 -59 81.5 -135.5t29.5 -162.5t-29.5 -162t-81.5 -136l134 -134l-45 -45l-134 134
q-59 -52 -135 -81.5t-163 -29.5q-85 0 -161 29.5t-136 82.5zM611 285q103 0 187 49.5t133.5 133t49.5 186.5q0 104 -49.5 187.5t-133.5 133t-187 49.5q-102 0 -186 -49.5t-134 -133t-50 -187.5q0 -103 50 -186.5t134 -133t186 -49.5z" />
    <glyph glyph-name="yen" unicode="&#xa5;" horiz-adv-x="1642" 
d="M766 0v337h-390v82h390v262h-390v83h358l-526 886h132l480 -820l483 820h132l-527 -886h357v-83h-388v-262h388v-82h-388v-337h-111z" />
    <glyph glyph-name="brokenbar" unicode="&#xa6;" horiz-adv-x="769" 
d="M336 1056v664h97v-664h-97zM336 0v664h97v-664h-97z" />
    <glyph glyph-name="section" unicode="&#xa7;" horiz-adv-x="1483" 
d="M753 -550q-108 0 -200 33t-162.5 86.5t-116.5 117.5t-64 125l96 31q32 -87 99 -154t157 -104.5t191 -37.5q105 0 188.5 42t132 119.5t48.5 181.5q0 110 -56 179t-154 118t-226 98q-66 26 -135 58.5t-127 76t-93.5 101.5t-34.5 136q1 92 54.5 170t138.5 111
q-91 60 -136.5 139.5t-45.5 182.5q0 121 56.5 216t155 149.5t225.5 54.5q78 0 144.5 -20.5t119.5 -57.5t90.5 -84.5t58.5 -100.5l-97 -30q-30 84 -117.5 140t-197.5 56q-93 0 -167 -43t-116 -115t-42 -161q0 -76 31 -129t83.5 -90.5t116.5 -65t128 -53.5q72 -28 153 -63
t153 -82.5t117 -111t44 -147.5q-1 -90 -55 -167.5t-143 -115.5q95 -66 142 -151.5t47 -194.5q0 -134 -64.5 -233.5t-174 -154.5t-245.5 -55zM966 284q46 16 83 49.5t59 79.5t22 98q0 63 -37.5 114.5t-126.5 100.5t-243 103q-43 15 -72 28t-80 37q-40 -12 -77 -45
t-59.5 -80.5t-22.5 -105.5q0 -69 35.5 -115t105.5 -82.5t174 -75.5q66 -24 101.5 -39t64.5 -29.5t73 -37.5z" />
    <glyph glyph-name="dieresis" unicode="&#xa8;" horiz-adv-x="614" 
d="M543 1327q-29 0 -50 21t-21 50t21 50t50 21t50 -21t21 -50t-21 -50t-50 -21zM71 1327q-29 0 -50 21t-21 50t21 50t50 21t50 -21t21 -50t-21 -50t-50 -21z" />
    <glyph glyph-name="copyright" unicode="&#xa9;" horiz-adv-x="2146" 
d="M1071 -32q-177 0 -328.5 65t-265.5 181t-177.5 271t-63.5 336q0 179 64.5 335t179 274t266 184t325.5 66q176 0 328.5 -66t267.5 -183.5t179.5 -273.5t64.5 -336t-64 -335t-178.5 -271t-267.5 -181.5t-330 -65.5zM1071 51q160 0 296.5 58.5t238.5 163.5t159.5 245
t57.5 303q0 162 -58 303t-160.5 247t-239 166t-294.5 60q-155 0 -290.5 -60t-238.5 -166.5t-160.5 -247.5t-57.5 -302q0 -164 56.5 -304t158 -244.5t238 -163t294.5 -58.5zM1091 308q-147 0 -265 68t-186.5 184.5t-68.5 262.5t68 262.5t186.5 184.5t267.5 68q93 0 179 -28
t151 -81l-43 -67q-117 90 -277 90q-122 0 -219 -56t-153 -153t-56 -220q0 -122 56 -219t153.5 -153t220.5 -56q78 0 149.5 23t125.5 66l43 -68q-150 -108 -332 -108z" />
    <glyph glyph-name="ordfeminine" unicode="&#xaa;" horiz-adv-x="1053" 
d="M489 1008q-90 0 -161.5 43t-113.5 119t-42 174q0 97 41.5 173t113.5 119.5t163 43.5q89 0 160.5 -44.5t108.5 -120.5v145h65v-632h-65v146q-37 -76 -108.5 -121t-161.5 -45zM500 1064q76 0 134.5 36.5t92 100t33.5 143.5q0 123 -73.5 201.5t-186.5 78.5q-75 0 -134 -36
t-93 -99t-34 -145q0 -81 34 -144t93 -99.5t134 -36.5z" />
    <glyph glyph-name="guillemotleft" unicode="&#xab;" horiz-adv-x="1068" 
d="M532 56l-390 500l390 500l70 -54l-348 -446l348 -446zM842 56l-390 500l390 500l70 -54l-348 -446l348 -446z" />
    <glyph glyph-name="logicalnot" unicode="&#xac;" horiz-adv-x="1454" 
d="M1148 316v467h-933v91h1024v-558h-91z" />
    <glyph glyph-name="uni00AD" unicode="&#xad;" horiz-adv-x="1092" 
d="M224 534v91h644v-91h-644z" />
    <glyph glyph-name="registered" unicode="&#xae;" horiz-adv-x="1417" 
d="M709 772q-127 0 -231.5 62.5t-166.5 166.5t-62 230t62 231t166.5 167.5t230.5 62.5q127 0 231 -62t166.5 -166.5t62.5 -232.5t-62.5 -232t-166.5 -165.5t-230 -61.5zM708 830q111 0 202 54t146 145.5t55 201.5q0 111 -54.5 202t-146.5 146t-202 55t-201 -55t-145.5 -146
t-54.5 -202t54.5 -202t145.5 -145t201 -54zM573 940v583h107q83 0 132.5 -42.5t49.5 -118.5q0 -70 -44 -115.5t-117 -50.5l199 -256h-65l-192 254h-20v-254h-50zM623 1235h45q63 0 102 34t39 93q0 58 -39.5 88.5t-101.5 30.5h-45v-246z" />
    <glyph glyph-name="macron" unicode="&#xaf;" horiz-adv-x="816" 
d="M0 1350v78h816v-78h-816z" />
    <glyph glyph-name="degree" unicode="&#xb0;" horiz-adv-x="1012" 
d="M505 1338q-93 0 -150 59t-57 146q0 92 60.5 149.5t146.5 57.5q88 0 148.5 -57t60.5 -149q0 -90 -59 -148t-150 -58zM506 1397q64 0 103.5 41t39.5 105q0 68 -42 108t-102 40q-61 0 -102 -41.5t-41 -107.5q0 -64 39.5 -104.5t104.5 -40.5z" />
    <glyph glyph-name="plusminus" unicode="&#xb1;" horiz-adv-x="1492" 
d="M701 333v458h-467v91h467v458h91v-458h466v-91h-466v-458h-91zM234 0v91h1024v-91h-1024z" />
    <glyph glyph-name="uni00B2" unicode="&#xb2;" horiz-adv-x="661" 
d="M90 1026v38q137 97 219 169.5t119 131.5t37 112q0 65 -42.5 106t-104.5 41q-66 0 -112.5 -47t-52.5 -117l-56 20q8 87 70.5 143.5t150.5 56.5q89 0 152 -57t63 -152q0 -55 -29 -108t-100.5 -119.5t-199.5 -161.5h341v-56h-455z" />
    <glyph glyph-name="uni00B3" unicode="&#xb3;" horiz-adv-x="633" 
d="M301 1026q-92 0 -145.5 47t-61.5 115l60 22q0 -55 39.5 -91t104.5 -36q66 0 100 35t34 85q0 59 -40.5 98t-94.5 39q-14 0 -24 -2v46h23q54 0 91.5 36.5t37.5 88.5q0 50 -35 84t-84 34q-50 0 -86.5 -34t-38.5 -85l-52 18q6 66 55.5 110t123.5 44q78 0 128.5 -48t50.5 -117
q0 -49 -27 -90.5t-72 -60.5q52 -16 81 -60.5t29 -100.5q0 -77 -52.5 -127t-144.5 -50z" />
    <glyph glyph-name="acute" unicode="&#xb4;" horiz-adv-x="321" 
d="M61 1170l-61 42l169 365l91 -64z" />
    <glyph glyph-name="uni00B5" unicode="&#xb5;" horiz-adv-x="1482" 
d="M311 -320q0 126 5 220.5t12 176.5t12.5 168.5t5.5 195.5v585h106v-617q0 -174 78.5 -263.5t231.5 -89.5q86 0 155.5 38.5t111 103.5t41.5 144v684h106v-1026h-106v146q-36 -78 -127 -128t-196 -50t-179.5 35.5t-116.5 106.5v-430h-140z" />
    <glyph glyph-name="paragraph" unicode="&#xb6;" horiz-adv-x="1482" 
d="M923 0v715h-194q-161 0 -275 63t-174.5 171t-60.5 243q0 136 60.5 239.5t174.5 161t275 57.5h418v-1650h-81v1575h-62v-1575h-81z" />
    <glyph glyph-name="periodcentered" unicode="&#xb7;" horiz-adv-x="750" 
d="M375 460q-21 0 -39 10.5t-28.5 28.5t-10.5 39q0 22 10.5 39.5t28.5 28t39 10.5q22 0 39.5 -10.5t28 -28t10.5 -39.5q0 -21 -10.5 -39t-28 -28.5t-39.5 -10.5z" />
    <glyph glyph-name="cedilla" unicode="&#xb8;" horiz-adv-x="488" 
d="M250 -534q-82 0 -147 37t-103 103l57 36q60 -107 193 -107q74 0 120 38t46 98q0 56 -39 91t-103 35q-35 0 -75.5 -11t-68.5 -28l-6 5l86 263h67l-58 -179q31 5 51 5.5t38 -2.5q79 -3 129.5 -53t50.5 -126q0 -90 -67 -147.5t-171 -57.5z" />
    <glyph glyph-name="uni00B9" unicode="&#xb9;" horiz-adv-x="406" 
d="M180 1026v563h-61v61h121v-624h-60z" />
    <glyph glyph-name="ordmasculine" unicode="&#xba;" horiz-adv-x="1015" 
d="M508 1007q-98 0 -176 43t-123 118.5t-45 175.5t45 175.5t123 118t176 42.5q96 0 173.5 -42.5t123.5 -118t46 -175.5q0 -99 -45.5 -175t-123.5 -119t-174 -43zM506 1065q81 0 144 36t99.5 99t36.5 144q0 80 -36.5 143t-99 99t-142.5 36q-81 0 -144 -36t-99 -99t-36 -143
q0 -82 36.5 -144.5t99 -98.5t141.5 -36z" />
    <glyph glyph-name="guillemotright" unicode="&#xbb;" horiz-adv-x="1064" 
d="M407 56l-70 54l348 446l-348 446l70 54l390 -500zM350 56l-69 54l347 446l-347 446l69 54l390 -500z" />
    <glyph glyph-name="onequarter" unicode="&#xbc;" horiz-adv-x="2132" 
d="M301 600v961h-58v89h145v-1050h-87zM258 0l1133 1650h96l-1132 -1650h-97zM1625 0v202h-589v43l585 805h91v-767h137v-81h-137v-202h-87zM1154 283h471v648z" />
    <glyph glyph-name="onehalf" unicode="&#xbd;" horiz-adv-x="2346" 
d="M301 600v961h-58v89h145v-1050h-87zM258 0l1133 1650h96l-1132 -1650h-97zM1190 0v42q213 145 352 250.5t219 182.5t113 137.5t33 117.5q0 73 -40.5 133t-109 95.5t-152.5 35.5q-83 0 -151.5 -35.5t-111.5 -97t-49 -139.5l-85 26q8 95 62.5 170t143 118.5t195.5 43.5
q111 0 201 -45.5t143.5 -124.5t53.5 -179q0 -64 -28.5 -126.5t-98 -135t-190.5 -165.5t-305 -218h644v-86h-839z" />
    <glyph glyph-name="threequarters" unicode="&#xbe;" horiz-adv-x="2615" 
d="M655 579q-144 0 -243 74.5t-109 200.5l87 30q2 -98 76.5 -159t188.5 -61q111 0 177.5 59t66.5 152q0 67 -33 120.5t-87.5 85t-118.5 31.5q-25 0 -43 -5v69h36q67 0 120.5 30t85 80t31.5 108q0 59 -30.5 106t-80.5 74.5t-111 27.5q-60 0 -111 -28t-82 -75t-33 -106l-78 24
q6 77 48 136.5t110 93t148 33.5q88 0 157.5 -38.5t109.5 -103t40 -141.5q0 -82 -48.5 -151t-129.5 -99q83 -25 139 -97t56 -174q0 -83 -40.5 -150.5t-116.5 -107t-182 -39.5zM741 0l1133 1650h96l-1132 -1650h-97zM2107 0v202h-589v43l585 805h91v-767h137v-81h-137v-202
h-87zM1636 283h471v648z" />
    <glyph glyph-name="questiondown" unicode="&#xbf;" horiz-adv-x="1362" 
d="M700 -550q-147 0 -261.5 65t-179 177t-64.5 252q0 134 60.5 245t171.5 178.5t260 70.5v294h97v-391q-18 3 -33 4.5t-34 1.5q-121 0 -216 -47.5t-149.5 -138t-54.5 -219.5q0 -124 51 -212t141 -134.5t206 -46.5q179 0 286.5 106.5t110.5 287.5l96 -10q-5 -157 -72 -264.5
t-176.5 -163t-239.5 -55.5zM736 1005q-21 0 -39 11t-28.5 28.5t-10.5 39.5q0 21 10.5 39t28.5 28.5t39 10.5q22 0 39.5 -10.5t28.5 -28.5t11 -39q0 -22 -11 -39.5t-28.5 -28.5t-39.5 -11z" />
    <glyph glyph-name="Agrave" unicode="&#xc0;" horiz-adv-x="1655" 
d="M130 0l646 1650h102l646 -1650h-118l-216 563h-725l-217 -563h-118zM502 660h651l-326 848zM892 1794l-199 343l92 64l168 -365z" />
    <glyph glyph-name="Aacute" unicode="&#xc1;" horiz-adv-x="1655" 
d="M130 0l646 1650h102l646 -1650h-118l-216 563h-725l-217 -563h-118zM502 660h651l-326 848zM825 1794l-61 42l169 365l91 -64z" />
    <glyph glyph-name="Acircumflex" unicode="&#xc2;" horiz-adv-x="1655" 
d="M130 0l646 1650h102l646 -1650h-118l-216 563h-725l-217 -563h-118zM502 660h651l-326 848zM521 1980l-47 65l353 259l354 -259l-48 -65l-306 224z" />
    <glyph glyph-name="Atilde" unicode="&#xc3;" horiz-adv-x="1655" 
d="M130 0l646 1650h102l646 -1650h-118l-216 563h-725l-217 -563h-118zM502 660h651l-326 848zM1027 1915q-66 0 -115 24t-91.5 56t-88.5 56t-106 24q-82 0 -138.5 -46.5t-89.5 -108.5l-61 55q45 78 118 132t169 54q68 0 119 -24t94 -56t89 -56t103 -24q70 0 129 41t97 113
l61 -54q-34 -59 -80 -101t-99.5 -63.5t-109.5 -21.5z" />
    <glyph glyph-name="Adieresis" unicode="&#xc4;" horiz-adv-x="1655" 
d="M130 0l646 1650h102l646 -1650h-118l-216 563h-725l-217 -563h-118zM502 660h651l-326 848zM1063 1951q-29 0 -50 21t-21 50t21 50t50 21t50 -21t21 -50t-21 -50t-50 -21zM591 1951q-29 0 -50 21t-21 50t21 50t50 21t50 -21t21 -50t-21 -50t-50 -21z" />
    <glyph glyph-name="Aring" unicode="&#xc5;" horiz-adv-x="1655" 
d="M130 0l646 1650h102l646 -1650h-118l-216 563h-725l-217 -563h-118zM502 660h651l-326 848zM827 1898q-59 0 -108 24t-78 67.5t-29 98.5v0q0 56 29 99t78 67.5t109 24.5t108.5 -24.5t77.5 -67.5t29 -99q0 -55 -29 -98.5t-78 -67.5t-109 -24zM827 1968q60 0 99.5 34
t39.5 86q0 53 -39.5 87t-99.5 34q-58 0 -98 -34t-40 -87v0q0 -52 40 -86t98 -34z" />
    <glyph glyph-name="AE" unicode="&#xc6;" horiz-adv-x="2347" 
d="M130 0l646 1650h806l38 -97h-700l260 -678h677l36 -96h-673l266 -682h694l36 -97h-810l-216 563h-725l-217 -563h-118zM502 660h651l-326 847z" />
    <glyph glyph-name="Ccedilla" unicode="&#xc7;" horiz-adv-x="1628" 
d="M994 -32q-185 0 -342.5 65t-274.5 181.5t-181.5 272t-64.5 337.5t64.5 337.5t181.5 272t274.5 181.5t342.5 65q156 0 291.5 -46t241.5 -128l-55 -90q-93 76 -214 116t-257 40q-165 0 -302.5 -57.5t-238 -159.5t-155 -238t-54.5 -293t54.5 -293t155 -238t238 -159.5
t302.5 -57.5q136 0 257 40t214 116l55 -90q-105 -81 -240.5 -127.5t-292.5 -46.5zM967 -592q-82 0 -147 37t-103 103l57 36q60 -107 193 -107q74 0 120 38t46 98q0 56 -39 91t-103 35q-35 0 -75.5 -11t-68.5 -28l-6 5l86 263h67l-58 -179q31 5 51 5.5t38 -2.5
q79 -3 129.5 -53t50.5 -126q0 -90 -67 -147.5t-171 -57.5z" />
    <glyph glyph-name="Egrave" unicode="&#xc8;" horiz-adv-x="1266" 
d="M280 0v1650h810v-97h-701v-678h677v-96h-677v-682h701v-97h-810zM766 1794l-199 343l92 64l168 -365z" />
    <glyph glyph-name="Eacute" unicode="&#xc9;" horiz-adv-x="1266" 
d="M280 0v1650h810v-97h-701v-678h677v-96h-677v-682h701v-97h-810zM699 1794l-61 42l169 365l91 -64z" />
    <glyph glyph-name="Ecircumflex" unicode="&#xca;" horiz-adv-x="1266" 
d="M280 0v1650h810v-97h-701v-678h677v-96h-677v-682h701v-97h-810zM395 1980l-47 65l353 259l354 -259l-48 -65l-306 224z" />
    <glyph glyph-name="Edieresis" unicode="&#xcb;" horiz-adv-x="1266" 
d="M280 0v1650h810v-97h-701v-678h677v-96h-677v-682h701v-97h-810zM937 1951q-29 0 -50 21t-21 50t21 50t50 21t50 -21t21 -50t-21 -50t-50 -21zM465 1951q-29 0 -50 21t-21 50t21 50t50 21t50 -21t21 -50t-21 -50t-50 -21z" />
    <glyph glyph-name="Igrave" unicode="&#xcc;" horiz-adv-x="668" 
d="M280 0v1650h109v-1650h-109zM399 1794l-199 343l92 64l168 -365z" />
    <glyph glyph-name="Iacute" unicode="&#xcd;" horiz-adv-x="668" 
d="M280 0v1650h109v-1650h-109zM332 1794l-61 42l169 365l91 -64z" />
    <glyph glyph-name="Icircumflex" unicode="&#xce;" horiz-adv-x="668" 
d="M280 0v1650h109v-1650h-109zM28 1980l-47 65l353 259l354 -259l-48 -65l-306 224z" />
    <glyph glyph-name="Idieresis" unicode="&#xcf;" horiz-adv-x="668" 
d="M280 0v1650h109v-1650h-109zM570 1951q-29 0 -50 21t-21 50t21 50t50 21t50 -21t21 -50t-21 -50t-50 -21zM98 1951q-29 0 -50 21t-21 50t21 50t50 21t50 -21t21 -50t-21 -50t-50 -21z" />
    <glyph glyph-name="Eth" unicode="&#xd0;" horiz-adv-x="1677" 
d="M311 0v780h-164v90h164v780h352q170 0 320 -60.5t265.5 -171.5t181 -261.5t65.5 -330.5q0 -181 -65.5 -332t-180.5 -262t-265.5 -171.5t-320.5 -60.5h-352zM421 98h235q149 0 280 53.5t231.5 152t157.5 231t57 291.5q0 157 -57 290t-158 231t-232 151.5t-279 53.5h-235
v-682h484v-90h-484v-682z" />
    <glyph glyph-name="Ntilde" unicode="&#xd1;" horiz-adv-x="1707" 
d="M280 0v1650h109l930 -1461v1461h109v-1650h-109l-930 1459v-1459h-109zM1054 1915q-66 0 -115 24t-91.5 56t-88.5 56t-106 24q-82 0 -138.5 -46.5t-89.5 -108.5l-61 55q45 78 118 132t169 54q68 0 119 -24t94 -56t89 -56t103 -24q70 0 129 41t97 113l61 -54
q-34 -59 -80 -101t-99.5 -63.5t-109.5 -21.5z" />
    <glyph glyph-name="Ograve" unicode="&#xd2;" horiz-adv-x="2031" 
d="M1015 -32q-173 0 -324 66t-265 183.5t-178.5 273t-64.5 333.5q0 179 64.5 334t178.5 272.5t265 183.5t324 66t324 -66t265 -183.5t178.5 -272.5t64.5 -334q0 -178 -64.5 -333.5t-178.5 -273t-265 -183.5t-324 -66zM1015 73q150 0 280 58t227.5 161t152.5 239t55 293
t-55 293t-152.5 239t-227.5 161t-280 58q-149 0 -279 -58t-227.5 -161t-152.5 -239t-55 -293t55 -293t152.5 -239t227.5 -161t279 -58zM1081 1799l-199 343l92 64l168 -365z" />
    <glyph glyph-name="Oacute" unicode="&#xd3;" horiz-adv-x="2031" 
d="M1015 -32q-173 0 -324 66t-265 183.5t-178.5 273t-64.5 333.5q0 179 64.5 334t178.5 272.5t265 183.5t324 66t324 -66t265 -183.5t178.5 -272.5t64.5 -334q0 -178 -64.5 -333.5t-178.5 -273t-265 -183.5t-324 -66zM1015 73q150 0 280 58t227.5 161t152.5 239t55 293
t-55 293t-152.5 239t-227.5 161t-280 58q-149 0 -279 -58t-227.5 -161t-152.5 -239t-55 -293t55 -293t152.5 -239t227.5 -161t279 -58zM1013 1799l-61 42l169 365l91 -64z" />
    <glyph glyph-name="Ocircumflex" unicode="&#xd4;" horiz-adv-x="2031" 
d="M1015 -32q-173 0 -324 66t-265 183.5t-178.5 273t-64.5 333.5q0 179 64.5 334t178.5 272.5t265 183.5t324 66t324 -66t265 -183.5t178.5 -272.5t64.5 -334q0 -178 -64.5 -333.5t-178.5 -273t-265 -183.5t-324 -66zM1015 73q150 0 280 58t227.5 161t152.5 239t55 293
t-55 293t-152.5 239t-227.5 161t-280 58q-149 0 -279 -58t-227.5 -161t-152.5 -239t-55 -293t55 -293t152.5 -239t227.5 -161t279 -58zM709 1985l-47 65l353 259l354 -259l-48 -65l-306 224z" />
    <glyph glyph-name="Otilde" unicode="&#xd5;" horiz-adv-x="2031" 
d="M1015 -32q-173 0 -324 66t-265 183.5t-178.5 273t-64.5 333.5q0 179 64.5 334t178.5 272.5t265 183.5t324 66t324 -66t265 -183.5t178.5 -272.5t64.5 -334q0 -178 -64.5 -333.5t-178.5 -273t-265 -183.5t-324 -66zM1015 73q150 0 280 58t227.5 161t152.5 239t55 293
t-55 293t-152.5 239t-227.5 161t-280 58q-149 0 -279 -58t-227.5 -161t-152.5 -239t-55 -293t55 -293t152.5 -239t227.5 -161t279 -58zM1216 1920q-66 0 -115 24t-91.5 56t-88.5 56t-106 24q-82 0 -138.5 -46.5t-89.5 -108.5l-61 55q45 78 118 132t169 54q68 0 119 -24
t94 -56t89 -56t103 -24q70 0 129 41t97 113l61 -54q-34 -59 -80 -101t-99.5 -63.5t-109.5 -21.5z" />
    <glyph glyph-name="Odieresis" unicode="&#xd6;" horiz-adv-x="2031" 
d="M1015 -32q-173 0 -324 66t-265 183.5t-178.5 273t-64.5 333.5q0 179 64.5 334t178.5 272.5t265 183.5t324 66t324 -66t265 -183.5t178.5 -272.5t64.5 -334q0 -178 -64.5 -333.5t-178.5 -273t-265 -183.5t-324 -66zM1015 73q150 0 280 58t227.5 161t152.5 239t55 293
t-55 293t-152.5 239t-227.5 161t-280 58q-149 0 -279 -58t-227.5 -161t-152.5 -239t-55 -293t55 -293t152.5 -239t227.5 -161t279 -58zM1252 1956q-29 0 -50 21t-21 50t21 50t50 21t50 -21t21 -50t-21 -50t-50 -21zM780 1956q-29 0 -50 21t-21 50t21 50t50 21t50 -21t21 -50
t-21 -50t-50 -21z" />
    <glyph glyph-name="multiply" unicode="&#xd7;" horiz-adv-x="1326" 
d="M281 383l-63 64l383 381l-383 383l64 62l381 -382l382 382l63 -62l-383 -383l383 -381l-64 -64l-381 383z" />
    <glyph glyph-name="Oslash" unicode="&#xd8;" horiz-adv-x="2031" 
d="M1018 -32q-173 0 -324 66t-265 183.5t-178.5 273t-64.5 333.5q0 179 64.5 334t178.5 272.5t265 183.5t324 66t324 -66t265 -183.5t178.5 -272.5t64.5 -334q0 -178 -64.5 -333.5t-178.5 -273t-265 -183.5t-324 -66zM1018 73q150 0 279.5 58t227 161t153 239t55.5 293
t-55.5 293t-153 239t-227 161t-279.5 58q-149 0 -279 -58t-227.5 -161t-152.5 -239t-55 -293t55 -293t152.5 -239t227.5 -161t279 -58zM435 2l-74 56l1247 1596l76 -57z" />
    <glyph glyph-name="Ugrave" unicode="&#xd9;" horiz-adv-x="1628" 
d="M815 -32q-279 0 -418.5 156.5t-139.5 467.5v1058h109v-1039q0 -266 113 -400.5t336 -134.5q222 0 335 134.5t113 400.5v1039h109v-1058q0 -311 -139 -467.5t-418 -156.5zM880 1794l-199 343l92 64l168 -365z" />
    <glyph glyph-name="Uacute" unicode="&#xda;" horiz-adv-x="1628" 
d="M815 -32q-279 0 -418.5 156.5t-139.5 467.5v1058h109v-1039q0 -266 113 -400.5t336 -134.5q222 0 335 134.5t113 400.5v1039h109v-1058q0 -311 -139 -467.5t-418 -156.5zM813 1794l-61 42l169 365l91 -64z" />
    <glyph glyph-name="Ucircumflex" unicode="&#xdb;" horiz-adv-x="1628" 
d="M815 -32q-279 0 -418.5 156.5t-139.5 467.5v1058h109v-1039q0 -266 113 -400.5t336 -134.5q222 0 335 134.5t113 400.5v1039h109v-1058q0 -311 -139 -467.5t-418 -156.5zM509 1980l-47 65l353 259l354 -259l-48 -65l-306 224z" />
    <glyph glyph-name="Udieresis" unicode="&#xdc;" horiz-adv-x="1628" 
d="M815 -32q-279 0 -418.5 156.5t-139.5 467.5v1058h109v-1039q0 -266 113 -400.5t336 -134.5q222 0 335 134.5t113 400.5v1039h109v-1058q0 -311 -139 -467.5t-418 -156.5zM1051 1951q-29 0 -50 21t-21 50t21 50t50 21t50 -21t21 -50t-21 -50t-50 -21zM579 1951
q-29 0 -50 21t-21 50t21 50t50 21t50 -21t21 -50t-21 -50t-50 -21z" />
    <glyph glyph-name="Yacute" unicode="&#xdd;" horiz-adv-x="1471" 
d="M681 0v710l-560 940h132l482 -820l483 820h132l-560 -940v-710h-109zM733 1794l-61 42l169 365l91 -64z" />
    <glyph glyph-name="Thorn" unicode="&#xde;" horiz-adv-x="1357" 
d="M280 0v1650h109v-366h286q246 0 382.5 -125t136.5 -333q0 -138 -61.5 -246t-177.5 -169.5t-280 -61.5h-286v-349h-109zM389 444h266q136 0 231.5 49.5t146 135t50.5 196.5q0 167 -112 268t-316 101h-266v-750z" />
    <glyph glyph-name="germandbls" unicode="&#xdf;" horiz-adv-x="1342" 
d="M508 -32v101h188q109 0 198 54t142 144.5t53 201.5q0 112 -53 203.5t-142 145.5t-198 54h-188v91h188q94 0 171.5 46.5t123.5 125t46 174.5t-46 174t-123.5 124.5t-171.5 46.5t-170.5 -46t-122 -124t-45.5 -175v-1309h-106v738h-132v94h132v475q0 124 60 224t160.5 159.5
t224.5 59.5q123 0 223.5 -59t160 -158.5t59.5 -221.5q0 -130 -70.5 -236t-189.5 -155q96 -35 167.5 -103t111.5 -158.5t40 -193.5q0 -138 -67 -251t-181.5 -179t-254.5 -67h-188z" />
    <glyph glyph-name="agrave" unicode="&#xe0;" 
d="M663 -32q-145 0 -260.5 70.5t-183 193.5t-67.5 280q0 158 67 280.5t182.5 193t261.5 70.5t264 -71t176 -196v235h106v-1024h-106v237q-65 -126 -180.5 -197.5t-259.5 -71.5zM685 62q124 0 219.5 57.5t150 159.5t54.5 233q0 132 -54.5 233.5t-150 159t-219.5 57.5
t-219.5 -57.5t-150.5 -159t-55 -233.5q0 -131 55 -232.5t150.5 -159.5t219.5 -58zM817 1200l-199 343l92 64l168 -365z" />
    <glyph glyph-name="aacute" unicode="&#xe1;" 
d="M663 -32q-145 0 -260.5 70.5t-183 193.5t-67.5 280q0 158 67 280.5t182.5 193t261.5 70.5t264 -71t176 -196v235h106v-1024h-106v237q-65 -126 -180.5 -197.5t-259.5 -71.5zM685 62q124 0 219.5 57.5t150 159.5t54.5 233q0 132 -54.5 233.5t-150 159t-219.5 57.5
t-219.5 -57.5t-150.5 -159t-55 -233.5q0 -131 55 -232.5t150.5 -159.5t219.5 -58zM749 1200l-61 42l169 365l91 -64z" />
    <glyph glyph-name="acircumflex" unicode="&#xe2;" 
d="M663 -32q-145 0 -260.5 70.5t-183 193.5t-67.5 280q0 158 67 280.5t182.5 193t261.5 70.5t264 -71t176 -196v235h106v-1024h-106v237q-65 -126 -180.5 -197.5t-259.5 -71.5zM685 62q124 0 219.5 57.5t150 159.5t54.5 233q0 132 -54.5 233.5t-150 159t-219.5 57.5
t-219.5 -57.5t-150.5 -159t-55 -233.5q0 -131 55 -232.5t150.5 -159.5t219.5 -58zM445 1386l-47 65l353 259l354 -259l-48 -65l-306 224z" />
    <glyph glyph-name="atilde" unicode="&#xe3;" 
d="M663 -32q-145 0 -260.5 70.5t-183 193.5t-67.5 280q0 158 67 280.5t182.5 193t261.5 70.5t264 -71t176 -196v235h106v-1024h-106v237q-65 -126 -180.5 -197.5t-259.5 -71.5zM685 62q124 0 219.5 57.5t150 159.5t54.5 233q0 132 -54.5 233.5t-150 159t-219.5 57.5
t-219.5 -57.5t-150.5 -159t-55 -233.5q0 -131 55 -232.5t150.5 -159.5t219.5 -58zM952 1321q-66 0 -115 24t-91.5 56t-88.5 56t-106 24q-82 0 -138.5 -46.5t-89.5 -108.5l-61 55q45 78 118 132t169 54q68 0 119 -24t94 -56t89 -56t103 -24q70 0 129 41t97 113l61 -54
q-34 -59 -80 -101t-99.5 -63.5t-109.5 -21.5z" />
    <glyph glyph-name="adieresis" unicode="&#xe4;" 
d="M663 -32q-145 0 -260.5 70.5t-183 193.5t-67.5 280q0 158 67 280.5t182.5 193t261.5 70.5t264 -71t176 -196v235h106v-1024h-106v237q-65 -126 -180.5 -197.5t-259.5 -71.5zM685 62q124 0 219.5 57.5t150 159.5t54.5 233q0 132 -54.5 233.5t-150 159t-219.5 57.5
t-219.5 -57.5t-150.5 -159t-55 -233.5q0 -131 55 -232.5t150.5 -159.5t219.5 -58zM988 1357q-29 0 -50 21t-21 50t21 50t50 21t50 -21t21 -50t-21 -50t-50 -21zM516 1357q-29 0 -50 21t-21 50t21 50t50 21t50 -21t21 -50t-21 -50t-50 -21z" />
    <glyph glyph-name="aring" unicode="&#xe5;" 
d="M663 -32q-145 0 -260.5 70.5t-183 193.5t-67.5 280q0 158 67 280.5t182.5 193t261.5 70.5t264 -71t176 -196v235h106v-1024h-106v237q-65 -126 -180.5 -197.5t-259.5 -71.5zM685 62q124 0 219.5 57.5t150 159.5t54.5 233q0 132 -54.5 233.5t-150 159t-219.5 57.5
t-219.5 -57.5t-150.5 -159t-55 -233.5q0 -131 55 -232.5t150.5 -159.5t219.5 -58zM751 1304q-59 0 -108 24t-78 67.5t-29 98.5v0q0 56 29 99t78 67.5t109 24.5t108.5 -24.5t77.5 -67.5t29 -99q0 -55 -29 -98.5t-78 -67.5t-109 -24zM751 1374q60 0 99.5 34t39.5 86
q0 53 -39.5 87t-99.5 34q-58 0 -98 -34t-40 -87v0q0 -52 40 -86t98 -34z" />
    <glyph glyph-name="ae" unicode="&#xe6;" horiz-adv-x="2074" 
d="M536 -32q-113 0 -203.5 40.5t-144 114.5t-53.5 174q0 98 53 173t144.5 117t205.5 42q109 0 198.5 -38.5t143.5 -104.5v132q0 166 -88.5 257.5t-239.5 91.5q-66 0 -120.5 -17t-99.5 -46.5t-83 -67.5l-52 67q73 82 166 117.5t195 35.5q168 0 266.5 -82.5t125.5 -201.5
q67 126 188.5 205t271.5 79q147 0 266.5 -71.5t190.5 -193t72 -272.5v-6t-1 -9h-957q0 -129 58 -230t160 -158.5t234 -57.5q124 0 224.5 53t163.5 150l80 -45q-74 -118 -198 -183t-275 -65q-155 0 -279.5 70.5t-195.5 196.5q-33 -82 -94 -142.5t-142.5 -92.5t-180.5 -32z
M562 47q89 0 163 31.5t118 89t44 133.5q0 77 -44 134t-118 88t-164 31q-89 0 -163 -31t-117.5 -88t-43.5 -133q0 -77 43.5 -134.5t117.5 -89t164 -31.5zM984 577h850q-11 113 -69.5 202.5t-150.5 141.5t-203 52q-112 0 -205 -52t-152 -141.5t-70 -202.5z" />
    <glyph glyph-name="ccedilla" unicode="&#xe7;" horiz-adv-x="1162" 
d="M699 -32q-115 0 -215.5 40.5t-175.5 113.5t-117.5 172.5t-42.5 217.5t42 217t117 172.5t175 114t217 40.5q101 0 192 -31t159 -85l-48 -72q-122 96 -294 96q-133 0 -235.5 -59t-160.5 -161.5t-58 -231.5t58 -231.5t161 -161.5t237 -59q83 0 157.5 24.5t132.5 71.5l50 -72
q-69 -54 -159 -85t-192 -31zM678 -549q-82 0 -147 37t-103 103l57 36q60 -107 193 -107q74 0 120 38t46 98q0 56 -39 91t-103 35q-35 0 -75.5 -11t-68.5 -28l-6 5l86 263h67l-58 -179q31 5 51 5.5t38 -2.5q79 -3 129.5 -53t50.5 -126q0 -90 -67 -147.5t-171 -57.5z" />
    <glyph glyph-name="egrave" unicode="&#xe8;" horiz-adv-x="1345" 
d="M701 -32q-161 0 -286 71.5t-196 193t-71 273.5q0 116 41.5 216t115 175t170 117t205.5 42q145 0 262.5 -66.5t189 -183.5t78.5 -267v-17.5t-1 -17.5h-957q0 -129 58 -230t160.5 -158.5t233.5 -57.5q125 0 225.5 53t162.5 150l80 -45q-73 -118 -196.5 -183t-274.5 -65z
M257 588h847q-13 109 -72 194t-150 134.5t-200 49.5q-111 0 -202.5 -49t-150.5 -134.5t-72 -194.5zM740 1175l-199 343l92 64l168 -365z" />
    <glyph glyph-name="eacute" unicode="&#xe9;" horiz-adv-x="1345" 
d="M701 -32q-161 0 -286 71.5t-196 193t-71 273.5q0 116 41.5 216t115 175t170 117t205.5 42q145 0 262.5 -66.5t189 -183.5t78.5 -267v-17.5t-1 -17.5h-957q0 -129 58 -230t160.5 -158.5t233.5 -57.5q125 0 225.5 53t162.5 150l80 -45q-73 -118 -196.5 -183t-274.5 -65z
M257 588h847q-13 109 -72 194t-150 134.5t-200 49.5q-111 0 -202.5 -49t-150.5 -134.5t-72 -194.5zM673 1175l-61 42l169 365l91 -64z" />
    <glyph glyph-name="ecircumflex" unicode="&#xea;" horiz-adv-x="1345" 
d="M701 -32q-161 0 -286 71.5t-196 193t-71 273.5q0 116 41.5 216t115 175t170 117t205.5 42q145 0 262.5 -66.5t189 -183.5t78.5 -267v-17.5t-1 -17.5h-957q0 -129 58 -230t160.5 -158.5t233.5 -57.5q125 0 225.5 53t162.5 150l80 -45q-73 -118 -196.5 -183t-274.5 -65z
M257 588h847q-13 109 -72 194t-150 134.5t-200 49.5q-111 0 -202.5 -49t-150.5 -134.5t-72 -194.5zM369 1361l-47 65l353 259l354 -259l-48 -65l-306 224z" />
    <glyph glyph-name="edieresis" unicode="&#xeb;" horiz-adv-x="1345" 
d="M701 -32q-161 0 -286 71.5t-196 193t-71 273.5q0 116 41.5 216t115 175t170 117t205.5 42q145 0 262.5 -66.5t189 -183.5t78.5 -267v-17.5t-1 -17.5h-957q0 -129 58 -230t160.5 -158.5t233.5 -57.5q125 0 225.5 53t162.5 150l80 -45q-73 -118 -196.5 -183t-274.5 -65z
M257 588h847q-13 109 -72 194t-150 134.5t-200 49.5q-111 0 -202.5 -49t-150.5 -134.5t-72 -194.5zM911 1332q-29 0 -50 21t-21 50t21 50t50 21t50 -21t21 -50t-21 -50t-50 -21zM439 1332q-29 0 -50 21t-21 50t21 50t50 21t50 -21t21 -50t-21 -50t-50 -21z" />
    <glyph glyph-name="igrave" unicode="&#xec;" horiz-adv-x="554" 
d="M224 0v1024h106v-1024h-106zM342 1170l-199 343l92 64l168 -365z" />
    <glyph glyph-name="iacute" unicode="&#xed;" horiz-adv-x="554" 
d="M224 0v1024h106v-1024h-106zM275 1170l-61 42l169 365l91 -64z" />
    <glyph glyph-name="icircumflex" unicode="&#xee;" horiz-adv-x="554" 
d="M224 0v1024h106v-1024h-106zM-29 1356l-47 65l353 259l354 -259l-48 -65l-306 224z" />
    <glyph glyph-name="idieresis" unicode="&#xef;" horiz-adv-x="554" 
d="M224 0v1024h106v-1024h-106zM513 1327q-29 0 -50 21t-21 50t21 50t50 21t50 -21t21 -50t-21 -50t-50 -21zM41 1327q-29 0 -50 21t-21 50t21 50t50 21t50 -21t21 -50t-21 -50t-50 -21z" />
    <glyph glyph-name="eth" unicode="&#xf0;" horiz-adv-x="1441" 
d="M709 -32q-160 0 -286.5 69.5t-200 192t-73.5 282.5q0 124 44 224.5t120.5 172.5t177 110.5t213.5 38.5q135 0 243.5 -59.5t169.5 -162.5q-39 214 -132.5 374t-228.5 267l-156 -155l-59 59l144 143q-60 43 -126.5 76t-135.5 57l31 93q81 -28 158 -65.5t146 -86.5l153 152
l59 -60l-143 -140q104 -84 186 -192t139 -238.5t86.5 -282.5t29.5 -325q0 -160 -73.5 -282.5t-200 -192t-285.5 -69.5zM708 62q131 0 233.5 58t161 159.5t58.5 232.5t-59 232.5t-161 159.5t-233 58q-130 0 -232.5 -58t-161.5 -159.5t-59 -232.5t58.5 -232.5t161 -159.5
t233.5 -58z" />
    <glyph glyph-name="ntilde" unicode="&#xf1;" horiz-adv-x="1260" 
d="M224 0v1024h106v-146q38 73 125.5 125.5t219.5 52.5q119 0 204 -48.5t130 -142t45 -228.5v-637h-106v618q0 170 -78.5 259.5t-221.5 89.5q-100 0 -171 -40t-109 -105t-38 -139v-683h-106zM853 1321q-66 0 -115 24t-91.5 56t-88.5 56t-106 24q-82 0 -138.5 -46.5
t-89.5 -108.5l-61 55q45 78 118 132t169 54q68 0 119 -24t94 -56t89 -56t103 -24q70 0 129 41t97 113l61 -54q-34 -59 -80 -101t-99.5 -63.5t-109.5 -21.5z" />
    <glyph glyph-name="ograve" unicode="&#xf2;" horiz-adv-x="1414" 
d="M707 -32q-158 0 -284.5 69t-200 191.5t-73.5 283.5t73.5 283.5t200 191.5t284.5 69t284.5 -69t200.5 -191.5t74 -283.5t-74 -283.5t-200.5 -191.5t-284.5 -69zM707 65q130 0 231.5 57.5t160 158.5t58.5 231t-58.5 231t-160 158.5t-231.5 57.5t-231.5 -57.5t-160 -158.5
t-58.5 -231t58.5 -231t160 -158.5t231.5 -57.5zM772 1200l-199 343l92 64l168 -365z" />
    <glyph glyph-name="oacute" unicode="&#xf3;" horiz-adv-x="1414" 
d="M707 -32q-158 0 -284.5 69t-200 191.5t-73.5 283.5t73.5 283.5t200 191.5t284.5 69t284.5 -69t200.5 -191.5t74 -283.5t-74 -283.5t-200.5 -191.5t-284.5 -69zM707 65q130 0 231.5 57.5t160 158.5t58.5 231t-58.5 231t-160 158.5t-231.5 57.5t-231.5 -57.5t-160 -158.5
t-58.5 -231t58.5 -231t160 -158.5t231.5 -57.5zM705 1200l-61 42l169 365l91 -64z" />
    <glyph glyph-name="ocircumflex" unicode="&#xf4;" horiz-adv-x="1414" 
d="M707 -32q-158 0 -284.5 69t-200 191.5t-73.5 283.5t73.5 283.5t200 191.5t284.5 69t284.5 -69t200.5 -191.5t74 -283.5t-74 -283.5t-200.5 -191.5t-284.5 -69zM707 65q130 0 231.5 57.5t160 158.5t58.5 231t-58.5 231t-160 158.5t-231.5 57.5t-231.5 -57.5t-160 -158.5
t-58.5 -231t58.5 -231t160 -158.5t231.5 -57.5zM401 1386l-47 65l353 259l354 -259l-48 -65l-306 224z" />
    <glyph glyph-name="otilde" unicode="&#xf5;" horiz-adv-x="1414" 
d="M707 -32q-158 0 -284.5 69t-200 191.5t-73.5 283.5t73.5 283.5t200 191.5t284.5 69t284.5 -69t200.5 -191.5t74 -283.5t-74 -283.5t-200.5 -191.5t-284.5 -69zM707 65q130 0 231.5 57.5t160 158.5t58.5 231t-58.5 231t-160 158.5t-231.5 57.5t-231.5 -57.5t-160 -158.5
t-58.5 -231t58.5 -231t160 -158.5t231.5 -57.5zM907 1321q-66 0 -115 24t-91.5 56t-88.5 56t-106 24q-82 0 -138.5 -46.5t-89.5 -108.5l-61 55q45 78 118 132t169 54q68 0 119 -24t94 -56t89 -56t103 -24q70 0 129 41t97 113l61 -54q-34 -59 -80 -101t-99.5 -63.5
t-109.5 -21.5z" />
    <glyph glyph-name="odieresis" unicode="&#xf6;" horiz-adv-x="1414" 
d="M707 -32q-158 0 -284.5 69t-200 191.5t-73.5 283.5t73.5 283.5t200 191.5t284.5 69t284.5 -69t200.5 -191.5t74 -283.5t-74 -283.5t-200.5 -191.5t-284.5 -69zM707 65q130 0 231.5 57.5t160 158.5t58.5 231t-58.5 231t-160 158.5t-231.5 57.5t-231.5 -57.5t-160 -158.5
t-58.5 -231t58.5 -231t160 -158.5t231.5 -57.5zM943 1357q-29 0 -50 21t-21 50t21 50t50 21t50 -21t21 -50t-21 -50t-50 -21zM471 1357q-29 0 -50 21t-21 50t21 50t50 21t50 -21t21 -50t-21 -50t-50 -21z" />
    <glyph glyph-name="divide" unicode="&#xf7;" horiz-adv-x="1460" 
d="M193 784v92h1025v-92h-1025zM706 266q-27 0 -47 20t-20 48t20 47.5t47 19.5t47 -19.5t20 -47.5t-20 -48t-47 -20zM706 1259q-27 0 -47 20t-20 47q0 28 20 48t47 20t47 -20t20 -48q0 -27 -20 -47t-47 -20z" />
    <glyph glyph-name="oslash" unicode="&#xf8;" horiz-adv-x="1414" 
d="M707 -32q-158 0 -284.5 69t-200 191.5t-73.5 283.5t73.5 283.5t200 191.5t284.5 69t284.5 -69t200.5 -191.5t74 -283.5t-74 -283.5t-200.5 -191.5t-284.5 -69zM707 65q130 0 231.5 57.5t160 158.5t58.5 231t-58.5 231t-160 158.5t-231.5 57.5t-231.5 -57.5t-160 -158.5
t-58.5 -231t58.5 -231t160 -158.5t231.5 -57.5zM218 -32l892 1088h86l-892 -1088h-86z" />
    <glyph glyph-name="ugrave" unicode="&#xf9;" horiz-adv-x="1232" 
d="M616 -32q-222 0 -316 103.5t-94 347.5v605h106v-590q0 -202 70 -288.5t234 -86.5t233.5 86.5t69.5 288.5v590h106v-605q0 -244 -93.5 -347.5t-315.5 -103.5zM681 1170l-199 343l92 64l168 -365z" />
    <glyph glyph-name="uacute" unicode="&#xfa;" horiz-adv-x="1232" 
d="M616 -32q-222 0 -316 103.5t-94 347.5v605h106v-590q0 -202 70 -288.5t234 -86.5t233.5 86.5t69.5 288.5v590h106v-605q0 -244 -93.5 -347.5t-315.5 -103.5zM614 1170l-61 42l169 365l91 -64z" />
    <glyph glyph-name="ucircumflex" unicode="&#xfb;" horiz-adv-x="1232" 
d="M616 -32q-222 0 -316 103.5t-94 347.5v605h106v-590q0 -202 70 -288.5t234 -86.5t233.5 86.5t69.5 288.5v590h106v-605q0 -244 -93.5 -347.5t-315.5 -103.5zM310 1356l-47 65l353 259l354 -259l-48 -65l-306 224z" />
    <glyph glyph-name="udieresis" unicode="&#xfc;" horiz-adv-x="1232" 
d="M616 -32q-222 0 -316 103.5t-94 347.5v605h106v-590q0 -202 70 -288.5t234 -86.5t233.5 86.5t69.5 288.5v590h106v-605q0 -244 -93.5 -347.5t-315.5 -103.5zM852 1327q-29 0 -50 21t-21 50t21 50t50 21t50 -21t21 -50t-21 -50t-50 -21zM380 1327q-29 0 -50 21t-21 50
t21 50t50 21t50 -21t21 -50t-21 -50t-50 -21z" />
    <glyph glyph-name="yacute" unicode="&#xfd;" horiz-adv-x="1225" 
d="M338 -520l232 520l-488 1024h120l428 -911l390 911h120l-684 -1544h-118zM611 1170l-61 42l169 365l91 -64z" />
    <glyph glyph-name="thorn" unicode="&#xfe;" 
d="M224 -520v2240h106v-931q62 123 177.5 195t260.5 72q146 0 262 -70t183.5 -192.5t67.5 -281.5q0 -158 -67.5 -281t-183.5 -193t-262 -70q-145 0 -260.5 73t-177.5 196v-757h-106zM748 62q123 0 219 57.5t151 159t55 233.5q0 133 -55 234.5t-151 158.5t-219 57
q-122 0 -218 -57t-151 -158.5t-55 -234.5q0 -132 54.5 -233.5t150.5 -159t219 -57.5z" />
    <glyph glyph-name="ydieresis" unicode="&#xff;" horiz-adv-x="1225" 
d="M338 -520l232 520l-488 1024h120l428 -911l390 911h120l-684 -1544h-118zM849 1327q-29 0 -50 21t-21 50t21 50t50 21t50 -21t21 -50t-21 -50t-50 -21zM377 1327q-29 0 -50 21t-21 50t21 50t50 21t50 -21t21 -50t-21 -50t-50 -21z" />
    <glyph glyph-name="Amacron" unicode="&#x100;" horiz-adv-x="1655" 
d="M130 0l646 1650h102l646 -1650h-118l-216 563h-725l-217 -563h-118zM502 660h651l-326 848zM419 1974v78h816v-78h-816z" />
    <glyph glyph-name="amacron" unicode="&#x101;" 
d="M663 -32q-145 0 -260.5 70.5t-183 193.5t-67.5 280q0 158 67 280.5t182.5 193t261.5 70.5t264 -71t176 -196v235h106v-1024h-106v237q-65 -126 -180.5 -197.5t-259.5 -71.5zM685 62q124 0 219.5 57.5t150 159.5t54.5 233q0 132 -54.5 233.5t-150 159t-219.5 57.5
t-219.5 -57.5t-150.5 -159t-55 -233.5q0 -131 55 -232.5t150.5 -159.5t219.5 -58zM343 1380v78h816v-78h-816z" />
    <glyph glyph-name="Abreve" unicode="&#x102;" horiz-adv-x="1655" 
d="M130 0l646 1650h102l646 -1650h-118l-216 563h-725l-217 -563h-118zM502 660h651l-326 848zM827 1970q-102 0 -186.5 39t-140.5 110t-75 165l84 20q15 -74 58.5 -131.5t109.5 -90t150 -32.5q83 0 149.5 32.5t110 90t58.5 131.5l84 -20q-19 -94 -75 -165t-140.5 -110
t-186.5 -39z" />
    <glyph glyph-name="abreve" unicode="&#x103;" 
d="M663 -32q-145 0 -260.5 70.5t-183 193.5t-67.5 280q0 158 67 280.5t182.5 193t261.5 70.5t264 -71t176 -196v235h106v-1024h-106v237q-65 -126 -180.5 -197.5t-259.5 -71.5zM685 62q124 0 219.5 57.5t150 159.5t54.5 233q0 132 -54.5 233.5t-150 159t-219.5 57.5
t-219.5 -57.5t-150.5 -159t-55 -233.5q0 -131 55 -232.5t150.5 -159.5t219.5 -58zM751 1376q-102 0 -186.5 39t-140.5 110t-75 165l84 20q15 -74 58.5 -131.5t109.5 -90t150 -32.5q83 0 149.5 32.5t110 90t58.5 131.5l84 -20q-19 -94 -75 -165t-140.5 -110t-186.5 -39z" />
    <glyph glyph-name="Aogonek" unicode="&#x104;" horiz-adv-x="1655" 
d="M130 0l646 1650h102l646 -1650h-118l-216 563h-725l-217 -563h-118zM502 660h651l-326 848zM1521 -558q-109 0 -179.5 66t-70.5 158q0 70 48 155.5t135 179.5h70q-83 -90 -129 -176t-46 -149t46 -110.5t136 -47.5q60 0 112.5 25.5t101.5 80.5l52 -38q-46 -67 -120 -105.5
t-156 -38.5z" />
    <glyph glyph-name="aogonek" unicode="&#x105;" 
d="M663 -32q-145 0 -260.5 70.5t-183 193.5t-67.5 280q0 158 67 280.5t182.5 193t261.5 70.5t264 -71t176 -196v235h106v-1024h-106v237q-65 -126 -180.5 -197.5t-259.5 -71.5zM685 62q124 0 219.5 57.5t150 159.5t54.5 233q0 132 -54.5 233.5t-150 159t-219.5 57.5
t-219.5 -57.5t-150.5 -159t-55 -233.5q0 -131 55 -232.5t150.5 -159.5t219.5 -58zM1206 -559q-109 0 -179.5 66t-70.5 158q0 70 48 155.5t135 179.5h70q-83 -90 -129 -176t-46 -149t46 -110.5t136 -47.5q60 0 112.5 25.5t101.5 80.5l52 -38q-46 -67 -120 -105.5t-156 -38.5z
" />
    <glyph glyph-name="Cacute" unicode="&#x106;" horiz-adv-x="1628" 
d="M994 -32q-185 0 -342.5 65t-274.5 181.5t-181.5 272t-64.5 337.5t64.5 337.5t181.5 272t274.5 181.5t342.5 65q156 0 291.5 -46t241.5 -128l-55 -90q-93 76 -214 116t-257 40q-165 0 -302.5 -57.5t-238 -159.5t-155 -238t-54.5 -293t54.5 -293t155 -238t238 -159.5
t302.5 -57.5q136 0 257 40t214 116l55 -90q-105 -81 -240.5 -127.5t-292.5 -46.5zM992 1824l-61 42l169 365l91 -64z" />
    <glyph glyph-name="cacute" unicode="&#x107;" horiz-adv-x="1162" 
d="M699 -32q-115 0 -215.5 40.5t-175.5 113.5t-117.5 172.5t-42.5 217.5t42 217t117 172.5t175 114t217 40.5q101 0 192 -31t159 -85l-48 -72q-122 96 -294 96q-133 0 -235.5 -59t-160.5 -161.5t-58 -231.5t58 -231.5t161 -161.5t237 -59q83 0 157.5 24.5t132.5 71.5l50 -72
q-69 -54 -159 -85t-192 -31zM687 1200l-61 42l169 365l91 -64z" />
    <glyph glyph-name="Cdotaccent" unicode="&#x10a;" horiz-adv-x="1628" 
d="M994 -32q-185 0 -342.5 65t-274.5 181.5t-181.5 272t-64.5 337.5t64.5 337.5t181.5 272t274.5 181.5t342.5 65q156 0 291.5 -46t241.5 -128l-55 -90q-93 76 -214 116t-257 40q-165 0 -302.5 -57.5t-238 -159.5t-155 -238t-54.5 -293t54.5 -293t155 -238t238 -159.5
t302.5 -57.5q136 0 257 40t214 116l55 -90q-105 -81 -240.5 -127.5t-292.5 -46.5zM995 2053q-21 0 -38 10t-27 27t-10 38q0 20 10 36.5t27 27t38 10.5q20 0 36.5 -10.5t27 -27t10.5 -36.5q0 -21 -10.5 -38t-27 -27t-36.5 -10z" />
    <glyph glyph-name="cdotaccent" unicode="&#x10b;" horiz-adv-x="1162" 
d="M699 -32q-115 0 -215.5 40.5t-175.5 113.5t-117.5 172.5t-42.5 217.5t42 217t117 172.5t175 114t217 40.5q101 0 192 -31t159 -85l-48 -72q-122 96 -294 96q-133 0 -235.5 -59t-160.5 -161.5t-58 -231.5t58 -231.5t161 -161.5t237 -59q83 0 157.5 24.5t132.5 71.5l50 -72
q-69 -54 -159 -85t-192 -31zM691 1429q-21 0 -38 10t-27 27t-10 38q0 20 10 36.5t27 27t38 10.5q20 0 36.5 -10.5t27 -27t10.5 -36.5q0 -21 -10.5 -38t-27 -27t-36.5 -10z" />
    <glyph glyph-name="Ccaron" unicode="&#x10c;" horiz-adv-x="1628" 
d="M994 -32q-185 0 -342.5 65t-274.5 181.5t-181.5 272t-64.5 337.5t64.5 337.5t181.5 272t274.5 181.5t342.5 65q156 0 291.5 -46t241.5 -128l-55 -90q-93 76 -214 116t-257 40q-165 0 -302.5 -57.5t-238 -159.5t-155 -238t-54.5 -293t54.5 -293t155 -238t238 -159.5
t302.5 -57.5q136 0 257 40t214 116l55 -90q-105 -81 -240.5 -127.5t-292.5 -46.5zM994 1889l-353 259l47 66l306 -224l306 224l48 -66z" />
    <glyph glyph-name="ccaron" unicode="&#x10d;" horiz-adv-x="1162" 
d="M699 -32q-115 0 -215.5 40.5t-175.5 113.5t-117.5 172.5t-42.5 217.5t42 217t117 172.5t175 114t217 40.5q101 0 192 -31t159 -85l-48 -72q-122 96 -294 96q-133 0 -235.5 -59t-160.5 -161.5t-58 -231.5t58 -231.5t161 -161.5t237 -59q83 0 157.5 24.5t132.5 71.5l50 -72
q-69 -54 -159 -85t-192 -31zM689 1265l-353 259l47 66l306 -224l306 224l48 -66z" />
    <glyph glyph-name="Dcaron" unicode="&#x10e;" horiz-adv-x="1645" 
d="M280 0v1650h351q176 0 327.5 -63t264.5 -175.5t176.5 -262.5t63.5 -324q0 -175 -63 -325t-176.5 -262.5t-265 -175t-327.5 -62.5h-351zM389 98h235q153 0 285 55.5t231 154.5t154.5 231t55.5 286t-55 286t-154.5 231t-231.5 154.5t-285 55.5h-235v-1454zM823 1859
l-353 259l47 66l306 -224l306 224l48 -66z" />
    <glyph glyph-name="dcaron" unicode="&#x10f;" 
d="M663 -32q-145 0 -260.5 70.5t-183 193.5t-67.5 280q0 158 67 280.5t183 193t262 70.5q144 0 260 -71t179 -196v933h106v-1722h-106v237q-64 -126 -180.5 -197.5t-259.5 -71.5zM684 62q124 0 220 57.5t150.5 159.5t54.5 233t-54.5 233t-150.5 159.5t-220 57.5
q-123 0 -218.5 -57.5t-150.5 -159.5t-55 -233t54.5 -232.5t150.5 -159.5t219 -58zM653 1514l-353 259l47 66l306 -224l306 224l48 -66z" />
    <glyph glyph-name="Dcroat" unicode="&#x110;" horiz-adv-x="1677" 
d="M311 0v780h-164v90h164v780h352q170 0 320 -60.5t265.5 -171.5t181 -261.5t65.5 -330.5q0 -181 -65.5 -332t-180.5 -262t-265.5 -171.5t-320.5 -60.5h-352zM421 98h235q149 0 280 53.5t231.5 152t157.5 231t57 291.5q0 157 -57 290t-158 231t-232 151.5t-279 53.5h-235
v-682h484v-90h-484v-682z" />
    <glyph glyph-name="dcroat" unicode="&#x111;" 
d="M665 -32q-146 0 -262 70t-183.5 193t-67.5 281v0q0 159 67.5 281.5t183.5 192.5t262 70q147 0 262 -72t176 -195v544h-432v76h432v313h106v-313h186v-76h-186v-1333h-106v237q-61 -123 -176 -196t-262 -73zM685 62q123 0 219 57.5t150.5 159t54.5 233.5q0 133 -55 234.5
t-151 158.5t-218 57t-218.5 -57t-151.5 -158.5t-55 -234.5v0q0 -132 55 -233.5t151 -159t219 -57.5z" />
    <glyph glyph-name="Emacron" unicode="&#x112;" horiz-adv-x="1266" 
d="M280 0v1650h810v-97h-701v-678h677v-96h-677v-682h701v-97h-810zM293 1974v78h816v-78h-816z" />
    <glyph glyph-name="emacron" unicode="&#x113;" horiz-adv-x="1345" 
d="M701 -32q-161 0 -286 71.5t-196 193t-71 273.5q0 116 41.5 216t115 175t170 117t205.5 42q145 0 262.5 -66.5t189 -183.5t78.5 -267v-17.5t-1 -17.5h-957q0 -129 58 -230t160.5 -158.5t233.5 -57.5q125 0 225.5 53t162.5 150l80 -45q-73 -118 -196.5 -183t-274.5 -65z
M257 588h847q-13 109 -72 194t-150 134.5t-200 49.5q-111 0 -202.5 -49t-150.5 -134.5t-72 -194.5zM267 1355v78h816v-78h-816z" />
    <glyph glyph-name="Edotaccent" unicode="&#x116;" horiz-adv-x="1266" 
d="M280 0v1650h810v-97h-701v-678h677v-96h-677v-682h701v-97h-810zM702 2023q-21 0 -38 10t-27 27t-10 38q0 20 10 36.5t27 27t38 10.5q20 0 36.5 -10.5t27 -27t10.5 -36.5q0 -21 -10.5 -38t-27 -27t-36.5 -10z" />
    <glyph glyph-name="edotaccent" unicode="&#x117;" horiz-adv-x="1345" 
d="M701 -32q-161 0 -286 71.5t-196 193t-71 273.5q0 116 41.5 216t115 175t170 117t205.5 42q145 0 262.5 -66.5t189 -183.5t78.5 -267v-17.5t-1 -17.5h-957q0 -129 58 -230t160.5 -158.5t233.5 -57.5q125 0 225.5 53t162.5 150l80 -45q-73 -118 -196.5 -183t-274.5 -65z
M257 588h847q-13 109 -72 194t-150 134.5t-200 49.5q-111 0 -202.5 -49t-150.5 -134.5t-72 -194.5zM676 1404q-21 0 -38 10t-27 27t-10 38q0 20 10 36.5t27 27t38 10.5q20 0 36.5 -10.5t27 -27t10.5 -36.5q0 -21 -10.5 -38t-27 -27t-36.5 -10z" />
    <glyph glyph-name="Eogonek" unicode="&#x118;" horiz-adv-x="1266" 
d="M280 0v1650h810v-97h-701v-678h677v-96h-677v-682h701v-97h-810zM1087 -559q-109 0 -179.5 66t-70.5 158q0 70 48 155.5t135 179.5h70q-83 -90 -129 -176t-46 -149t46 -110.5t136 -47.5q60 0 112.5 25.5t101.5 80.5l52 -38q-46 -67 -120 -105.5t-156 -38.5z" />
    <glyph glyph-name="eogonek" unicode="&#x119;" horiz-adv-x="1345" 
d="M701 -32q-161 0 -286 71.5t-196 193t-71 273.5q0 116 41.5 216t115 175t170 117t205.5 42q145 0 262.5 -66.5t189 -183.5t78.5 -267v-17.5t-1 -17.5h-957q0 -129 58 -230t160.5 -158.5t233.5 -57.5q125 0 225.5 53t162.5 150l80 -45q-73 -118 -196.5 -183t-274.5 -65z
M257 588h847q-13 109 -72 194t-150 134.5t-200 49.5q-111 0 -202.5 -49t-150.5 -134.5t-72 -194.5zM735 -558q-109 0 -179.5 66t-70.5 158q0 70 48 155.5t135 179.5h70q-83 -90 -129 -176t-46 -149t46 -110.5t136 -47.5q60 0 112.5 25.5t101.5 80.5l52 -38
q-46 -67 -120 -105.5t-156 -38.5z" />
    <glyph glyph-name="Ecaron" unicode="&#x11a;" horiz-adv-x="1266" 
d="M280 0v1650h810v-97h-701v-678h677v-96h-677v-682h701v-97h-810zM701 1859l-353 259l47 66l306 -224l306 224l48 -66z" />
    <glyph glyph-name="ecaron" unicode="&#x11b;" horiz-adv-x="1345" 
d="M701 -32q-161 0 -286 71.5t-196 193t-71 273.5q0 116 41.5 216t115 175t170 117t205.5 42q145 0 262.5 -66.5t189 -183.5t78.5 -267v-17.5t-1 -17.5h-957q0 -129 58 -230t160.5 -158.5t233.5 -57.5q125 0 225.5 53t162.5 150l80 -45q-73 -118 -196.5 -183t-274.5 -65z
M257 588h847q-13 109 -72 194t-150 134.5t-200 49.5q-111 0 -202.5 -49t-150.5 -134.5t-72 -194.5zM675 1240l-353 259l47 66l306 -224l306 224l48 -66z" />
    <glyph glyph-name="Gbreve" unicode="&#x11e;" horiz-adv-x="1922" 
d="M999 -32q-172 0 -320 66t-259 183.5t-173 272.5t-62 333q0 164 54.5 317.5t160 275t258.5 193t349 71.5q133 0 248 -34t209.5 -94t163.5 -139l-61 -82q-96 113 -242.5 182.5t-320.5 69.5q-166 0 -296 -62t-221 -169t-138 -242t-47 -283q0 -159 53 -297.5t148 -242
t222 -162t273 -58.5q120 0 234.5 40t207 115t147 181t54.5 238v66h-652v92h764v-122q0 -182 -66.5 -315t-177 -220.5t-244 -130.5t-266.5 -43zM1012 1975q-102 0 -186.5 39t-140.5 110t-75 165l84 20q15 -74 58.5 -131.5t109.5 -90t150 -32.5q83 0 149.5 32.5t110 90
t58.5 131.5l84 -20q-19 -94 -75 -165t-140.5 -110t-186.5 -39z" />
    <glyph glyph-name="gbreve" unicode="&#x11f;" horiz-adv-x="1434" 
d="M665 -550q-191 0 -323 76.5t-198 221.5l92 40q49 -113 164.5 -181t265.5 -68q124 0 223.5 49.5t157 143.5t57.5 228v277q-64 -126 -180.5 -197.5t-259.5 -71.5q-145 0 -260.5 70.5t-183 193.5t-67.5 280q0 158 67 280.5t183 193t262 70.5q144 0 260 -71t179 -196v235h106
v-1052q0 -174 -68 -290t-190.5 -174t-286.5 -58zM685 62q124 0 220 57.5t150.5 159.5t54.5 233t-54.5 233t-150.5 159.5t-220 57.5q-123 0 -219 -57.5t-150.5 -159.5t-54.5 -233t54.5 -232.5t150.5 -159.5t219 -58zM686 1372q-102 0 -186.5 39t-140.5 110t-75 165l84 20
q15 -74 58.5 -131.5t109.5 -90t150 -32.5q83 0 149.5 32.5t110 90t58.5 131.5l84 -20q-19 -94 -75 -165t-140.5 -110t-186.5 -39z" />
    <glyph glyph-name="Gdotaccent" unicode="&#x120;" horiz-adv-x="1922" 
d="M999 -32q-172 0 -320 66t-259 183.5t-173 272.5t-62 333q0 164 54.5 317.5t160 275t258.5 193t349 71.5q133 0 248 -34t209.5 -94t163.5 -139l-61 -82q-96 113 -242.5 182.5t-320.5 69.5q-166 0 -296 -62t-221 -169t-138 -242t-47 -283q0 -159 53 -297.5t148 -242
t222 -162t273 -58.5q120 0 234.5 40t207 115t147 181t54.5 238v66h-652v92h764v-122q0 -182 -66.5 -315t-177 -220.5t-244 -130.5t-266.5 -43zM1013 2028q-21 0 -38 10t-27 27t-10 38q0 20 10 36.5t27 27t38 10.5q20 0 36.5 -10.5t27 -27t10.5 -36.5q0 -21 -10.5 -38
t-27 -27t-36.5 -10z" />
    <glyph glyph-name="gdotaccent" unicode="&#x121;" horiz-adv-x="1434" 
d="M665 -550q-191 0 -323 76.5t-198 221.5l92 40q49 -113 164.5 -181t265.5 -68q124 0 223.5 49.5t157 143.5t57.5 228v277q-64 -126 -180.5 -197.5t-259.5 -71.5q-145 0 -260.5 70.5t-183 193.5t-67.5 280q0 158 67 280.5t183 193t262 70.5q144 0 260 -71t179 -196v235h106
v-1052q0 -174 -68 -290t-190.5 -174t-286.5 -58zM685 62q124 0 220 57.5t150.5 159.5t54.5 233t-54.5 233t-150.5 159.5t-220 57.5q-123 0 -219 -57.5t-150.5 -159.5t-54.5 -233t54.5 -232.5t150.5 -159.5t219 -58zM687 1425q-21 0 -38 10t-27 27t-10 38q0 20 10 36.5t27 27
t38 10.5q20 0 36.5 -10.5t27 -27t10.5 -36.5q0 -21 -10.5 -38t-27 -27t-36.5 -10z" />
    <glyph glyph-name="uni0122" unicode="&#x122;" horiz-adv-x="1922" 
d="M999 -32q-172 0 -320 66t-259 183.5t-173 272.5t-62 333q0 164 54.5 317.5t160 275t258.5 193t349 71.5q133 0 248 -34t209.5 -94t163.5 -139l-61 -82q-96 113 -242.5 182.5t-320.5 69.5q-166 0 -296 -62t-221 -169t-138 -242t-47 -283q0 -159 53 -297.5t148 -242
t222 -162t273 -58.5q120 0 234.5 40t207 115t147 181t54.5 238v66h-652v92h764v-122q0 -182 -66.5 -315t-177 -220.5t-244 -130.5t-266.5 -43zM1000 -459l-20 17q23 32 36.5 75.5t14.5 98.5q-27 2 -45.5 21.5t-18.5 46.5q0 30 19 49t51 19q33 0 50 -22.5t17 -69.5
q0 -63 -31 -133t-73 -102z" />
    <glyph glyph-name="uni0123" unicode="&#x123;" horiz-adv-x="1434" 
d="M665 -550q-191 0 -323 76.5t-198 221.5l92 40q49 -113 164.5 -181t265.5 -68q124 0 223.5 49.5t157 143.5t57.5 228v277q-64 -126 -180.5 -197.5t-259.5 -71.5q-145 0 -260.5 70.5t-183 193.5t-67.5 280q0 158 67 280.5t183 193t262 70.5q144 0 260 -71t179 -196v235h106
v-1052q0 -174 -68 -290t-190.5 -174t-286.5 -58zM685 62q124 0 220 57.5t150.5 159.5t54.5 233t-54.5 233t-150.5 159.5t-220 57.5q-123 0 -219 -57.5t-150.5 -159.5t-54.5 -233t54.5 -232.5t150.5 -159.5t219 -58zM688 1381q-32 0 -49 19.5t-17 58.5q0 54 29 112.5t70 86.5
l23 -15q-20 -27 -32.5 -63t-14.5 -82q26 -1 42.5 -18t16.5 -40q0 -26 -19 -42.5t-49 -16.5z" />
    <glyph glyph-name="Hbar" unicode="&#x126;" horiz-adv-x="1749" 
d="M280 0v1650h109v-821h971v821h110v-1650h-110v745h-971v-745h-109zM145 1069v84h1473v-84h-1473z" />
    <glyph glyph-name="hbar" unicode="&#x127;" horiz-adv-x="1260" 
d="M224 0v1722h106v-844q38 73 125.5 125.5t219.5 52.5q119 0 204 -48.5t130 -142t45 -228.5v-637h-106v618q0 170 -78.5 260t-221.5 90q-100 0 -171 -40.5t-109 -105.5t-38 -139v-683h-106zM82 1321v79h465v-79h-465z" />
    <glyph glyph-name="Imacron" unicode="&#x12a;" horiz-adv-x="668" 
d="M280 0v1650h109v-1650h-109zM-74 1974v78h816v-78h-816z" />
    <glyph glyph-name="imacron" unicode="&#x12b;" horiz-adv-x="554" 
d="M224 0v1024h106v-1024h-106zM-131 1350v78h816v-78h-816z" />
    <glyph glyph-name="Iogonek" unicode="&#x12e;" horiz-adv-x="668" 
d="M280 0v1650h109v-1650h-109zM386 -559q-109 0 -179.5 66t-70.5 158q0 70 48 155.5t135 179.5h70q-83 -90 -129 -176t-46 -149t46 -110.5t136 -47.5q60 0 112.5 25.5t101.5 80.5l52 -38q-46 -67 -120 -105.5t-156 -38.5z" />
    <glyph glyph-name="iogonek" unicode="&#x12f;" horiz-adv-x="554" 
d="M224 0v1024h106v-1024h-106zM278 1399q-21 0 -38 10t-27 27t-10 38q0 20 10 36.5t27 27t38 10.5q20 0 36.5 -10.5t27 -27t10.5 -36.5q0 -21 -10.5 -38t-27 -27t-36.5 -10zM327 -559q-109 0 -179.5 66t-70.5 158q0 70 48 155.5t135 179.5h70q-83 -90 -129 -176t-46 -149
t46 -110.5t136 -47.5q60 0 112.5 25.5t101.5 80.5l52 -38q-46 -67 -120 -105.5t-156 -38.5z" />
    <glyph glyph-name="Idotaccent" unicode="&#x130;" horiz-adv-x="668" 
d="M280 0v1650h109v-1650h-109zM335 2023q-21 0 -38 10t-27 27t-10 38q0 20 10 36.5t27 27t38 10.5q20 0 36.5 -10.5t27 -27t10.5 -36.5q0 -21 -10.5 -38t-27 -27t-36.5 -10z" />
    <glyph glyph-name="dotlessi" unicode="&#x131;" horiz-adv-x="554" 
d="M224 0v1024h106v-1024h-106z" />
    <glyph glyph-name="uni0136" unicode="&#x136;" horiz-adv-x="1472" 
d="M280 0v1650h109v-773l774 773h141l-824 -823l904 -827h-156l-839 762v-762h-109zM714 -458l-20 17q23 32 36.5 75.5t14.5 98.5q-27 2 -45.5 21.5t-18.5 46.5q0 30 19 49t51 19q33 0 50 -22.5t17 -69.5q0 -63 -31 -133t-73 -102z" />
    <glyph glyph-name="uni0137" unicode="&#x137;" horiz-adv-x="1054" 
d="M224 0v1720h106v-1126l417 430h138l-458 -477l483 -547h-136l-444 506v-506h-106zM491 -458l-20 17q23 32 36.5 75.5t14.5 98.5q-27 2 -45.5 21.5t-18.5 46.5q0 30 19 49t51 19q33 0 50 -22.5t17 -69.5q0 -63 -31 -133t-73 -102z" />
    <glyph glyph-name="Lacute" unicode="&#x139;" horiz-adv-x="1233" 
d="M280 0v1650h109v-1553h715v-97h-824zM639 1794l-61 42l169 365l91 -64z" />
    <glyph glyph-name="lacute" unicode="&#x13a;" horiz-adv-x="554" 
d="M224 0v1720h106v-1720h-106zM275 1864l-61 42l169 365l91 -64z" />
    <glyph glyph-name="uni013B" unicode="&#x13b;" horiz-adv-x="1233" 
d="M280 0v1650h109v-1553h715v-97h-824zM601 -458l-20 17q23 32 36.5 75.5t14.5 98.5q-27 2 -45.5 21.5t-18.5 46.5q0 30 19 49t51 19q33 0 50 -22.5t17 -69.5q0 -63 -31 -133t-73 -102z" />
    <glyph glyph-name="uni013C" unicode="&#x13c;" horiz-adv-x="554" 
d="M224 0v1720h106v-1720h-106zM242 -458l-20 17q23 32 36.5 75.5t14.5 98.5q-27 2 -45.5 21.5t-18.5 46.5q0 30 19 49t51 19q33 0 50 -22.5t17 -69.5q0 -63 -31 -133t-73 -102z" />
    <glyph glyph-name="Lcaron" unicode="&#x13d;" horiz-adv-x="1233" 
d="M280 0v1650h109v-1553h715v-97h-824zM640 1859l-353 259l47 66l306 -224l306 224l48 -66z" />
    <glyph glyph-name="lcaron" unicode="&#x13e;" horiz-adv-x="554" 
d="M224 0v1720h106v-1720h-106zM277 1929l-353 259l47 66l306 -224l306 224l48 -66z" />
    <glyph glyph-name="Lslash" unicode="&#x141;" horiz-adv-x="1266" 
d="M314 0v721l-165 -129v89l165 130v839h110v-753l215 169v-89l-215 -170v-710h712v-97h-822z" />
    <glyph glyph-name="lslash" unicode="&#x142;" horiz-adv-x="629" 
d="M292 0v838l-185 -145v98l185 145v784h106v-699l186 145v-98l-186 -145v-923h-106z" />
    <glyph glyph-name="Nacute" unicode="&#x143;" horiz-adv-x="1707" 
d="M280 0v1650h109l930 -1461v1461h109v-1650h-109l-930 1459v-1459h-109zM852 1794l-61 42l169 365l91 -64z" />
    <glyph glyph-name="nacute" unicode="&#x144;" horiz-adv-x="1260" 
d="M224 0v1024h106v-146q38 73 125.5 125.5t219.5 52.5q119 0 204 -48.5t130 -142t45 -228.5v-637h-106v618q0 170 -78.5 259.5t-221.5 89.5q-100 0 -171 -40t-109 -105t-38 -139v-683h-106zM651 1200l-61 42l169 365l91 -64z" />
    <glyph glyph-name="uni0145" unicode="&#x145;" horiz-adv-x="1707" 
d="M280 0v1650h109l930 -1461v1461h109v-1650h-109l-930 1459v-1459h-109zM818 -458l-20 17q23 32 36.5 75.5t14.5 98.5q-27 2 -45.5 21.5t-18.5 46.5q0 30 19 49t51 19q33 0 50 -22.5t17 -69.5q0 -63 -31 -133t-73 -102z" />
    <glyph glyph-name="uni0146" unicode="&#x146;" horiz-adv-x="1260" 
d="M224 0v1024h106v-146q38 73 125.5 125.5t219.5 52.5q119 0 204 -48.5t130 -142t45 -228.5v-637h-106v618q0 170 -78.5 259.5t-221.5 89.5q-100 0 -171 -40t-109 -105t-38 -139v-683h-106zM595 -458l-20 17q23 32 36.5 75.5t14.5 98.5q-27 2 -45.5 21.5t-18.5 46.5
q0 30 19 49t51 19q33 0 50 -22.5t17 -69.5q0 -63 -31 -133t-73 -102z" />
    <glyph glyph-name="Ncaron" unicode="&#x147;" horiz-adv-x="1707" 
d="M280 0v1650h109l930 -1461v1461h109v-1650h-109l-930 1459v-1459h-109zM853 1859l-353 259l47 66l306 -224l306 224l48 -66z" />
    <glyph glyph-name="ncaron" unicode="&#x148;" horiz-adv-x="1260" 
d="M224 0v1024h106v-146q38 73 125.5 125.5t219.5 52.5q119 0 204 -48.5t130 -142t45 -228.5v-637h-106v618q0 170 -78.5 259.5t-221.5 89.5q-100 0 -171 -40t-109 -105t-38 -139v-683h-106zM652 1265l-353 259l47 66l306 -224l306 224l48 -66z" />
    <glyph glyph-name="Eng" unicode="&#x14a;" horiz-adv-x="1690" 
d="M936 -551q-117 0 -207 37t-169 116l49 91q72 -75 152.5 -108t168.5 -33q190 0 289.5 112.5t99.5 308.5v27l-930 1459v-1459h-109v1650h109l930 -1461v1461h109v-1705q0 -234 -130.5 -365t-361.5 -131z" />
    <glyph glyph-name="eng" unicode="&#x14b;" horiz-adv-x="1257" 
d="M796 -550q-51 0 -95 13t-73 36l31 84q45 -40 120 -40q169 0 169 222v849q0 95 -35 175.5t-103 129.5t-168 49q-81 0 -152.5 -34.5t-115.5 -98.5t-44 -152v-683h-106v1024h106v-146q38 79 130 128.5t205 49.5q117 0 204.5 -54t136 -147.5t48.5 -212.5v-880
q0 -153 -65 -232.5t-193 -79.5z" />
    <glyph glyph-name="Omacron" unicode="&#x14c;" horiz-adv-x="2031" 
d="M1015 -32q-173 0 -324 66t-265 183.5t-178.5 273t-64.5 333.5q0 179 64.5 334t178.5 272.5t265 183.5t324 66t324 -66t265 -183.5t178.5 -272.5t64.5 -334q0 -178 -64.5 -333.5t-178.5 -273t-265 -183.5t-324 -66zM1015 73q150 0 280 58t227.5 161t152.5 239t55 293
t-55 293t-152.5 239t-227.5 161t-280 58q-149 0 -279 -58t-227.5 -161t-152.5 -239t-55 -293t55 -293t152.5 -239t227.5 -161t279 -58zM607 1979v78h816v-78h-816z" />
    <glyph glyph-name="omacron" unicode="&#x14d;" horiz-adv-x="1414" 
d="M707 -32q-158 0 -284.5 69t-200 191.5t-73.5 283.5t73.5 283.5t200 191.5t284.5 69t284.5 -69t200.5 -191.5t74 -283.5t-74 -283.5t-200.5 -191.5t-284.5 -69zM707 65q130 0 231.5 57.5t160 158.5t58.5 231t-58.5 231t-160 158.5t-231.5 57.5t-231.5 -57.5t-160 -158.5
t-58.5 -231t58.5 -231t160 -158.5t231.5 -57.5zM299 1380v78h816v-78h-816z" />
    <glyph glyph-name="Ohungarumlaut" unicode="&#x150;" horiz-adv-x="2031" 
d="M1015 -32q-173 0 -324 66t-265 183.5t-178.5 273t-64.5 333.5q0 179 64.5 334t178.5 272.5t265 183.5t324 66t324 -66t265 -183.5t178.5 -272.5t64.5 -334q0 -178 -64.5 -333.5t-178.5 -273t-265 -183.5t-324 -66zM1015 73q150 0 280 58t227.5 161t152.5 239t55 293
t-55 293t-152.5 239t-227.5 161t-280 58q-149 0 -279 -58t-227.5 -161t-152.5 -239t-55 -293t55 -293t152.5 -239t227.5 -161t279 -58zM1145 2048l-58 61l198 200l90 -90zM826 2048l-57 61l200 200l88 -90z" />
    <glyph glyph-name="ohungarumlaut" unicode="&#x151;" horiz-adv-x="1414" 
d="M707 -32q-158 0 -284.5 69t-200 191.5t-73.5 283.5t73.5 283.5t200 191.5t284.5 69t284.5 -69t200.5 -191.5t74 -283.5t-74 -283.5t-200.5 -191.5t-284.5 -69zM707 65q130 0 231.5 57.5t160 158.5t58.5 231t-58.5 231t-160 158.5t-231.5 57.5t-231.5 -57.5t-160 -158.5
t-58.5 -231t58.5 -231t160 -158.5t231.5 -57.5zM836 1449l-58 61l198 200l90 -90zM517 1449l-57 61l200 200l88 -90z" />
    <glyph glyph-name="OE" unicode="&#x152;" horiz-adv-x="2013" 
d="M1009 0q-176 0 -326.5 62.5t-263 175t-175 262.5t-62.5 326t63.5 326t179 262t271.5 174t342 62h799v-97h-701v-678h677v-96h-677v-682h701v-97h-828zM1026 99v1452q-153 0 -285.5 -54.5t-231.5 -153t-154 -231t-55 -288.5q0 -155 53.5 -286.5t151.5 -230t231 -153.5
t290 -55z" />
    <glyph glyph-name="oe" unicode="&#x153;" horiz-adv-x="2349" 
d="M705 -32q-158 0 -284 69t-199 192t-73 283q0 161 73 283.5t199 191.5t284 69q174 0 309 -88t192 -240q39 97 110.5 171t166.5 115.5t203 41.5q146 0 265 -71.5t190.5 -192t72.5 -269.5v-8.5v-10.5h-958q0 -129 58 -230t160.5 -158.5t233.5 -57.5q125 0 225.5 53
t163.5 150l79 -45q-74 -117 -197.5 -182.5t-275.5 -65.5q-172 0 -305.5 87t-193.5 237q-56 -149 -190.5 -236.5t-308.5 -87.5zM708 62q131 0 233.5 58t161 159.5t58.5 232.5t-58.5 232.5t-161 159.5t-233.5 58t-233.5 -58t-161.5 -159.5t-59 -232.5t59 -232.5t161.5 -159.5
t233.5 -58zM1260 577h850q-11 113 -70 202.5t-151 141.5t-203 52t-204 -52t-152.5 -141.5t-69.5 -202.5z" />
    <glyph glyph-name="Racute" unicode="&#x154;" horiz-adv-x="1370" 
d="M280 0v1650h395q160 0 276 -55.5t179.5 -158t63.5 -244.5q0 -135 -57 -237t-160.5 -163t-245.5 -71l551 -721h-139l-539 713h-215v-713h-109zM389 810h266q131 0 227.5 47t149.5 132t53 201q0 172 -115 271t-315 99h-266v-750zM683 1794l-61 42l169 365l91 -64z" />
    <glyph glyph-name="racute" unicode="&#x155;" horiz-adv-x="866" 
d="M224 0v1024h106v-153q46 92 122 138.5t180 46.5q44 0 87.5 -8.5t75.5 -22.5l-43 -90q-29 14 -65.5 21t-71.5 7q-72 0 -137.5 -37.5t-106.5 -97t-41 -126.5v-702h-106zM440 1200l-61 42l169 365l91 -64z" />
    <glyph glyph-name="uni0156" unicode="&#x156;" horiz-adv-x="1370" 
d="M280 0v1650h395q160 0 276 -55.5t179.5 -158t63.5 -244.5q0 -135 -57 -237t-160.5 -163t-245.5 -71l551 -721h-139l-539 713h-215v-713h-109zM389 810h266q131 0 227.5 47t149.5 132t53 201q0 172 -115 271t-315 99h-266v-750zM650 -458l-20 17q23 32 36.5 75.5
t14.5 98.5q-27 2 -45.5 21.5t-18.5 46.5q0 30 19 49t51 19q33 0 50 -22.5t17 -69.5q0 -63 -31 -133t-73 -102z" />
    <glyph glyph-name="uni0157" unicode="&#x157;" horiz-adv-x="866" 
d="M224 0v1024h106v-153q46 92 122 138.5t180 46.5q44 0 87.5 -8.5t75.5 -22.5l-43 -90q-29 14 -65.5 21t-71.5 7q-72 0 -137.5 -37.5t-106.5 -97t-41 -126.5v-702h-106zM402 -458l-20 17q23 32 36.5 75.5t14.5 98.5q-27 2 -45.5 21.5t-18.5 46.5q0 30 19 49t51 19
q33 0 50 -22.5t17 -69.5q0 -63 -31 -133t-73 -102z" />
    <glyph glyph-name="Rcaron" unicode="&#x158;" horiz-adv-x="1370" 
d="M280 0v1650h395q160 0 276 -55.5t179.5 -158t63.5 -244.5q0 -135 -57 -237t-160.5 -163t-245.5 -71l551 -721h-139l-539 713h-215v-713h-109zM389 810h266q131 0 227.5 47t149.5 132t53 201q0 172 -115 271t-315 99h-266v-750zM685 1859l-353 259l47 66l306 -224l306 224
l48 -66z" />
    <glyph glyph-name="rcaron" unicode="&#x159;" horiz-adv-x="866" 
d="M224 0v1024h106v-153q46 92 122 138.5t180 46.5q44 0 87.5 -8.5t75.5 -22.5l-43 -90q-29 14 -65.5 21t-71.5 7q-72 0 -137.5 -37.5t-106.5 -97t-41 -126.5v-702h-106zM442 1265l-353 259l47 66l306 -224l306 224l48 -66z" />
    <glyph glyph-name="Sacute" unicode="&#x15a;" horiz-adv-x="1368" 
d="M687 -32q-131 0 -227.5 41.5t-162 100t-102.5 113t-50 80.5l69 72q14 -27 48 -77t91 -102.5t140 -89.5t196 -37q107 0 197 39.5t145 117.5t55 193q0 96 -37.5 162t-101.5 111.5t-144 79t-166 64.5q-58 21 -124.5 51t-126 76.5t-97.5 115.5t-38 168q0 89 33 167.5t92 138
t141 93.5t180 34q102 0 183.5 -34.5t139.5 -87t88 -106.5l-64 -68q-25 48 -73.5 93t-118 74t-155.5 29q-110 0 -186.5 -49t-116.5 -125.5t-40 -159.5q0 -78 32 -131.5t83.5 -90t112.5 -61.5t120 -45q92 -33 180 -72t159.5 -93.5t113.5 -134.5t42 -195q0 -145 -68.5 -247
t-184 -155t-257.5 -53zM695 1807l-61 42l169 365l91 -64z" />
    <glyph glyph-name="sacute" unicode="&#x15b;" horiz-adv-x="983" 
d="M483 -32q-126 0 -221.5 66.5t-145.5 188.5l64 53q44 -105 123.5 -164t178.5 -59q69 0 128 29.5t94 83.5t35 129q0 67 -31 104.5t-91 64.5t-145 60q-66 26 -128.5 58.5t-103 83t-40.5 128.5q0 75 39.5 134t109 93.5t156.5 34.5q88 0 161.5 -40.5t125.5 -114.5l-58 -57
q-82 130 -229 130q-91 0 -148 -49t-57 -127q0 -56 32.5 -91.5t86.5 -60.5t119 -50q93 -35 161.5 -69t106 -86.5t37.5 -142.5q0 -100 -46.5 -174.5t-128 -115t-185.5 -40.5zM494 1196l-61 42l169 365l91 -64z" />
    <glyph glyph-name="Scedilla" unicode="&#x15e;" horiz-adv-x="1368" 
d="M687 -32q-131 0 -227.5 41.5t-162 100t-102.5 113t-50 80.5l69 72q14 -27 48 -77t91 -102.5t140 -89.5t196 -37q107 0 197 39.5t145 117.5t55 193q0 96 -37.5 162t-101.5 111.5t-144 79t-166 64.5q-58 21 -124.5 51t-126 76.5t-97.5 115.5t-38 168q0 89 33 167.5t92 138
t141 93.5t180 34q102 0 183.5 -34.5t139.5 -87t88 -106.5l-64 -68q-25 48 -73.5 93t-118 74t-155.5 29q-110 0 -186.5 -49t-116.5 -125.5t-40 -159.5q0 -78 32 -131.5t83.5 -90t112.5 -61.5t120 -45q92 -33 180 -72t159.5 -93.5t113.5 -134.5t42 -195q0 -145 -68.5 -247
t-184 -155t-257.5 -53zM689 -560q-82 0 -147 37t-103 103l57 36q60 -107 193 -107q74 0 120 38t46 98q0 56 -39 91t-103 35q-35 0 -75.5 -11t-68.5 -28l-6 5l86 263h67l-58 -179q31 5 51 5.5t38 -2.5q79 -3 129.5 -53t50.5 -126q0 -90 -67 -147.5t-171 -57.5z" />
    <glyph glyph-name="scedilla" unicode="&#x15f;" horiz-adv-x="983" 
d="M483 -32q-126 0 -221.5 66.5t-145.5 188.5l64 53q44 -105 123.5 -164t178.5 -59q69 0 128 29.5t94 83.5t35 129q0 67 -31 104.5t-91 64.5t-145 60q-66 26 -128.5 58.5t-103 83t-40.5 128.5q0 75 39.5 134t109 93.5t156.5 34.5q88 0 161.5 -40.5t125.5 -114.5l-58 -57
q-82 130 -229 130q-91 0 -148 -49t-57 -127q0 -56 32.5 -91.5t86.5 -60.5t119 -50q93 -35 161.5 -69t106 -86.5t37.5 -142.5q0 -100 -46.5 -174.5t-128 -115t-185.5 -40.5zM499 -560q-82 0 -147 37t-103 103l57 36q60 -107 193 -107q74 0 120 38t46 98q0 56 -39 91t-103 35
q-35 0 -75.5 -11t-68.5 -28l-6 5l86 263h67l-58 -179q31 5 51 5.5t38 -2.5q79 -3 129.5 -53t50.5 -126q0 -90 -67 -147.5t-171 -57.5z" />
    <glyph glyph-name="Scaron" unicode="&#x160;" horiz-adv-x="1368" 
d="M687 -32q-131 0 -227.5 41.5t-162 100t-102.5 113t-50 80.5l69 72q14 -27 48 -77t91 -102.5t140 -89.5t196 -37q107 0 197 39.5t145 117.5t55 193q0 96 -37.5 162t-101.5 111.5t-144 79t-166 64.5q-58 21 -124.5 51t-126 76.5t-97.5 115.5t-38 168q0 89 33 167.5t92 138
t141 93.5t180 34q102 0 183.5 -34.5t139.5 -87t88 -106.5l-64 -68q-25 48 -73.5 93t-118 74t-155.5 29q-110 0 -186.5 -49t-116.5 -125.5t-40 -159.5q0 -78 32 -131.5t83.5 -90t112.5 -61.5t120 -45q92 -33 180 -72t159.5 -93.5t113.5 -134.5t42 -195q0 -145 -68.5 -247
t-184 -155t-257.5 -53zM697 1872l-353 259l47 66l306 -224l306 224l48 -66z" />
    <glyph glyph-name="scaron" unicode="&#x161;" horiz-adv-x="983" 
d="M483 -32q-126 0 -221.5 66.5t-145.5 188.5l64 53q44 -105 123.5 -164t178.5 -59q69 0 128 29.5t94 83.5t35 129q0 67 -31 104.5t-91 64.5t-145 60q-66 26 -128.5 58.5t-103 83t-40.5 128.5q0 75 39.5 134t109 93.5t156.5 34.5q88 0 161.5 -40.5t125.5 -114.5l-58 -57
q-82 130 -229 130q-91 0 -148 -49t-57 -127q0 -56 32.5 -91.5t86.5 -60.5t119 -50q93 -35 161.5 -69t106 -86.5t37.5 -142.5q0 -100 -46.5 -174.5t-128 -115t-185.5 -40.5zM496 1261l-353 259l47 66l306 -224l306 224l48 -66z" />
    <glyph glyph-name="uni0162" unicode="&#x162;" horiz-adv-x="1419" 
d="M655 0v1548h-525v102h1160v-102h-526v-1548h-109zM709 -560q-82 0 -147 37t-103 103l57 36q60 -107 193 -107q74 0 120 38t46 98q0 56 -39 91t-103 35q-35 0 -75.5 -11t-68.5 -28l-6 5l86 263h67l-58 -179q31 5 51 5.5t38 -2.5q79 -3 129.5 -53t50.5 -126
q0 -90 -67 -147.5t-171 -57.5z" />
    <glyph glyph-name="uni0163" unicode="&#x163;" horiz-adv-x="717" 
d="M454 -32q-106 0 -163.5 72.5t-57.5 204.5v699h-97v80h97v382h106v-382h262v-80h-262v-694q0 -92 35 -140.5t100 -48.5q63 0 107 34l27 -85q-29 -19 -70 -30.5t-84 -11.5zM423 -560q-82 0 -147 37t-103 103l57 36q60 -107 193 -107q74 0 120 38t46 98q0 56 -39 91t-103 35
q-35 0 -75.5 -11t-68.5 -28l-6 5l86 263h67l-58 -179q31 5 51 5.5t38 -2.5q79 -3 129.5 -53t50.5 -126q0 -90 -67 -147.5t-171 -57.5z" />
    <glyph glyph-name="Tcaron" unicode="&#x164;" horiz-adv-x="1419" 
d="M655 0v1548h-525v102h1160v-102h-526v-1548h-109zM709 1859l-353 259l47 66l306 -224l306 224l48 -66z" />
    <glyph glyph-name="tcaron" unicode="&#x165;" horiz-adv-x="717" 
d="M454 -32q-106 0 -163.5 72.5t-57.5 204.5v699h-97v80h97v382h106v-382h262v-80h-262v-694q0 -92 35 -140.5t100 -48.5q63 0 107 34l27 -85q-29 -19 -70 -30.5t-84 -11.5zM372 1465l-353 259l47 66l306 -224l306 224l48 -66z" />
    <glyph glyph-name="Tbar" unicode="&#x166;" horiz-adv-x="1419" 
d="M655 0v1548h-525v102h1160v-102h-526v-1548h-109zM342 973v84h736v-84h-736z" />
    <glyph glyph-name="tbar" unicode="&#x167;" horiz-adv-x="717" 
d="M454 -32q-106 0 -163.5 72.5t-57.5 204.5v513h-97v66h97v148h-97v66h97v368h106v-368h262v-66h-262v-148h262v-66h-262v-508q0 -92 35 -140.5t100 -48.5q63 0 107 34l27 -85q-29 -19 -70 -30.5t-84 -11.5z" />
    <glyph glyph-name="Umacron" unicode="&#x16a;" horiz-adv-x="1628" 
d="M815 -32q-279 0 -418.5 156.5t-139.5 467.5v1058h109v-1039q0 -266 113 -400.5t336 -134.5q222 0 335 134.5t113 400.5v1039h109v-1058q0 -311 -139 -467.5t-418 -156.5zM407 1974v78h816v-78h-816z" />
    <glyph glyph-name="umacron" unicode="&#x16b;" horiz-adv-x="1232" 
d="M616 -32q-222 0 -316 103.5t-94 347.5v605h106v-590q0 -202 70 -288.5t234 -86.5t233.5 86.5t69.5 288.5v590h106v-605q0 -244 -93.5 -347.5t-315.5 -103.5zM208 1350v78h816v-78h-816z" />
    <glyph glyph-name="Uring" unicode="&#x16e;" horiz-adv-x="1628" 
d="M815 -32q-279 0 -418.5 156.5t-139.5 467.5v1058h109v-1039q0 -266 113 -400.5t336 -134.5q222 0 335 134.5t113 400.5v1039h109v-1058q0 -311 -139 -467.5t-418 -156.5zM815 1898q-59 0 -108 24t-78 67.5t-29 98.5v0q0 56 29 99t78 67.5t109 24.5t108.5 -24.5
t77.5 -67.5t29 -99q0 -55 -29 -98.5t-78 -67.5t-109 -24zM815 1968q60 0 99.5 34t39.5 86q0 53 -39.5 87t-99.5 34q-58 0 -98 -34t-40 -87v0q0 -52 40 -86t98 -34z" />
    <glyph glyph-name="uring" unicode="&#x16f;" horiz-adv-x="1232" 
d="M616 -32q-222 0 -316 103.5t-94 347.5v605h106v-590q0 -202 70 -288.5t234 -86.5t233.5 86.5t69.5 288.5v590h106v-605q0 -244 -93.5 -347.5t-315.5 -103.5zM616 1274q-59 0 -108 24t-78 67.5t-29 98.5v0q0 56 29 99t78 67.5t109 24.5t108.5 -24.5t77.5 -67.5t29 -99
q0 -55 -29 -98.5t-78 -67.5t-109 -24zM616 1344q60 0 99.5 34t39.5 86q0 53 -39.5 87t-99.5 34q-58 0 -98 -34t-40 -87v0q0 -52 40 -86t98 -34z" />
    <glyph glyph-name="Uhungarumlaut" unicode="&#x170;" horiz-adv-x="1628" 
d="M815 -32q-279 0 -418.5 156.5t-139.5 467.5v1058h109v-1039q0 -266 113 -400.5t336 -134.5q222 0 335 134.5t113 400.5v1039h109v-1058q0 -311 -139 -467.5t-418 -156.5zM944 2043l-58 61l198 200l90 -90zM625 2043l-57 61l200 200l88 -90z" />
    <glyph glyph-name="uhungarumlaut" unicode="&#x171;" horiz-adv-x="1232" 
d="M616 -32q-222 0 -316 103.5t-94 347.5v605h106v-590q0 -202 70 -288.5t234 -86.5t233.5 86.5t69.5 288.5v590h106v-605q0 -244 -93.5 -347.5t-315.5 -103.5zM745 1419l-58 61l198 200l90 -90zM426 1419l-57 61l200 200l88 -90z" />
    <glyph glyph-name="Uogonek" unicode="&#x172;" horiz-adv-x="1628" 
d="M815 -32q-279 0 -418.5 156.5t-139.5 467.5v1058h109v-1039q0 -266 113 -400.5t336 -134.5q222 0 335 134.5t113 400.5v1039h109v-1058q0 -311 -139 -467.5t-418 -156.5zM863 -558q-109 0 -179.5 66t-70.5 158q0 70 48 155.5t135 179.5h70q-83 -90 -129 -176t-46 -149
t46 -110.5t136 -47.5q60 0 112.5 25.5t101.5 80.5l52 -38q-46 -67 -120 -105.5t-156 -38.5z" />
    <glyph glyph-name="uogonek" unicode="&#x173;" horiz-adv-x="1232" 
d="M616 -32q-222 0 -316 103.5t-94 347.5v605h106v-590q0 -202 70 -288.5t234 -86.5t233.5 86.5t69.5 288.5v590h106v-605q0 -244 -93.5 -347.5t-315.5 -103.5zM658 -548q-109 0 -179.5 66t-70.5 158q0 70 48 155.5t135 179.5h70q-83 -90 -129 -176t-46 -149t46 -110.5
t136 -47.5q60 0 112.5 25.5t101.5 80.5l52 -38q-46 -67 -120 -105.5t-156 -38.5z" />
    <glyph glyph-name="Wcircumflex" unicode="&#x174;" horiz-adv-x="2517" 
d="M633 0l-493 1650h121l437 -1514l517 1514h87l517 -1514l437 1514h121l-494 -1650h-124l-500 1433l-501 -1433h-125zM952 1980l-47 65l353 259l354 -259l-48 -65l-306 224z" />
    <glyph glyph-name="wcircumflex" unicode="&#x175;" horiz-adv-x="1951" 
d="M570 0l-487 1024h121l399 -864l338 864h70l337 -864l399 864h121l-486 -1024h-70l-336 848l-337 -848h-69zM669 1356l-47 65l353 259l354 -259l-48 -65l-306 224z" />
    <glyph glyph-name="Ycircumflex" unicode="&#x176;" horiz-adv-x="1471" 
d="M681 0v710l-560 940h132l482 -820l483 820h132l-560 -940v-710h-109zM429 1980l-47 65l353 259l354 -259l-48 -65l-306 224z" />
    <glyph glyph-name="ycircumflex" unicode="&#x177;" horiz-adv-x="1225" 
d="M338 -520l232 520l-488 1024h120l428 -911l390 911h120l-684 -1544h-118zM306 1356l-47 65l353 259l354 -259l-48 -65l-306 224z" />
    <glyph glyph-name="Ydieresis" unicode="&#x178;" horiz-adv-x="1471" 
d="M681 0v710l-560 940h132l482 -820l483 820h132l-560 -940v-710h-109zM972 1951q-29 0 -50 21t-21 50t21 50t50 21t50 -21t21 -50t-21 -50t-50 -21zM500 1951q-29 0 -50 21t-21 50t21 50t50 21t50 -21t21 -50t-21 -50t-50 -21z" />
    <glyph glyph-name="Zacute" unicode="&#x179;" horiz-adv-x="1596" 
d="M129 0l1128 1548h-1015v102h1218l-1128 -1548h1072v-102h-1275zM796 1794l-61 42l169 365l91 -64z" />
    <glyph glyph-name="zacute" unicode="&#x17a;" horiz-adv-x="1201" 
d="M90 0l805 932h-729v92h933l-807 -932h787v-92h-989zM598 1170l-61 42l169 365l91 -64z" />
    <glyph glyph-name="Zdotaccent" unicode="&#x17b;" horiz-adv-x="1596" 
d="M129 0l1128 1548h-1015v102h1218l-1128 -1548h1072v-102h-1275zM800 2023q-21 0 -38 10t-27 27t-10 38q0 20 10 36.5t27 27t38 10.5q20 0 36.5 -10.5t27 -27t10.5 -36.5q0 -21 -10.5 -38t-27 -27t-36.5 -10z" />
    <glyph glyph-name="zdotaccent" unicode="&#x17c;" horiz-adv-x="1201" 
d="M90 0l805 932h-729v92h933l-807 -932h787v-92h-989zM601 1399q-21 0 -38 10t-27 27t-10 38q0 20 10 36.5t27 27t38 10.5q20 0 36.5 -10.5t27 -27t10.5 -36.5q0 -21 -10.5 -38t-27 -27t-36.5 -10z" />
    <glyph glyph-name="Zcaron" unicode="&#x17d;" horiz-adv-x="1596" 
d="M129 0l1128 1548h-1015v102h1218l-1128 -1548h1072v-102h-1275zM798 1859l-353 259l47 66l306 -224l306 224l48 -66z" />
    <glyph glyph-name="zcaron" unicode="&#x17e;" horiz-adv-x="1201" 
d="M90 0l805 932h-729v92h933l-807 -932h787v-92h-989zM600 1235l-353 259l47 66l306 -224l306 224l48 -66z" />
    <glyph glyph-name="florin" unicode="&#x192;" horiz-adv-x="919" 
d="M73 -551q-52 0 -95 13.5t-74 40.5l45 76q41 -37 115 -37q84 0 134.5 59t61.5 172l121 1171h-95l8 80h94l41 395q11 108 48 182t99 111.5t147 37.5q53 0 95.5 -13.5t73.5 -40.5l-45 -76q-42 37 -115 37q-83 0 -134 -59t-62 -172l-42 -402h266l-7 -80h-266l-120 -1164
q-11 -108 -48.5 -182t-99 -111.5t-146.5 -37.5z" />
    <glyph glyph-name="uni0218" unicode="&#x218;" horiz-adv-x="1368" 
d="M687 -32q-131 0 -227.5 41.5t-162 100t-102.5 113t-50 80.5l69 72q14 -27 48 -77t91 -102.5t140 -89.5t196 -37q107 0 197 39.5t145 117.5t55 193q0 96 -37.5 162t-101.5 111.5t-144 79t-166 64.5q-58 21 -124.5 51t-126 76.5t-97.5 115.5t-38 168q0 89 33 167.5t92 138
t141 93.5t180 34q102 0 183.5 -34.5t139.5 -87t88 -106.5l-64 -68q-25 48 -73.5 93t-118 74t-155.5 29q-110 0 -186.5 -49t-116.5 -125.5t-40 -159.5q0 -78 32 -131.5t83.5 -90t112.5 -61.5t120 -45q92 -33 180 -72t159.5 -93.5t113.5 -134.5t42 -195q0 -145 -68.5 -247
t-184 -155t-257.5 -53zM681 -458l-20 17q23 32 36.5 75.5t14.5 98.5q-27 2 -45.5 21.5t-18.5 46.5q0 30 19 49t51 19q33 0 50 -22.5t17 -69.5q0 -63 -31 -133t-73 -102z" />
    <glyph glyph-name="uni0219" unicode="&#x219;" horiz-adv-x="983" 
d="M483 -32q-126 0 -221.5 66.5t-145.5 188.5l64 53q44 -105 123.5 -164t178.5 -59q69 0 128 29.5t94 83.5t35 129q0 67 -31 104.5t-91 64.5t-145 60q-66 26 -128.5 58.5t-103 83t-40.5 128.5q0 75 39.5 134t109 93.5t156.5 34.5q88 0 161.5 -40.5t125.5 -114.5l-58 -57
q-82 130 -229 130q-91 0 -148 -49t-57 -127q0 -56 32.5 -91.5t86.5 -60.5t119 -50q93 -35 161.5 -69t106 -86.5t37.5 -142.5q0 -100 -46.5 -174.5t-128 -115t-185.5 -40.5zM490 -458l-20 17q23 32 36.5 75.5t14.5 98.5q-27 2 -45.5 21.5t-18.5 46.5q0 30 19 49t51 19
q33 0 50 -22.5t17 -69.5q0 -63 -31 -133t-73 -102z" />
    <glyph glyph-name="uni021A" unicode="&#x21a;" horiz-adv-x="1419" 
d="M655 0v1548h-525v102h1160v-102h-526v-1548h-109zM700 -458l-20 17q23 32 36.5 75.5t14.5 98.5q-27 2 -45.5 21.5t-18.5 46.5q0 30 19 49t51 19q33 0 50 -22.5t17 -69.5q0 -63 -31 -133t-73 -102z" />
    <glyph glyph-name="uni021B" unicode="&#x21b;" horiz-adv-x="717" 
d="M454 -32q-106 0 -163.5 72.5t-57.5 204.5v699h-97v80h97v382h106v-382h262v-80h-262v-694q0 -92 35 -140.5t100 -48.5q63 0 107 34l27 -85q-29 -19 -70 -30.5t-84 -11.5zM414 -458l-20 17q23 32 36.5 75.5t14.5 98.5q-27 2 -45.5 21.5t-18.5 46.5q0 30 19 49t51 19
q33 0 50 -22.5t17 -69.5q0 -63 -31 -133t-73 -102z" />
    <glyph glyph-name="circumflex" unicode="&#x2c6;" horiz-adv-x="707" 
d="M47 1356l-47 65l353 259l354 -259l-48 -65l-306 224z" />
    <glyph glyph-name="caron" unicode="&#x2c7;" horiz-adv-x="707" 
d="M353 1235l-353 259l47 66l306 -224l306 224l48 -66z" />
    <glyph glyph-name="breve" unicode="&#x2d8;" horiz-adv-x="804" 
d="M402 1346q-102 0 -186.5 39t-140.5 110t-75 165l84 20q15 -74 58.5 -131.5t109.5 -90t150 -32.5q83 0 149.5 32.5t110 90t58.5 131.5l84 -20q-19 -94 -75 -165t-140.5 -110t-186.5 -39z" />
    <glyph glyph-name="dotaccent" unicode="&#x2d9;" horiz-adv-x="149" 
d="M75 1399q-21 0 -38 10t-27 27t-10 38q0 20 10 36.5t27 27t38 10.5q20 0 36.5 -10.5t27 -27t10.5 -36.5q0 -21 -10.5 -38t-27 -27t-36.5 -10z" />
    <glyph glyph-name="ring" unicode="&#x2da;" horiz-adv-x="431" 
d="M215 1274q-59 0 -108 24t-78 67.5t-29 98.5v0q0 56 29 99t78 67.5t109 24.5t108.5 -24.5t77.5 -67.5t29 -99q0 -55 -29 -98.5t-78 -67.5t-109 -24zM215 1344q60 0 99.5 34t39.5 86q0 53 -39.5 87t-99.5 34q-58 0 -98 -34t-40 -87v0q0 -52 40 -86t98 -34z" />
    <glyph glyph-name="ogonek" unicode="&#x2db;" horiz-adv-x="526" 
d="M250 -533q-109 0 -179.5 66t-70.5 158q0 70 48 155.5t135 179.5h70q-83 -90 -129 -176t-46 -149t46 -110.5t136 -47.5q60 0 112.5 25.5t101.5 80.5l52 -38q-46 -67 -120 -105.5t-156 -38.5z" />
    <glyph glyph-name="tilde" unicode="&#x2dc;" horiz-adv-x="989" 
d="M690 1291q-66 0 -115 24t-91.5 56t-88.5 56t-106 24q-82 0 -138.5 -46.5t-89.5 -108.5l-61 55q45 78 118 132t169 54q68 0 119 -24t94 -56t89 -56t103 -24q70 0 129 41t97 113l61 -54q-34 -59 -80 -101t-99.5 -63.5t-109.5 -21.5z" />
    <glyph glyph-name="hungarumlaut" unicode="&#x2dd;" horiz-adv-x="639" 
d="M376 1419l-58 61l198 200l90 -90zM57 1419l-57 61l200 200l88 -90z" />
    <glyph glyph-name="gravecomb" unicode="&#x300;" horiz-adv-x="0" 
d="M199 1170l-199 343l92 64l168 -365z" />
    <glyph glyph-name="acutecomb" unicode="&#x301;" horiz-adv-x="0" 
d="M61 1170l-61 42l169 365l91 -64z" />
    <glyph glyph-name="uni0302" unicode="&#x302;" horiz-adv-x="0" 
d="M47 1356l-47 65l353 259l354 -259l-48 -65l-306 224z" />
    <glyph glyph-name="tildecomb" unicode="&#x303;" horiz-adv-x="0" 
d="M690 1291q-66 0 -115 24t-91.5 56t-88.5 56t-106 24q-82 0 -138.5 -46.5t-89.5 -108.5l-61 55q45 78 118 132t169 54q68 0 119 -24t94 -56t89 -56t103 -24q70 0 129 41t97 113l61 -54q-34 -59 -80 -101t-99.5 -63.5t-109.5 -21.5z" />
    <glyph glyph-name="uni0304" unicode="&#x304;" horiz-adv-x="0" 
d="M0 1350v78h816v-78h-816z" />
    <glyph glyph-name="uni0306" unicode="&#x306;" horiz-adv-x="0" 
d="M402 1346q-102 0 -186.5 39t-140.5 110t-75 165l84 20q15 -74 58.5 -131.5t109.5 -90t150 -32.5q83 0 149.5 32.5t110 90t58.5 131.5l84 -20q-19 -94 -75 -165t-140.5 -110t-186.5 -39z" />
    <glyph glyph-name="uni0307" unicode="&#x307;" horiz-adv-x="0" 
d="M75 1399q-21 0 -38 10t-27 27t-10 38q0 20 10 36.5t27 27t38 10.5q20 0 36.5 -10.5t27 -27t10.5 -36.5q0 -21 -10.5 -38t-27 -27t-36.5 -10z" />
    <glyph glyph-name="uni0308" unicode="&#x308;" horiz-adv-x="0" 
d="M543 1327q-29 0 -50 21t-21 50t21 50t50 21t50 -21t21 -50t-21 -50t-50 -21zM71 1327q-29 0 -50 21t-21 50t21 50t50 21t50 -21t21 -50t-21 -50t-50 -21z" />
    <glyph glyph-name="uni030A" unicode="&#x30a;" horiz-adv-x="0" 
d="M215 1274q-59 0 -108 24t-78 67.5t-29 98.5v0q0 56 29 99t78 67.5t109 24.5t108.5 -24.5t77.5 -67.5t29 -99q0 -55 -29 -98.5t-78 -67.5t-109 -24zM215 1344q60 0 99.5 34t39.5 86q0 53 -39.5 87t-99.5 34q-58 0 -98 -34t-40 -87v0q0 -52 40 -86t98 -34z" />
    <glyph glyph-name="uni030B" unicode="&#x30b;" horiz-adv-x="0" 
d="M376 1419l-58 61l198 200l90 -90zM57 1419l-57 61l200 200l88 -90z" />
    <glyph glyph-name="uni030C" unicode="&#x30c;" horiz-adv-x="0" 
d="M353 1235l-353 259l47 66l306 -224l306 224l48 -66z" />
    <glyph glyph-name="uni0312" unicode="&#x312;" horiz-adv-x="0" 
d="M360 1355q-32 0 -49 19.5t-17 58.5q0 54 29 112.5t70 86.5l23 -15q-20 -27 -32.5 -63t-14.5 -82q26 -1 42.5 -18t16.5 -40q0 -26 -19 -42.5t-49 -16.5z" />
    <glyph glyph-name="uni0326" unicode="&#x326;" horiz-adv-x="0" 
d="M317 -458l-20 17q23 32 36.5 75.5t14.5 98.5q-27 2 -45.5 21.5t-18.5 46.5q0 30 19 49t51 19q33 0 50 -22.5t17 -69.5q0 -63 -31 -133t-73 -102z" />
    <glyph glyph-name="uni0327" unicode="&#x327;" horiz-adv-x="0" 
d="M250 -534q-82 0 -147 37t-103 103l57 36q60 -107 193 -107q74 0 120 38t46 98q0 56 -39 91t-103 35q-35 0 -75.5 -11t-68.5 -28l-6 5l86 263h67l-58 -179q31 5 51 5.5t38 -2.5q79 -3 129.5 -53t50.5 -126q0 -90 -67 -147.5t-171 -57.5z" />
    <glyph glyph-name="uni0328" unicode="&#x328;" horiz-adv-x="0" 
d="M250 -533q-109 0 -179.5 66t-70.5 158q0 70 48 155.5t135 179.5h70q-83 -90 -129 -176t-46 -149t46 -110.5t136 -47.5q60 0 112.5 25.5t101.5 80.5l52 -38q-46 -67 -120 -105.5t-156 -38.5z" />
    <glyph glyph-name="uni0394" unicode="&#x394;" horiz-adv-x="1633" 
d="M313 0l-33 22l498 1273h78l498 -1273l-33 -22h-1008zM381 76h871l-425 1123h-20z" />
    <glyph glyph-name="uni03A9" unicode="&#x3a9;" horiz-adv-x="1196" 
d="M165 0v84l224 -5q-109 70 -174 199t-65 281q0 150 60 269t161.5 188t226.5 69t226.5 -69.5t161.5 -188.5t60 -267q0 -153 -64.5 -282t-174.5 -199l224 5v-84h-389v78l12 2q54 5 104.5 46t91.5 107t65 148.5t24 169.5q0 119 -45 218t-121.5 158t-174.5 59
q-96 0 -173.5 -59t-122.5 -158t-45 -220q0 -87 24 -168.5t64.5 -147.5t91.5 -107t105 -46l12 -2v-78h-389z" />
    <glyph glyph-name="uni03BC" unicode="&#x3bc;" horiz-adv-x="1482" 
d="M311 -320q0 126 5 220.5t12 176.5t12.5 168.5t5.5 195.5v585h106v-617q0 -167 75.5 -260t234.5 -93q97 0 166 42.5t105.5 108.5t36.5 135v684h106v-1026h-106v146q-28 -62 -82.5 -101t-119 -58t-121.5 -19q-112 0 -184 38t-112 104v-430h-140z" />
    <glyph glyph-name="pi" unicode="&#x3c0;" horiz-adv-x="1276" 
d="M396 0v938h-172v88h846v-88h-172v-753q0 -53 19 -73t69 -20v-92q-98 0 -139 40t-41 134v764h-318v-938h-92z" />
    <glyph glyph-name="Wgrave" unicode="&#x1e80;" horiz-adv-x="2517" 
d="M633 0l-493 1650h121l437 -1514l517 1514h87l517 -1514l437 1514h121l-494 -1650h-124l-500 1433l-501 -1433h-125zM1324 1794l-199 343l92 64l168 -365z" />
    <glyph glyph-name="wgrave" unicode="&#x1e81;" horiz-adv-x="1951" 
d="M570 0l-487 1024h121l399 -864l338 864h70l337 -864l399 864h121l-486 -1024h-70l-336 848l-337 -848h-69zM1041 1170l-199 343l92 64l168 -365z" />
    <glyph glyph-name="Wacute" unicode="&#x1e82;" horiz-adv-x="2517" 
d="M633 0l-493 1650h121l437 -1514l517 1514h87l517 -1514l437 1514h121l-494 -1650h-124l-500 1433l-501 -1433h-125zM1257 1794l-61 42l169 365l91 -64z" />
    <glyph glyph-name="wacute" unicode="&#x1e83;" horiz-adv-x="1951" 
d="M570 0l-487 1024h121l399 -864l338 864h70l337 -864l399 864h121l-486 -1024h-70l-336 848l-337 -848h-69zM974 1170l-61 42l169 365l91 -64z" />
    <glyph glyph-name="Wdieresis" unicode="&#x1e84;" horiz-adv-x="2517" 
d="M633 0l-493 1650h121l437 -1514l517 1514h87l517 -1514l437 1514h121l-494 -1650h-124l-500 1433l-501 -1433h-125zM1495 1951q-29 0 -50 21t-21 50t21 50t50 21t50 -21t21 -50t-21 -50t-50 -21zM1023 1951q-29 0 -50 21t-21 50t21 50t50 21t50 -21t21 -50t-21 -50
t-50 -21z" />
    <glyph glyph-name="wdieresis" unicode="&#x1e85;" horiz-adv-x="1951" 
d="M570 0l-487 1024h121l399 -864l338 864h70l337 -864l399 864h121l-486 -1024h-70l-336 848l-337 -848h-69zM1212 1327q-29 0 -50 21t-21 50t21 50t50 21t50 -21t21 -50t-21 -50t-50 -21zM740 1327q-29 0 -50 21t-21 50t21 50t50 21t50 -21t21 -50t-21 -50t-50 -21z" />
    <glyph glyph-name="uni1E9E" unicode="&#x1e9e;" horiz-adv-x="1523" 
d="M913 -32q-96 0 -184 34.5t-188 105.5l38 101q86 -64 164.5 -99.5t168.5 -35.5q92 0 167 39t119 111.5t44 170.5q0 82 -30.5 136.5t-78 91t-101 64t-101 55.5t-78 64.5t-30.5 91.5q0 47 21.5 78t53 58t62.5 58.5t52.5 77t21.5 117.5q0 136 -83 209.5t-210 73.5
q-170 0 -261 -128t-91 -352v-1090h-109v1089q0 179 54 312t158.5 206.5t255.5 73.5q116 0 207 -44.5t143.5 -128.5t52.5 -204q0 -80 -21.5 -133t-53 -88.5t-63.5 -62.5t-53 -53t-21 -61q0 -41 29.5 -69.5t77 -53t100 -54t100 -71.5t77.5 -105.5t30 -156.5q0 -123 -56.5 -220
t-156 -152.5t-227.5 -55.5z" />
    <glyph glyph-name="Ygrave" unicode="&#x1ef2;" horiz-adv-x="1471" 
d="M681 0v710l-560 940h132l482 -820l483 820h132l-560 -940v-710h-109zM801 1794l-199 343l92 64l168 -365z" />
    <glyph glyph-name="ygrave" unicode="&#x1ef3;" horiz-adv-x="1225" 
d="M338 -520l232 520l-488 1024h120l428 -911l390 911h120l-684 -1544h-118zM678 1170l-199 343l92 64l168 -365z" />
    <glyph glyph-name="endash" unicode="&#x2013;" horiz-adv-x="1275" 
d="M224 534v90h827v-90h-827z" />
    <glyph glyph-name="emdash" unicode="&#x2014;" horiz-adv-x="2060" 
d="M224 534v90h1612v-90h-1612z" />
    <glyph glyph-name="quoteleft" unicode="&#x2018;" horiz-adv-x="626" 
d="M313 1348q-35 0 -58.5 24t-23.5 70q0 62 37 130.5t85 105.5l24 -21q-15 -19 -26.5 -44.5t-18.5 -55.5t-8 -62q28 -4 47 -24t19 -49q0 -32 -21.5 -53t-55.5 -21z" />
    <glyph glyph-name="quoteright" unicode="&#x2019;" horiz-adv-x="624" 
d="M272 1350l-23 21q15 20 26 45t18 55t8 63q-27 3 -46 23.5t-19 48.5q0 33 21 53.5t55 20.5q35 0 58.5 -24t23.5 -70q0 -61 -36.5 -130t-85.5 -106z" />
    <glyph glyph-name="quotesinglbase" unicode="&#x201a;" horiz-adv-x="718" 
d="M270 -208l-24 20q15 20 26 45.5t18.5 55.5t8.5 62q-28 3 -47 24t-19 49q0 32 21 53t55 21q35 0 58.5 -24.5t23.5 -70.5q0 -61 -36.5 -129.5t-84.5 -105.5z" />
    <glyph glyph-name="quotedblleft" unicode="&#x201c;" horiz-adv-x="850" 
d="M530 1348q-36 0 -59 24t-23 70q0 62 37 130.5t84 105.5l24 -21q-15 -19 -26.5 -44.5t-18.5 -55.5t-8 -62q29 -4 47.5 -24t18.5 -49q0 -32 -21 -53t-55 -21zM320 1348q-36 0 -59 24t-23 70q0 62 36.5 130.5t84.5 105.5l24 -21q-15 -19 -26.5 -44.5t-18.5 -55.5t-8 -62
q29 -4 47.5 -24t18.5 -49q0 -32 -21 -53t-55 -21z" />
    <glyph glyph-name="quotedblright" unicode="&#x201d;" horiz-adv-x="848" 
d="M489 1350l-24 21q15 20 26 45t18 55t9 63q-28 3 -47 23.5t-19 48.5q0 33 21 53.5t55 20.5q36 0 59 -24t23 -70q0 -62 -36.5 -130.5t-84.5 -105.5zM278 1350l-23 21q15 20 26 45t18.5 55t8.5 63q-28 3 -47 23.5t-19 48.5q0 33 21 53.5t55 20.5q35 0 58.5 -24t23.5 -70
q0 -62 -36.5 -130.5t-85.5 -105.5z" />
    <glyph glyph-name="quotedblbase" unicode="&#x201e;" horiz-adv-x="815" 
d="M262 -208l-24 20q15 20 26 45.5t18.5 55.5t8.5 62q-28 3 -47 24t-19 49q0 32 21 53t55 21q36 0 59 -24.5t23 -70.5q0 -61 -36.5 -129.5t-84.5 -105.5zM472 -208l-24 20q15 20 26 45.5t18.5 55.5t8.5 62q-28 3 -47 24t-19 49q0 32 21 53t55 21q35 0 58.5 -24.5t23.5 -70.5
q0 -61 -36.5 -129.5t-84.5 -105.5z" />
    <glyph glyph-name="dagger" unicode="&#x2020;" horiz-adv-x="1200" 
d="M551 0v1118h-353v92h353v510h98v-510h353v-92h-353v-1118h-98z" />
    <glyph glyph-name="daggerdbl" unicode="&#x2021;" horiz-adv-x="1248" 
d="M575 0v550h-353v92h353v469h-353v92h353v517h98v-517h353v-92h-353v-469h353v-92h-353v-550h-98z" />
    <glyph glyph-name="bullet" unicode="&#x2022;" horiz-adv-x="808" 
d="M404 601q-31 0 -57.5 15t-42 40.5t-15.5 57.5t15.5 57.5t42 40.5t57.5 15q32 0 57.5 -15t41 -40.5t15.5 -57.5t-15.5 -57.5t-41 -40.5t-57.5 -15z" />
    <glyph glyph-name="ellipsis" unicode="&#x2026;" horiz-adv-x="1328" 
d="M375 -32q-21 0 -39 10.5t-28.5 28.5t-10.5 40q0 21 10.5 38.5t28.5 28.5t39 11q22 0 39.5 -11t28 -28.5t10.5 -38.5q0 -22 -10.5 -40t-28 -28.5t-39.5 -10.5zM665 -32q-22 0 -39.5 10.5t-28.5 28.5t-11 40q0 21 11 38.5t28.5 28.5t39.5 11q21 0 39 -10.5t28.5 -28.5
t10.5 -40q0 -21 -10.5 -39t-28.5 -28.5t-39 -10.5zM953 -32q-22 0 -39.5 10.5t-28.5 28.5t-11 40q0 21 11 39t28.5 28.5t39.5 10.5q21 0 39 -10.5t28.5 -28.5t10.5 -40q0 -21 -10.5 -39t-28.5 -28.5t-39 -10.5z" />
    <glyph glyph-name="perthousand" unicode="&#x2030;" horiz-adv-x="3188" 
d="M615 892q-115 0 -206 50t-145 139t-54 205t54 205t145 139t206 50q113 0 204 -50t144.5 -139t53.5 -205t-53.5 -205t-144.5 -139t-204 -50zM577 0l960 1650h88l-960 -1650h-88zM614 971q90 0 160.5 40.5t111 111.5t40.5 163t-40.5 163t-111 111.5t-159.5 40.5
q-90 0 -160.5 -40.5t-111 -111.5t-40.5 -163q0 -93 41 -164t111 -111t159 -40zM1590 -32q-114 0 -205.5 50t-145 139t-53.5 205t53.5 205t145 139t205.5 50t205.5 -50t144.5 -139t53 -205t-53 -205t-144.5 -139t-205.5 -50zM2574 -32q-114 0 -205 50t-144.5 139t-53.5 205
t53.5 205t144.5 139t205 50t205.5 -50t145 -139t53.5 -205t-53.5 -205t-145 -139t-205.5 -50zM1590 48q90 0 160 40t111 111t41 164q0 92 -41 162.5t-111 111t-160 40.5t-160 -40.5t-110.5 -111t-40.5 -162.5q0 -93 40.5 -164t110.5 -111t160 -40zM2574 48q90 0 160 40
t110.5 111t40.5 164q0 92 -40.5 162.5t-110.5 111t-160 40.5q-89 0 -159.5 -40.5t-111.5 -111t-41 -162.5q0 -93 41 -164t111.5 -111t159.5 -40z" />
    <glyph glyph-name="guilsinglleft" unicode="&#x2039;" horiz-adv-x="758" 
d="M532 56l-390 500l390 500l70 -54l-348 -446l348 -446z" />
    <glyph glyph-name="guilsinglright" unicode="&#x203a;" horiz-adv-x="757" 
d="M225 56l-70 54l348 446l-348 446l70 54l390 -500z" />
    <glyph glyph-name="fraction" unicode="&#x2044;" horiz-adv-x="40" 
d="M-595 0l1133 1650h96l-1132 -1650h-97z" />
    <glyph glyph-name="uni2074" unicode="&#x2074;" horiz-adv-x="522" 
d="M364 1040v114h-339v29l340 467h53v-446h79v-50h-79v-114h-54zM102 1204h262v366z" />
    <glyph glyph-name="Euro" unicode="&#x20ac;" horiz-adv-x="2000" 
d="M1240 -30q-205 0 -378.5 81t-293.5 227t-165 340h-167v74h152q-5 32 -8 66t-3 68q0 32 3 64.5t8 63.5h-152v74h167q34 144 113 263t191 206t248 135t285 48q145 0 282 -45t248 -130l-56 -92q-98 77 -217 118t-247 41q-170 0 -317.5 -69t-252.5 -191t-149 -284h951v-74
h-974q-6 -35 -9.5 -67t-3.5 -61q0 -30 3.5 -63t9.5 -71h974v-74h-953q43 -164 146.5 -285t251 -188t323.5 -67q129 0 248.5 40t216.5 115l57 -90q-109 -84 -245.5 -128.5t-286.5 -44.5z" />
    <glyph glyph-name="trademark" unicode="&#x2122;" horiz-adv-x="1416" 
d="M584 1134l65 516h56l147 -395l151 395h56l65 -516h-52l-57 417l-142 -388h-38l-144 388l-54 -417h-53zM367 1134v469h-155v47h363v-47h-154v-469h-54z" />
    <glyph glyph-name="uni2150" unicode="&#x2150;" horiz-adv-x="2147" 
d="M301 600v961h-58v89h145v-1050h-87zM258 0l1133 1650h96l-1132 -1650h-97zM1267 0l550 970h-541v80h675v-31l-577 -1019h-107z" />
    <glyph glyph-name="uni2151" unicode="&#x2151;" horiz-adv-x="2358" 
d="M301 600v961h-58v89h145v-1050h-87zM258 0l1133 1650h96l-1132 -1650h-97zM1396 0l382 400q-36 -22 -80 -33.5t-94 -11.5q-104 0 -195 46t-147.5 128t-56.5 191q0 102 53 183.5t147.5 129t218.5 47.5t218 -47.5t148 -129t55 -184.5q1 -62 -17 -115.5t-47.5 -97.5
t-61.5 -77l-411 -429h-112zM1623 436q92 0 166 39t117.5 104.5t43.5 144.5q0 76 -40.5 138.5t-113 100t-169.5 37.5q-94 0 -168.5 -36t-117.5 -99t-43 -144q0 -84 44.5 -148t119 -100.5t161.5 -36.5z" />
    <glyph glyph-name="uni2152" unicode="&#x2152;" horiz-adv-x="2951" 
d="M301 600v961h-58v89h145v-1050h-87zM258 0l1133 1650h96l-1132 -1650h-97zM1351 0v961h-58v89h145v-1050h-87zM2259 -21q-156 0 -273.5 69.5t-182.5 193.5t-65 288t65 288t182.5 193t273.5 69t273.5 -69t183 -193t65.5 -288t-65.5 -288t-183 -193.5t-273.5 -69.5z
M2259 62q127 0 222.5 58.5t148 163.5t52.5 246q0 142 -53 246.5t-148 163t-222 58.5q-126 0 -221.5 -58.5t-148.5 -163t-53 -246.5q0 -141 53 -246t148.5 -163.5t221.5 -58.5z" />
    <glyph glyph-name="uni2153" unicode="&#x2153;" horiz-adv-x="2302" 
d="M301 600v961h-58v89h145v-1050h-87zM258 0l1133 1650h96l-1132 -1650h-97zM1617 -21q-144 0 -243 74.5t-109 200.5l87 30q2 -98 76.5 -159t188.5 -61q111 0 177.5 59t66.5 152q0 67 -33 120.5t-87.5 85t-119.5 31.5q-24 0 -42 -5v69h36q67 0 120.5 30t85 80t31.5 108
q0 59 -30 106t-80.5 74.5t-111.5 27.5q-60 0 -111 -28t-82 -75t-34 -106l-77 24q6 77 48 136.5t110 93t148 33.5q88 0 157.5 -38.5t109.5 -103t40 -140.5q0 -83 -48.5 -152.5t-129.5 -98.5q82 -25 138.5 -97t56.5 -174q0 -83 -40.5 -150.5t-116.5 -107t-182 -39.5z" />
    <glyph glyph-name="uni2154" unicode="&#x2154;" horiz-adv-x="2902" 
d="M297 600v42q213 145 352 250.5t219 182.5t113 137.5t33 117.5q0 73 -40.5 133t-109 95.5t-152.5 35.5q-83 0 -151.5 -35.5t-111.5 -97t-49 -139.5l-85 26q8 95 62.5 170t143 118.5t195.5 43.5q111 0 201 -45.5t143.5 -124.5t53.5 -179q0 -64 -28.5 -126.5t-98 -135
t-190.5 -165.5t-305 -218h644v-86h-839zM858 0l1133 1650h96l-1132 -1650h-97zM2216 -21q-144 0 -243 74.5t-109 200.5l87 30q2 -98 76.5 -159t188.5 -61q111 0 177.5 59t66.5 152q0 67 -33 120.5t-87.5 85t-119.5 31.5q-24 0 -42 -5v69h36q67 0 120.5 30t85 80t31.5 108
q0 59 -30 106t-80.5 74.5t-111.5 27.5q-60 0 -111 -28t-82 -75t-34 -106l-77 24q6 77 48 136.5t110 93t148 33.5q88 0 157.5 -38.5t109.5 -103t40 -140.5q0 -83 -48.5 -152.5t-129.5 -98.5q82 -25 138.5 -97t56.5 -174q0 -83 -40.5 -150.5t-116.5 -107t-182 -39.5z" />
    <glyph glyph-name="uni2155" unicode="&#x2155;" horiz-adv-x="2365" 
d="M301 600v961h-58v89h145v-1050h-87zM258 0l1133 1650h96l-1132 -1650h-97zM1617 -20q-146 0 -263 60.5t-164 167.5l80 37q39 -87 131.5 -135t218.5 -48q152 0 242.5 70t90.5 197q0 91 -46 156.5t-126 100.5t-181 35q-93 0 -179 -31.5t-166 -95.5l94 556h621v-78h-547
l-66 -356q70 41 147.5 55.5t161.5 7.5q179 -14 280.5 -109.5t101.5 -241.5q0 -114 -59.5 -191.5t-157.5 -117t-214 -39.5z" />
    <glyph glyph-name="uni2156" unicode="&#x2156;" horiz-adv-x="2965" 
d="M297 600v42q213 145 352 250.5t219 182.5t113 137.5t33 117.5q0 73 -40.5 133t-109 95.5t-152.5 35.5q-83 0 -151.5 -35.5t-111.5 -97t-49 -139.5l-85 26q8 95 62.5 170t143 118.5t195.5 43.5q111 0 201 -45.5t143.5 -124.5t53.5 -179q0 -64 -28.5 -126.5t-98 -135
t-190.5 -165.5t-305 -218h644v-86h-839zM858 0l1133 1650h96l-1132 -1650h-97zM2216 -20q-146 0 -263 60.5t-164 167.5l80 37q39 -87 131.5 -135t218.5 -48q152 0 242.5 70t90.5 197q0 91 -46 156.5t-126 100.5t-181 35q-93 0 -179 -31.5t-166 -95.5l94 556h621v-78h-547
l-66 -356q70 41 147.5 55.5t161.5 7.5q179 -14 280.5 -109.5t101.5 -241.5q0 -114 -59.5 -191.5t-157.5 -117t-214 -39.5z" />
    <glyph glyph-name="uni2157" unicode="&#x2157;" horiz-adv-x="2848" 
d="M655 579q-144 0 -243 74.5t-109 200.5l87 30q2 -98 76.5 -159t188.5 -61q111 0 177.5 59t66.5 152q0 67 -33 120.5t-87.5 85t-118.5 31.5q-25 0 -43 -5v69h36q67 0 120.5 30t85 80t31.5 108q0 59 -30.5 106t-80.5 74.5t-111 27.5q-60 0 -111 -28t-82 -75t-33 -106l-78 24
q6 77 48 136.5t110 93t148 33.5q88 0 157.5 -38.5t109.5 -103t40 -141.5q0 -82 -48.5 -151t-129.5 -99q83 -25 139 -97t56 -174q0 -83 -40.5 -150.5t-116.5 -107t-182 -39.5zM741 0l1133 1650h96l-1132 -1650h-97zM2099 -20q-146 0 -263 60.5t-164 167.5l80 37
q39 -87 131.5 -135t218.5 -48q152 0 242.5 70t90.5 197q0 91 -46 156.5t-126 100.5t-181 35q-93 0 -179 -31.5t-166 -95.5l94 556h621v-78h-547l-66 -356q70 41 147.5 55.5t161.5 7.5q179 -14 280.5 -109.5t101.5 -241.5q0 -114 -59.5 -191.5t-157.5 -117t-214 -39.5z" />
    <glyph glyph-name="uni2158" unicode="&#x2158;" horiz-adv-x="2847" 
d="M827 600v202h-588v43l585 805h90v-767h137v-81h-137v-202h-87zM357 883h470v648zM740 0l1133 1650h96l-1132 -1650h-97zM2098 -20q-146 0 -263 60.5t-164 167.5l80 37q39 -87 131.5 -135t218.5 -48q152 0 242.5 70t90.5 197q0 91 -46 156.5t-126 100.5t-181 35
q-93 0 -179 -31.5t-166 -95.5l94 556h621v-78h-547l-66 -356q70 41 147.5 55.5t161.5 7.5q179 -14 280.5 -109.5t101.5 -241.5q0 -114 -59.5 -191.5t-157.5 -117t-214 -39.5z" />
    <glyph glyph-name="uni2159" unicode="&#x2159;" horiz-adv-x="2136" 
d="M301 600v961h-58v89h145v-1050h-87zM258 0l1133 1650h96l-1132 -1650h-97zM1515 -20q-130 0 -224.5 50.5t-145 131.5t-50.5 171q0 80 36 160t95 140l405 417h113l-374 -388q42 19 84.5 28t86.5 9q107 0 196.5 -46t143.5 -127t54 -188q0 -105 -54.5 -185.5t-149 -126.5
t-216.5 -46zM1513 58q96 0 170.5 36t118 99t43.5 143q0 82 -43.5 146t-117 100.5t-163.5 36.5q-92 0 -168 -38t-121.5 -103t-45.5 -146q0 -74 40.5 -136.5t114 -100t172.5 -37.5z" />
    <glyph glyph-name="uni215A" unicode="&#x215a;" horiz-adv-x="2755" 
d="M724 580q-146 0 -263 60.5t-164 167.5l80 37q39 -87 132 -135t218 -48q151 0 242 70.5t91 196.5q0 92 -47.5 157t-130 100t-186.5 35q-96 0 -177.5 -31.5t-156.5 -95.5l94 556h621v-78h-547l-66 -356q66 40 144.5 55.5t163.5 7.5q178 -13 280.5 -108.5t102.5 -242.5
q0 -114 -59 -191.5t-157 -117t-215 -39.5zM878 0l1133 1650h96l-1132 -1650h-97zM2134 -20q-130 0 -224.5 50.5t-145 131.5t-50.5 171q0 80 36 160t95 140l405 417h113l-374 -388q42 19 84.5 28t86.5 9q107 0 196.5 -46t143.5 -127t54 -188q0 -105 -54.5 -185.5t-149 -126.5
t-216.5 -46zM2132 58q96 0 170.5 36t118 99t43.5 143q0 82 -43.5 146t-117 100.5t-163.5 36.5q-92 0 -168 -38t-121.5 -103t-45.5 -146q0 -74 40.5 -136.5t114 -100t172.5 -37.5z" />
    <glyph glyph-name="oneeighth" unicode="&#x215b;" horiz-adv-x="2260" 
d="M301 600v961h-58v89h145v-1050h-87zM258 0l1133 1650h96l-1132 -1650h-97zM1577 -21q-102 0 -181 40.5t-124.5 109t-45.5 153.5q0 95 57.5 171t154.5 111q-77 32 -123 98.5t-46 146.5q0 77 40.5 138t110 97t156.5 36q88 0 157.5 -35.5t110 -97t40.5 -137.5
q0 -80 -45 -147t-123 -99q96 -35 153.5 -111t57.5 -171q0 -85 -46 -153.5t-124.5 -109t-179.5 -40.5zM1577 60q110 0 180.5 65.5t70.5 163.5q0 66 -33 118t-89.5 82t-128.5 30q-71 0 -128 -29t-90.5 -81t-33.5 -119q0 -99 70.5 -164.5t181.5 -65.5zM1577 600q94 0 156.5 58
t62.5 146q0 87 -63 145.5t-156 58.5t-156 -58.5t-63 -146.5q0 -87 63 -145t156 -58z" />
    <glyph glyph-name="threeeighths" unicode="&#x215c;" horiz-adv-x="2743" 
d="M655 579q-144 0 -243 74.5t-109 200.5l87 30q2 -98 76.5 -159t188.5 -61q111 0 177.5 59t66.5 152q0 67 -33 120.5t-87.5 85t-118.5 31.5q-25 0 -43 -5v69h36q67 0 120.5 30t85 80t31.5 108q0 59 -30.5 106t-80.5 74.5t-111 27.5q-60 0 -111 -28t-82 -75t-33 -106l-78 24
q6 77 48 136.5t110 93t148 33.5q88 0 157.5 -38.5t109.5 -103t40 -141.5q0 -82 -48.5 -151t-129.5 -99q83 -25 139 -97t56 -174q0 -83 -40.5 -150.5t-116.5 -107t-182 -39.5zM741 0l1133 1650h96l-1132 -1650h-97zM2059 -21q-102 0 -181 40.5t-124.5 109t-45.5 153.5
q0 95 57.5 171t154.5 111q-77 32 -123 98.5t-46 146.5q0 77 40.5 138t110 97t156.5 36q88 0 157.5 -35.5t110 -97t40.5 -137.5q0 -80 -45 -147t-123 -99q96 -35 153.5 -111t57.5 -171q0 -85 -46 -153.5t-124.5 -109t-179.5 -40.5zM2059 60q110 0 180.5 65.5t70.5 163.5
q0 66 -33 118t-89.5 82t-128.5 30q-71 0 -128 -29t-90.5 -81t-33.5 -119q0 -99 70.5 -164.5t181.5 -65.5zM2059 600q94 0 156.5 58t62.5 146q0 87 -63 145.5t-156 58.5t-156 -58.5t-63 -146.5q0 -87 63 -145t156 -58z" />
    <glyph glyph-name="fiveeighths" unicode="&#x215d;" horiz-adv-x="2879" 
d="M724 580q-146 0 -263 60.5t-164 167.5l80 37q39 -87 132 -135t218 -48q151 0 242 70.5t91 196.5q0 92 -47.5 157t-130 100t-186.5 35q-96 0 -177.5 -31.5t-156.5 -95.5l94 556h621v-78h-547l-66 -356q66 40 144.5 55.5t163.5 7.5q178 -13 280.5 -108.5t102.5 -242.5
q0 -114 -59 -191.5t-157 -117t-215 -39.5zM878 0l1133 1650h96l-1132 -1650h-97zM2196 -21q-102 0 -181 40.5t-124.5 109t-45.5 153.5q0 95 57.5 171t154.5 111q-77 32 -123 98.5t-46 146.5q0 77 40.5 138t110 97t156.5 36q88 0 157.5 -35.5t110 -97t40.5 -137.5
q0 -80 -45 -147t-123 -99q96 -35 153.5 -111t57.5 -171q0 -85 -46 -153.5t-124.5 -109t-179.5 -40.5zM2196 60q110 0 180.5 65.5t70.5 163.5q0 66 -33 118t-89.5 82t-128.5 30q-71 0 -128 -29t-90.5 -81t-33.5 -119q0 -99 70.5 -164.5t181.5 -65.5zM2196 600q94 0 156.5 58
t62.5 146q0 87 -63 145.5t-156 58.5t-156 -58.5t-63 -146.5q0 -87 63 -145t156 -58z" />
    <glyph glyph-name="seveneighths" unicode="&#x215e;" horiz-adv-x="2574" 
d="M288 600l550 970h-541v80h674v-31l-576 -1019h-107zM573 0l1133 1650h96l-1132 -1650h-97zM1891 -21q-102 0 -181 40.5t-124.5 109t-45.5 153.5q0 95 57.5 171t154.5 111q-77 32 -123 98.5t-46 146.5q0 77 40.5 138t110 97t156.5 36q88 0 157.5 -35.5t110 -97
t40.5 -137.5q0 -80 -45 -147t-123 -99q96 -35 153.5 -111t57.5 -171q0 -85 -46 -153.5t-124.5 -109t-179.5 -40.5zM1891 60q110 0 180.5 65.5t70.5 163.5q0 66 -33 118t-89.5 82t-128.5 30q-71 0 -128 -29t-90.5 -81t-33.5 -119q0 -99 70.5 -164.5t181.5 -65.5zM1891 600
q94 0 156.5 58t62.5 146q0 87 -63 145.5t-156 58.5t-156 -58.5t-63 -146.5q0 -87 63 -145t156 -58z" />
    <glyph glyph-name="uni215F" unicode="&#x215f;" horiz-adv-x="893" 
d="M301 600v961h-58v89h145v-1050h-87zM258 0l1133 1650h96l-1132 -1650h-97z" />
    <glyph glyph-name="uni2189" unicode="&#x2189;" horiz-adv-x="2898" 
d="M725 579q-156 0 -273.5 69.5t-183 193.5t-65.5 288t65.5 288t183 193t273.5 69t273 -69t182.5 -193t65.5 -288t-65.5 -288t-182.5 -193.5t-273 -69.5zM725 662q127 0 222 58.5t148 163.5t53 246q0 142 -53 246.5t-148.5 163t-221.5 58.5q-127 0 -222 -58.5t-148.5 -163
t-53.5 -246.5q0 -141 53 -246t148.5 -163.5t222.5 -58.5zM854 0l1133 1650h96l-1132 -1650h-97zM2213 -21q-144 0 -243 74.5t-109 200.5l87 30q2 -98 76.5 -159t188.5 -61q111 0 177.5 59t66.5 152q0 67 -33 120.5t-87.5 85t-119.5 31.5q-24 0 -42 -5v69h36q67 0 120.5 30
t85 80t31.5 108q0 59 -30 106t-80.5 74.5t-111.5 27.5q-60 0 -111 -28t-82 -75t-34 -106l-77 24q6 77 48 136.5t110 93t148 33.5q88 0 157.5 -38.5t109.5 -103t40 -140.5q0 -83 -48.5 -152.5t-129.5 -98.5q82 -25 138.5 -97t56.5 -174q0 -83 -40.5 -150.5t-116.5 -107
t-182 -39.5z" />
    <glyph glyph-name="partialdiff" unicode="&#x2202;" horiz-adv-x="1459" 
d="M742 -32q-124 0 -230 40t-185 113.5t-123 173.5t-44 218q0 111 39 210.5t111 176t171.5 121t220.5 44.5q106 0 202 -36.5t170 -104.5t111 -163q-7 208 -66 382t-174.5 313t-294.5 242l50 84q197 -115 330.5 -271.5t201.5 -354t68 -435.5q0 -162 -32.5 -299t-100.5 -239
t-173 -158.5t-252 -56.5zM727 64q137 0 237.5 64t155 168.5t54.5 225.5q0 136 -65 235.5t-170 154t-228 54.5q-137 0 -236.5 -64t-154.5 -168t-55 -226q0 -136 64.5 -236t169.5 -154t228 -54z" />
    <glyph glyph-name="emptyset" unicode="&#x2205;" horiz-adv-x="1200" 
d="M180 177l-45 45l908 910l45 -46zM611 200q-126 0 -228.5 61t-163.5 164t-61 228q0 126 61 229.5t163.5 164.5t229.5 61t229.5 -61t163 -164.5t60.5 -228.5q0 -126 -61 -229t-164 -164t-229 -61zM611 274q107 0 193.5 51t137.5 137t51 192q0 107 -51 193t-137.5 137
t-193.5 51q-106 0 -192 -51t-137.5 -137t-51.5 -193q0 -106 51.5 -192t137.5 -137t192 -51z" />
    <glyph glyph-name="product" unicode="&#x220f;" horiz-adv-x="1405" 
d="M451 0v1632h-171v88h845v-88h-172v-1632h-91v1632h-319v-1632h-92z" />
    <glyph glyph-name="summation" unicode="&#x2211;" horiz-adv-x="1405" 
d="M280 0l250 860l-250 860h845v-88h-722l219 -772l-219 -772h722v-88h-845z" />
    <glyph glyph-name="minus" unicode="&#x2212;" horiz-adv-x="1696" 
d="M336 783v91h1024v-91h-1024z" />
    <glyph glyph-name="DivisionSlash" unicode="&#x2215;" horiz-adv-x="1048" 
d="M70 -240l824 1960h84l-824 -1960h-84z" />
    <glyph glyph-name="radical" unicode="&#x221a;" horiz-adv-x="1644" 
d="M512 -32l-232 641h93l184 -514l383 1625h425v-88h-351l-400 -1664h-102z" />
    <glyph glyph-name="infinity" unicode="&#x221e;" horiz-adv-x="2153" 
d="M566 120q-79 0 -154 31t-134 88t-94 135t-35 171t35 171t94.5 134.5t134 87.5t153.5 31q98 0 183.5 -47.5t166 -128t161.5 -180.5q81 100 161 180.5t166 128t183 47.5q79 0 153.5 -31t134 -87.5t95 -134.5t35.5 -171t-35.5 -171t-94.5 -135t-133.5 -88t-154.5 -31
q-97 0 -183 47.5t-166 128.5t-161 181q-81 -100 -161.5 -181t-166 -128.5t-183.5 -47.5zM573 214q84 0 156 44.5t143 119.5t149 167q-78 92 -148.5 166.5t-142.5 119t-157 44.5q-80 0 -154 -41t-122 -115.5t-48 -173.5q0 -98 47.5 -173t122 -116.5t154.5 -41.5zM1580 214
q81 0 155 41.5t121.5 116.5t47.5 173q0 99 -47.5 173.5t-122 115.5t-154.5 41q-84 0 -156.5 -44.5t-142.5 -119t-149 -166.5q79 -92 149.5 -167t142.5 -119.5t156 -44.5z" />
    <glyph glyph-name="integral" unicode="&#x222b;" horiz-adv-x="919" 
d="M72 -551q-51 0 -94 13.5t-74 40.5l45 76q41 -37 115 -37q85 0 134.5 59t61.5 172l169 1646q11 108 48 182t99 111.5t148 37.5q52 0 94.5 -13.5t73.5 -40.5l-45 -76q-42 37 -116 37q-83 0 -133 -59t-62 -172l-169 -1646q-11 -108 -48.5 -182t-99 -111.5t-147.5 -37.5z" />
    <glyph glyph-name="approxequal" unicode="&#x2248;" horiz-adv-x="1651" 
d="M1025 914q-66 0 -114.5 24.5t-91 56t-88.5 56t-107 24.5q-81 0 -137.5 -46.5t-89.5 -108.5l-61 54q45 78 117.5 132t169.5 54q68 0 119 -24t94 -56t89 -56t103 -24q70 0 128.5 41.5t97.5 113.5l61 -54q-34 -60 -80.5 -101.5t-100 -63.5t-109.5 -22zM1025 453
q-66 0 -114.5 24t-91 56t-88.5 56t-107 24q-81 0 -137.5 -46.5t-89.5 -108.5l-61 54q45 79 117.5 133t169.5 54q68 0 119 -24.5t94 -56t89 -56t103 -24.5q70 0 128.5 41.5t97.5 113.5l61 -54q-34 -59 -80.5 -101t-100 -63.5t-109.5 -21.5z" />
    <glyph glyph-name="notequal" unicode="&#x2260;" horiz-adv-x="1524" 
d="M348 280l180 311h-277v91h328l172 294h-500v92h555l176 302h79l-176 -302h390v-92h-445l-172 -294h617v-91h-668l-180 -311h-79z" />
    <glyph glyph-name="lessequal" unicode="&#x2264;" horiz-adv-x="1559" 
d="M1315 430l-1095 527v69l1095 528v-86l-988 -477l988 -476v-85zM220 167v91h1095v-91h-1095z" />
    <glyph glyph-name="greaterequal" unicode="&#x2265;" horiz-adv-x="1559" 
d="M244 430v85l988 476l-988 477v86l1094 -528v-69zM244 167v91h1094v-91h-1094z" />
    <glyph glyph-name="lozenge" unicode="&#x25ca;" horiz-adv-x="1200" 
d="M537 -80l-420 875l420 875h126l420 -875l-420 -875h-126zM600 30l369 765l-369 765l-369 -765z" />
    <glyph glyph-name="i.loclTRK" horiz-adv-x="554" 
d="M224 0v1024h106v-1024h-106zM278 1399q-21 0 -38 10t-27 27t-10 38q0 20 10 36.5t27 27t38 10.5q20 0 36.5 -10.5t27 -27t10.5 -36.5q0 -21 -10.5 -38t-27 -27t-36.5 -10z" />
    <glyph glyph-name="f_f_j" horiz-adv-x="1362" 
d="M927 -550q-66 0 -107.5 15.5t-64.5 33.5l32 84q20 -17 50.5 -28.5t72.5 -11.5q79 0 122.5 53.5t43.5 168.5v1179h-319v-944h-106v944h-336v-944h-106v944h-94v80h94v395q0 117 33 190t91.5 107t136.5 34q53 0 91 -12.5t63 -27.5l-41 -75q-19 10 -43.5 16t-55.5 6
q-83 0 -126 -53t-43 -178v-402h336v395q0 117 33 190t91.5 107t136.5 34q50 0 97.5 -16.5t85.5 -45.5t61 -69l-59 -57q-20 43 -68 69.5t-95 26.5q-86 0 -131.5 -53.5t-45.5 -178.5v-402h425v-1262q0 -80 -17 -139t-50 -97t-80.5 -57t-107.5 -19z" />
    <glyph glyph-name="f_f_t" horiz-adv-x="1726" 
d="M1420 -32q-71 0 -114.5 24t-66.5 64t-31 89.5t-8 99.5v699h-369v-944h-106v944h-336v-944h-106v944h-94v80h94v395q0 117 33 190t91.5 107t136.5 34q53 0 91 -12.5t63 -27.5l-41 -75q-19 10 -43.5 16t-55.5 6q-83 0 -126 -53t-43 -178v-402h336v395q0 117 32.5 190
t91.5 107t137 34q53 0 90.5 -12.5t62.5 -27.5l-41 -75q-19 11 -43.5 16.5t-54.5 5.5q-83 0 -126 -53t-43 -178v-402h369v382h106v-382h263v-80h-263v-688q0 -95 30.5 -145t104.5 -50q37 0 65 11.5t43 22.5l26 -85q-20 -14 -60 -28t-95 -14z" />
    <glyph glyph-name="f_j" horiz-adv-x="920" 
d="M485 -550q-66 0 -107.5 15.5t-64.5 33.5l32 84q20 -17 50.5 -28.5t72.5 -11.5q79 0 122.5 53.5t43.5 168.5v1179h-319v-944h-106v944h-94v80h94v395q0 117 32.5 190t91.5 107t137 34q50 0 97.5 -16.5t85.5 -45.5t61 -69l-59 -57q-20 43 -68 69.5t-95 26.5
q-87 0 -132 -53.5t-45 -178.5v-402h425v-1262q0 -80 -17 -139t-50 -97t-80.5 -57t-107.5 -19z" />
    <glyph glyph-name="f_t" horiz-adv-x="1274" 
d="M973 -32q-71 0 -114.5 24t-66.5 64t-31 89.5t-8 99.5v699h-369v-944h-106v944h-94v80h94v395q0 117 32.5 190t91.5 107t137 34q53 0 90.5 -12.5t61.5 -27.5l-40 -75q-19 11 -43.5 16.5t-55.5 5.5q-82 0 -125 -53t-43 -178v-402h369v382h106v-382h263v-80h-263v-688
q0 -95 30.5 -145t104.5 -50q37 0 65 11.5t43 22.5l26 -85q-20 -14 -60 -28t-95 -14z" />
    <glyph glyph-name="zero.dnom" horiz-adv-x="1363" 
d="M671 -21q-156 0 -273.5 69.5t-182.5 193.5t-65 288t65 288t182.5 193t273.5 69t273.5 -69t183 -193t65.5 -288t-65.5 -288t-183 -193.5t-273.5 -69.5zM671 62q127 0 222.5 58.5t148 163.5t52.5 246q0 142 -53 246.5t-148 163t-222 58.5q-126 0 -221.5 -58.5t-148.5 -163
t-53 -246.5q0 -141 53 -246t148.5 -163.5t221.5 -58.5z" />
    <glyph glyph-name="one.dnom" horiz-adv-x="695" 
d="M458 0v961h-58v89h145v-1050h-87z" />
    <glyph glyph-name="two.dnom" horiz-adv-x="1453" 
d="M297 0v42q213 145 352 250.5t219 182.5t113 137.5t33 117.5q0 73 -40.5 133t-109 95.5t-152.5 35.5q-83 0 -151.5 -35.5t-111.5 -97t-49 -139.5l-85 26q8 95 62.5 170t143 118.5t195.5 43.5q111 0 201 -45.5t143.5 -124.5t53.5 -179q0 -64 -28.5 -126.5t-98 -135
t-190.5 -165.5t-305 -218h644v-86h-839z" />
    <glyph glyph-name="three.dnom" horiz-adv-x="1409" 
d="M724 -21q-144 0 -243 74.5t-109 200.5l87 30q2 -98 76.5 -159t188.5 -61q111 0 177.5 59t66.5 152q0 67 -33 120.5t-87.5 85t-119.5 31.5q-24 0 -42 -5v69h36q67 0 120.5 30t85 80t31.5 108q0 59 -30 106t-80.5 74.5t-111.5 27.5q-60 0 -111 -28t-82 -75t-34 -106l-77 24
q6 77 48 136.5t110 93t148 33.5q88 0 157.5 -38.5t109.5 -103t40 -140.5q0 -83 -48.5 -152.5t-129.5 -98.5q82 -25 138.5 -97t56.5 -174q0 -83 -40.5 -150.5t-116.5 -107t-182 -39.5z" />
    <glyph glyph-name="four.dnom" horiz-adv-x="1239" 
d="M732 0v202h-589v43l585 805h91v-767h137v-81h-137v-202h-87zM261 283h471v648z" />
    <glyph glyph-name="five.dnom" horiz-adv-x="1473" 
d="M724 -20q-146 0 -263 60.5t-164 167.5l80 37q39 -87 131.5 -135t218.5 -48q152 0 242.5 70t90.5 197q0 91 -46 156.5t-126 100.5t-181 35q-93 0 -179 -31.5t-166 -95.5l94 556h621v-78h-547l-66 -356q70 41 147.5 55.5t161.5 7.5q179 -14 280.5 -109.5t101.5 -241.5
q0 -114 -59.5 -191.5t-157.5 -117t-214 -39.5z" />
    <glyph glyph-name="six.dnom" horiz-adv-x="1243" 
d="M622 -20q-130 0 -224.5 50.5t-145 131.5t-50.5 171q0 80 36 160t95 140l405 417h113l-374 -388q42 19 84.5 28t86.5 9q107 0 196.5 -46t143.5 -127t54 -188q0 -105 -54.5 -185.5t-149 -126.5t-216.5 -46zM620 58q96 0 170.5 36t118 99t43.5 143q0 82 -43.5 146
t-117 100.5t-163.5 36.5q-92 0 -168 -38t-121.5 -103t-45.5 -146q0 -74 40.5 -136.5t114 -100t172.5 -37.5z" />
    <glyph glyph-name="seven.dnom" horiz-adv-x="1254" 
d="M374 0l550 970h-541v80h675v-31l-577 -1019h-107z" />
    <glyph glyph-name="eight.dnom" horiz-adv-x="1367" 
d="M684 -21q-102 0 -181 40.5t-124.5 109t-45.5 153.5q0 95 57.5 171t154.5 111q-77 32 -123 98.5t-46 146.5q0 77 40.5 138t110 97t156.5 36q88 0 157.5 -35.5t110 -97t40.5 -137.5q0 -80 -45 -147t-123 -99q96 -35 153.5 -111t57.5 -171q0 -85 -46 -153.5t-124.5 -109
t-179.5 -40.5zM684 60q110 0 180.5 65.5t70.5 163.5q0 66 -33 118t-89.5 82t-128.5 30q-71 0 -128 -29t-90.5 -81t-33.5 -119q0 -99 70.5 -164.5t181.5 -65.5zM684 600q94 0 156.5 58t62.5 146q0 87 -63 145.5t-156 58.5t-156 -58.5t-63 -146.5q0 -87 63 -145t156 -58z" />
    <glyph glyph-name="nine.dnom" horiz-adv-x="1465" 
d="M503 0l382 400q-36 -22 -80 -33.5t-94 -11.5q-104 0 -195 46t-147.5 128t-56.5 191q0 102 53 183.5t147.5 129t218.5 47.5t218 -47.5t148 -129t55 -184.5q1 -62 -17 -115.5t-47.5 -97.5t-61.5 -77l-411 -429h-112zM730 436q92 0 166 39t117.5 104.5t43.5 144.5
q0 76 -40.5 138.5t-113 100t-169.5 37.5q-94 0 -168.5 -36t-117.5 -99t-43 -144q0 -84 44.5 -148t119 -100.5t161.5 -36.5z" />
    <glyph glyph-name="zero.numr" horiz-adv-x="1449" 
d="M725 579q-156 0 -273.5 69.5t-183 193.5t-65.5 288t65.5 288t183 193t273.5 69t273 -69t182.5 -193t65.5 -288t-65.5 -288t-182.5 -193.5t-273 -69.5zM725 662q127 0 222 58.5t148 163.5t53 246q0 142 -53 246.5t-148.5 163t-221.5 58.5q-127 0 -222 -58.5t-148.5 -163
t-53.5 -246.5q0 -141 53 -246t148.5 -163.5t222.5 -58.5z" />
    <glyph glyph-name="one.numr" horiz-adv-x="853" 
d="M301 600v961h-58v89h145v-1050h-87z" />
    <glyph glyph-name="two.numr" horiz-adv-x="1453" 
d="M297 600v42q213 145 352 250.5t219 182.5t113 137.5t33 117.5q0 73 -40.5 133t-109 95.5t-152.5 35.5q-83 0 -151.5 -35.5t-111.5 -97t-49 -139.5l-85 26q8 95 62.5 170t143 118.5t195.5 43.5q111 0 201 -45.5t143.5 -124.5t53.5 -179q0 -64 -28.5 -126.5t-98 -135
t-190.5 -165.5t-305 -218h644v-86h-839z" />
    <glyph glyph-name="three.numr" horiz-adv-x="1336" 
d="M655 579q-144 0 -243 74.5t-109 200.5l87 30q2 -98 76.5 -159t188.5 -61q111 0 177.5 59t66.5 152q0 67 -33 120.5t-87.5 85t-118.5 31.5q-25 0 -43 -5v69h36q67 0 120.5 30t85 80t31.5 108q0 59 -30.5 106t-80.5 74.5t-111 27.5q-60 0 -111 -28t-82 -75t-33 -106l-78 24
q6 77 48 136.5t110 93t148 33.5q88 0 157.5 -38.5t109.5 -103t40 -141.5q0 -82 -48.5 -151t-129.5 -99q83 -25 139 -97t56 -174q0 -83 -40.5 -150.5t-116.5 -107t-182 -39.5z" />
    <glyph glyph-name="four.numr" horiz-adv-x="1335" 
d="M827 600v202h-588v43l585 805h90v-767h137v-81h-137v-202h-87zM357 883h470v648z" />
    <glyph glyph-name="five.numr" horiz-adv-x="1473" 
d="M724 580q-146 0 -263 60.5t-164 167.5l80 37q39 -87 132 -135t218 -48q151 0 242 70.5t91 196.5q0 92 -47.5 157t-130 100t-186.5 35q-96 0 -177.5 -31.5t-156.5 -95.5l94 556h621v-78h-547l-66 -356q66 40 144.5 55.5t163.5 7.5q178 -13 280.5 -108.5t102.5 -242.5
q0 -114 -59 -191.5t-157 -117t-215 -39.5z" />
    <glyph glyph-name="six.numr" horiz-adv-x="1465" 
d="M733 580q-130 0 -224.5 50.5t-145 131.5t-50.5 171q0 78 34.5 157.5t89.5 135.5l412 424h113l-374 -388q42 19 84.5 28t87.5 9q106 0 195.5 -46t143.5 -127.5t54 -187.5q0 -105 -54.5 -185.5t-149 -126.5t-216.5 -46zM731 658q96 0 171 36t118 99t43 143q0 82 -43.5 146
t-117 100.5t-163.5 36.5q-92 0 -168 -38t-121.5 -103t-45.5 -146q0 -74 40.5 -136.5t114 -100t172.5 -37.5z" />
    <glyph glyph-name="seven.numr" horiz-adv-x="1168" 
d="M288 600l550 970h-541v80h674v-31l-576 -1019h-107z" />
    <glyph glyph-name="eight.numr" horiz-adv-x="1367" 
d="M683 579q-100 0 -179 40t-125 109t-46 154q0 96 58 172t154 110q-77 33 -123 99.5t-46 145.5q0 78 41 138.5t110.5 96.5t155.5 36t155.5 -35t111 -96t41.5 -139q0 -80 -45 -147t-123 -99q96 -35 153.5 -111t57.5 -171q0 -86 -46 -154.5t-125 -108.5t-180 -40zM684 660
q110 0 180.5 66t70.5 163q0 66 -32.5 118t-89.5 82t-129 30q-71 0 -128 -29t-90.5 -81t-33.5 -119q0 -98 70.5 -164t181.5 -66zM684 1200q94 0 156.5 58t62.5 145q0 88 -63 146.5t-156 58.5t-156 -58.5t-63 -146.5q0 -87 63 -145t156 -58z" />
    <glyph glyph-name="nine.numr" horiz-adv-x="1465" 
d="M503 600l382 400q-36 -22 -80 -33.5t-94 -11.5q-104 0 -195 46t-147.5 128t-56.5 191q0 102 53 183.5t147.5 129t218.5 47.5t218 -47.5t148 -129t55 -184.5q1 -62 -17 -115.5t-47.5 -97.5t-61.5 -77l-411 -429h-112zM730 1036q92 0 166 39t117.5 104.5t43.5 144.5
q0 76 -40.5 138.5t-113 100t-169.5 37.5q-94 0 -168.5 -36t-117.5 -99t-43 -144q0 -84 44.5 -148t119 -100.5t161.5 -36.5z" />
    </font>
</defs>
</svg>
